<?xml version="1.0" encoding="utf-8"?>
<!-- Generator: Adobe Illustrator 16.0.3, SVG Export Plug-In . SVG Version: 6.00 Build 0)  -->
<!DOCTYPE svg PUBLIC "-//W3C//DTD SVG 1.1//EN" "http://www.w3.org/Graphics/SVG/1.1/DTD/svg11.dtd">
<svg version="1.1"
	 id="svg3476" sodipodi:docname="CSS3.svg" inkscape:version="0.91 r13725" xmlns:inkscape="http://www.inkscape.org/namespaces/inkscape" xmlns:sodipodi="http://sodipodi.sourceforge.net/DTD/sodipodi-0.dtd" xmlns:rdf="http://www.w3.org/1999/02/22-rdf-syntax-ns#" xmlns:dc="http://purl.org/dc/elements/1.1/" xmlns:svg="http://www.w3.org/2000/svg" xmlns:cc="http://creativecommons.org/ns#"
	 xmlns="http://www.w3.org/2000/svg" xmlns:xlink="http://www.w3.org/1999/xlink" x="0px" y="0px" width="290.188px"
	 height="409.6px" viewBox="0 0 290.188 409.6" enable-background="new 0 0 290.188 409.6" xml:space="preserve">
<sodipodi:namedview  id="base" inkscape:window-width="1366" fit-margin-bottom="0" fit-margin-right="0" inkscape:pageshadow="2" inkscape:pageopacity="0.0" inkscape:window-x="0" inkscape:window-height="704" inkscape:window-y="27" inkscape:current-layer="layer1" inkscape:document-units="px" inkscape:window-maximized="1" showgrid="false" inkscape:zoom="0.35" pagecolor="#ffffff" inkscape:cy="256" borderopacity="1.0" fit-margin-top="0" bordercolor="#666666" inkscape:cx="181.367" fit-margin-left="0">
	</sodipodi:namedview>
<g id="layer1" transform="translate(-193.633,-276.3622)" inkscape:groupmode="layer" inkscape:label="Calque 1">
	<g id="g3013" transform="translate(119,276.3622)">
		<path id="path2999" inkscape:connector-curvature="0" fill="#FAFAFA" d="M142.927,0h44v18.4h-25.602v18.4h25.602v18.4h-44V0z"/>
		<path id="path3001" inkscape:connector-curvature="0" fill="#FAFAFA" d="M195.727,0h44v16h-25.6v3.2h25.6V56h-44V39.2h25.6V36
			h-25.6V0z"/>
		<path id="path3003" inkscape:connector-curvature="0" fill="#FAFAFA" d="M248.526,0h44v16h-25.6v3.2h25.6V56h-44V39.2h25.602V36
			h-25.602V0L248.526,0z"/>
		<g>
			<path fill="#FAFAFA" d="M74.633,80.496l26.409,296.205L219.549,409.6l118.835-32.944L364.82,80.496H74.633z M304.046,214.573
				l-0.888,9.756l-8.535,95.641l-0.548,6.138l-74.349,20.605v0.006l-0.167,0.047l-74.417-20.658l-5.089-57.042h16.808h19.659
				l2.587,28.975l40.459,10.925l0.034-0.009v-0.003l40.517-10.937l4.218-47.115h-44.608h-0.126h-81.17l-3.256-36.328h84.426h0.126
				h47.758l3.307-37.2h-51.064h-0.126h-87.666l-3.303-36.329h90.969h0.126h90.877L304.046,214.573z"/>
		</g>
	</g>
</g>
</svg>
