<?xml version="1.0" encoding="utf-8"?>
<!-- Generator: Adobe Illustrator 16.0.3, SVG Export Plug-In . SVG Version: 6.00 Build 0)  -->
<!DOCTYPE svg PUBLIC "-//W3C//DTD SVG 1.1//EN" "http://www.w3.org/Graphics/SVG/1.1/DTD/svg11.dtd">
<svg version="1.1" id="Capa_git" xmlns="http://www.w3.org/2000/svg" xmlns:xlink="http://www.w3.org/1999/xlink" x="0px" y="0px"
	 width="256px" height="256px" viewBox="0 0 256 256" enable-background="new 0 0 256 256" xml:space="preserve">
<g>
	<path fill="#FAFAFA" d="M251.172,116.594L139.398,4.829c-6.432-6.438-16.873-6.438-23.313,0L92.875,28.038l29.442,29.443
		c6.842-2.312,14.688-0.761,20.143,4.693c5.479,5.489,7.02,13.401,4.65,20.266l28.376,28.375c6.864-2.365,14.786-0.834,20.269,4.657
		c7.662,7.66,7.662,20.075,0,27.74c-7.665,7.666-20.08,7.666-27.748,0c-5.765-5.77-7.188-14.234-4.27-21.336l-26.463-26.462
		l-0.003,69.638c1.868,0.926,3.632,2.16,5.188,3.71c7.662,7.659,7.662,20.075,0,27.746c-7.666,7.663-20.087,7.663-27.741,0
		c-7.663-7.671-7.663-20.087,0-27.746c1.893-1.89,4.084-3.32,6.421-4.28V94.195c-2.337-0.955-4.525-2.376-6.421-4.28
		c-5.806-5.798-7.202-14.317-4.228-21.446L81.471,39.442l-76.64,76.634c-6.44,6.443-6.44,16.884,0,23.322l111.773,111.768
		c6.436,6.438,16.873,6.438,23.317,0l111.25-111.248C257.61,133.478,257.61,123.031,251.172,116.594"/>
</g>
</svg>
