<?xml version="1.0" encoding="utf-8"?>
<!-- Generator: Adobe Illustrator 16.0.3, SVG Export Plug-In . SVG Version: 6.00 Build 0)  -->
<!DOCTYPE svg PUBLIC "-//W3C//DTD SVG 1.1//EN" "http://www.w3.org/Graphics/SVG/1.1/DTD/svg11.dtd">
<svg version="1.1" id="Capa_illustrator" xmlns="http://www.w3.org/2000/svg" xmlns:xlink="http://www.w3.org/1999/xlink" x="0px" y="0px"
	 width="307.692px" height="300px" viewBox="346.154 0 307.692 300" enable-background="new 346.154 0 307.692 300"
	 xml:space="preserve">
<g>
	<path fill="#FAFAFA" d="M346.154,0v300h307.692V0H346.154z M358.975,12.82h282.051v274.36H358.975V12.82z"/>
	<path fill="#FAFAFA" d="M452.948,169.871l-10.128,38.463c-0.257,1.025-0.642,1.281-1.923,1.281h-18.847
		c-1.283,0-1.539-0.385-1.283-1.924L457.18,80.256c0.642-2.308,1.025-4.359,1.282-10.641c0-0.897,0.384-1.282,1.025-1.282h26.923
		c0.896,0,1.282,0.256,1.538,1.282l40.77,138.334c0.257,1.025,0,1.666-1.024,1.666H506.41c-1.025,0-1.667-0.256-1.923-1.154
		l-10.643-38.59H452.948L452.948,169.871z M488.59,149.103c-3.59-14.231-12.052-45.256-15.257-60.256h-0.256
		c-2.692,15-9.487,40.385-14.872,60.256H488.59z M546.282,77.82c0-8.205,5.77-13.077,13.077-13.077
		c7.819,0,13.075,5.256,13.075,13.077c0,8.462-5.513,13.077-13.333,13.077C551.667,90.897,546.282,86.282,546.282,77.82
		L546.282,77.82z M547.82,106.923c0-1.025,0.385-1.538,1.539-1.538h20.128c1.024,0,1.538,0.384,1.538,1.538v101.154
		c0,1.024-0.257,1.538-1.538,1.538h-19.872c-1.282,0-1.667-0.641-1.667-1.666V106.923H547.82z"/>
</g>
</svg>
