<?xml version="1.0" encoding="utf-8"?>
<!-- Generator: Adobe Illustrator 16.0.3, SVG Export Plug-In . SVG Version: 6.00 Build 0)  -->
<!DOCTYPE svg PUBLIC "-//W3C//DTD SVG 1.1//EN" "http://www.w3.org/Graphics/SVG/1.1/DTD/svg11.dtd">
<svg version="1.1" id="Capa_js" xmlns="http://www.w3.org/2000/svg" xmlns:xlink="http://www.w3.org/1999/xlink" x="0px" y="0px"
	 width="256px" height="256px" viewBox="0 0 256 256" enable-background="new 0 0 256 256" xml:space="preserve">
<g>
	<path fill="#FAFAFA" d="M0,0v256h256V0H0z M139.314,199.668c0,24.917-14.605,36.259-35.916,36.259
		c-19.245,0-30.417-9.967-36.087-21.995l19.591-11.854c3.779,6.7,7.217,12.371,15.464,12.371c7.905,0,12.889-3.093,12.889-15.121
		V117.53h24.059V199.668z M196.201,235.927c-22.34,0.001-36.775-10.653-43.82-24.573l19.588-11.342
		c5.157,8.422,11.859,14.606,23.717,14.606c9.967,0,16.323-4.983,16.323-11.857c0-8.247-6.528-11.17-17.528-15.979l-6.012-2.579
		c-17.357-7.389-28.871-16.668-28.871-36.258c0-18.045,13.748-31.792,35.229-31.792c15.294,0,26.291,5.328,34.194,19.248
		l-18.729,12.027c-4.125-7.389-8.592-10.31-15.465-10.31c-7.046,0-11.515,4.468-11.515,10.31c0,7.219,4.469,10.141,14.777,14.608
		l6.014,2.577c20.451,8.765,31.965,17.699,31.965,37.804C236.068,224.071,219.055,235.927,196.201,235.927z"/>
</g>
</svg>
