<?xml version="1.0" encoding="utf-8"?>
<!-- Generator: Adobe Illustrator 16.0.3, SVG Export Plug-In . SVG Version: 6.00 Build 0)  -->
<!DOCTYPE svg PUBLIC "-//W3C//DTD SVG 1.1//EN" "http://www.w3.org/Graphics/SVG/1.1/DTD/svg11.dtd">
<svg version="1.1" id="Capa_photoshop" xmlns="http://www.w3.org/2000/svg" xmlns:xlink="http://www.w3.org/1999/xlink" x="0px" y="0px"
	 width="307.692px" height="300px" viewBox="346.154 0 307.692 300" enable-background="new 346.154 0 307.692 300"
	 xml:space="preserve">
<path fill="#FAFAFA" d="M346.154,0v300h307.692V0H346.154z M358.975,12.82h282.051v274.36H358.975V12.82z M420.513,70.256
	c0-0.897,1.794-1.539,2.82-1.539c8.205-0.384,20.385-0.641,33.077-0.641c35.513,0,49.358,19.487,49.358,44.487
	c0,32.564-23.59,46.539-52.563,46.539c-4.872,0-6.538-0.257-10-0.257v49.231c0,1.025-0.385,1.537-1.538,1.537h-19.615
	c-1.025,0-1.539-0.385-1.539-1.537V70.256L420.513,70.256z M443.333,138.333c2.949,0.256,5.257,0.256,10.385,0.256
	c15,0,29.104-5.256,29.104-25.641c0-16.282-10.128-24.487-27.181-24.487c-5.128,0-10,0.256-12.308,0.385V138.333L443.333,138.333z
	 M553.59,123.077c-10.128,0-13.59,5.128-13.59,9.359c0,4.615,2.308,7.82,15.897,14.872c20.128,9.743,26.409,19.103,26.409,32.821
	c0,20.512-15.641,31.537-36.795,31.537c-11.152,0-20.77-2.307-26.282-5.512c-0.896-0.385-1.024-1.025-1.024-2.053v-18.847
	c0-1.28,0.641-1.666,1.538-1.024c8.077,5.256,17.309,7.563,25.77,7.563c10.128,0,14.359-4.229,14.359-10
	c0-4.614-2.949-8.718-15.897-15.385c-18.204-8.718-25.77-17.564-25.77-32.308c0-16.539,12.949-30.256,35.385-30.256
	c11.025,0,18.718,1.667,22.948,3.59c1.026,0.641,1.282,1.667,1.282,2.564v17.564c0,1.026-0.642,1.667-1.923,1.282
	C570.257,125.256,561.923,123.077,553.59,123.077L553.59,123.077z"/>
</svg>
