<?xml version="1.0" encoding="utf-8"?>
<!-- Generator: Adobe Illustrator 16.0.3, SVG Export Plug-In . SVG Version: 6.00 Build 0)  -->
<!DOCTYPE svg PUBLIC "-//W3C//DTD SVG 1.1//EN" "http://www.w3.org/Graphics/SVG/1.1/DTD/svg11.dtd">
<svg version="1.1" id="Capa_sass" xmlns="http://www.w3.org/2000/svg" xmlns:xlink="http://www.w3.org/1999/xlink" x="0px" y="0px"
	 width="256px" height="192px" viewBox="0 0 256 192" enable-background="new 0 0 256 192" xml:space="preserve">
<g>
	<path fill="#FAFAFA" d="M220.281,110.514c-8.906,0.047-16.646,2.191-23.129,5.362c-2.378-4.71-4.756-8.906-5.176-11.983
		c-0.467-3.591-1.025-5.783-0.467-10.073c0.561-4.29,3.078-10.398,3.031-10.865s-0.559-2.658-5.688-2.705
		c-5.13-0.046-9.56,0.979-10.072,2.332c-0.513,1.353-1.492,4.43-2.146,7.601c-0.885,4.663-10.258,21.31-15.621,30.03
		c-1.725-3.404-3.217-6.389-3.543-8.767c-0.467-3.591-1.026-5.782-0.467-10.072s3.078-10.398,3.031-10.865s-0.56-2.658-5.689-2.705
		c-5.129-0.046-9.559,0.979-10.072,2.332c-0.512,1.352-1.072,4.523-2.145,7.6c-1.072,3.078-13.523,30.87-16.787,38.051
		c-1.679,3.684-3.125,6.621-4.15,8.627l0,0c0,0-0.046,0.14-0.187,0.373c-0.886,1.725-1.399,2.658-1.399,2.658s0,0,0,0.046
		c-0.699,1.259-1.445,2.425-1.818,2.425c-0.28,0-0.793-3.357,0.093-7.927c1.865-9.653,6.295-24.667,6.249-25.181
		c0-0.279,0.839-2.891-2.891-4.243c-3.637-1.353-4.943,0.886-5.27,0.886c-0.326,0-0.56,0.793-0.56,0.793s4.057-16.881-7.74-16.881
		c-7.368,0-17.533,8.068-22.569,15.342c-3.171,1.726-9.932,5.409-17.16,9.373c-2.751,1.539-5.596,3.078-8.254,4.523
		c-0.187-0.188-0.373-0.42-0.56-0.606c-14.269-15.248-40.661-26.021-39.542-46.491c0.42-7.46,2.984-27.045,50.688-50.827
		c39.262-19.352,70.505-13.989,75.914-2.099c7.74,16.974-16.74,48.496-57.308,53.065c-15.481,1.725-23.595-4.244-25.647-6.481
		c-2.145-2.332-2.471-2.472-3.264-2.005c-1.306,0.7-0.466,2.798,0,4.01c1.212,3.171,6.202,8.767,14.642,11.518
		c7.461,2.425,25.6,3.777,47.563-4.709c24.574-9.513,43.786-35.952,38.143-58.102c-5.643-22.476-42.946-29.89-78.245-17.346
		C61.085,13.989,38.33,25.74,21.963,41.035C2.518,59.22-0.56,75.028,0.699,81.649c4.523,23.502,36.931,38.796,49.895,50.128
		c-0.653,0.373-1.259,0.699-1.772,0.979c-6.481,3.218-31.195,16.135-37.351,29.797c-6.995,15.481,1.119,26.58,6.481,28.072
		c16.647,4.615,33.76-3.685,42.946-17.394c9.187-13.71,8.067-31.522,3.824-39.683c-0.046-0.094-0.093-0.187-0.187-0.279
		c1.679-0.979,3.404-2.006,5.083-2.984c3.311-1.959,6.575-3.777,9.373-5.27c-1.585,4.337-2.751,9.513-3.311,16.974
		c-0.699,8.767,2.891,20.144,7.601,24.62c2.098,1.959,4.57,2.006,6.155,2.006c5.502,0,7.974-4.57,10.725-9.979
		c3.357-6.622,6.389-14.316,6.389-14.316s-3.777,20.797,6.481,20.797c3.73,0,7.507-4.85,9.186-7.32v0.047
		c0,0,0.093-0.141,0.28-0.467c0.373-0.605,0.606-0.979,0.606-0.979v-0.094c1.492-2.611,4.849-8.533,9.839-18.373
		c6.435-12.683,12.637-28.537,12.637-28.537s0.559,3.87,2.471,10.305c1.119,3.777,3.451,7.928,5.316,11.938
		c-1.492,2.099-2.426,3.265-2.426,3.265s0,0,0.047,0.046c-1.212,1.586-2.518,3.312-3.963,4.99
		c-5.083,6.062-11.145,13.01-11.984,15.015c-0.979,2.378-0.746,4.104,1.119,5.503c1.353,1.025,3.777,1.166,6.248,1.025
		c4.57-0.326,7.787-1.445,9.373-2.145c2.472-0.887,5.363-2.238,8.067-4.244c4.989-3.684,8.021-8.953,7.74-15.9
		c-0.14-3.824-1.399-7.647-2.938-11.238c0.466-0.652,0.886-1.306,1.353-1.958c7.881-11.519,13.988-24.155,13.988-24.155
		s0.561,3.871,2.472,10.306c0.933,3.265,2.845,6.808,4.523,10.259c-7.414,6.016-11.983,13.01-13.616,17.58
		c-2.938,8.486-0.652,12.311,3.684,13.195c1.959,0.42,4.757-0.512,6.809-1.398c2.611-0.84,5.688-2.285,8.627-4.43
		c4.988-3.684,9.792-8.813,9.512-15.762c-0.14-3.17-0.979-6.295-2.145-9.325c6.295-2.611,14.408-4.058,24.76-2.845
		c22.197,2.611,26.58,16.461,25.74,22.289c-0.839,5.829-5.502,9-7.041,9.979c-1.539,0.98-2.052,1.307-1.912,2.006
		c0.188,1.025,0.934,0.979,2.238,0.793c1.818-0.326,11.658-4.71,12.078-15.436C256.42,125.342,243.363,110.374,220.281,110.514
		L220.281,110.514z M49.055,168.242c-7.368,8.02-17.626,11.051-22.056,8.486c-4.756-2.751-2.891-14.596,6.155-23.082
		c5.502-5.176,12.59-9.979,17.3-12.916c1.072-0.653,2.658-1.586,4.569-2.752c0.327-0.186,0.513-0.279,0.513-0.279l0,0
		c0.373-0.233,0.746-0.467,1.119-0.699C59.966,149.123,56.795,159.802,49.055,168.242L49.055,168.242z M102.68,131.777
		c-2.564,6.248-7.927,22.242-11.191,21.356c-2.797-0.746-4.523-12.87-0.56-24.854c2.005-6.015,6.249-13.195,8.72-15.994
		c4.01-4.477,8.44-5.969,9.512-4.149C110.514,110.514,104.265,127.86,102.68,131.777L102.68,131.777z M146.932,152.947
		c-1.072,0.56-2.098,0.933-2.564,0.652c-0.326-0.186,0.467-0.932,0.467-0.932s5.549-5.969,7.74-8.674
		c1.259-1.586,2.751-3.451,4.336-5.549v0.605C156.91,146.186,150.01,150.988,146.932,152.947L146.932,152.947z M181.065,145.16
		c-0.793-0.56-0.653-2.425,2.005-8.254c1.025-2.285,3.451-6.108,7.601-9.792c0.466,1.492,0.793,2.938,0.746,4.29
		C191.371,140.404,184.936,143.762,181.065,145.16L181.065,145.16z"/>
</g>
</svg>
