<?xml version="1.0" encoding="utf-8"?>
<!-- Generator: Adobe Illustrator 16.0.3, SVG Export Plug-In . SVG Version: 6.00 Build 0)  -->
<!DOCTYPE svg PUBLIC "-//W3C//DTD SVG 1.1//EN" "http://www.w3.org/Graphics/SVG/1.1/DTD/svg11.dtd">
<svg version="1.1" id="Capa_wordpress" xmlns="http://www.w3.org/2000/svg" xmlns:xlink="http://www.w3.org/1999/xlink" x="0px" y="0px"
	 width="256px" height="255px" viewBox="0 0 256 255" enable-background="new 0 0 256 255" xml:space="preserve">
<g>
	<path fill="#FAFAFA" d="M18.124,127.5c0,43.295,25.161,80.71,61.646,98.441L27.594,82.986
		C21.525,96.589,18.124,111.643,18.124,127.5L18.124,127.5z M201.346,121.981c0-13.518-4.856-22.88-9.021-30.167
		c-5.544-9.01-10.741-16.64-10.741-25.65c0-10.055,7.626-19.415,18.368-19.415c0.484,0,0.944,0.061,1.417,0.087
		c-19.46-17.828-45.388-28.713-73.863-28.713c-38.213,0-71.832,19.606-91.39,49.302c2.566,0.077,4.985,0.131,7.039,0.131
		c11.441,0,29.15-1.388,29.15-1.388c5.896-0.348,6.592,8.313,0.702,9.01c0,0-5.926,0.697-12.519,1.042l39.832,118.478l23.937-71.79
		l-17.042-46.692c-5.89-0.346-11.47-1.043-11.47-1.043c-5.895-0.345-5.204-9.357,0.691-9.01c0,0,18.063,1.388,28.812,1.388
		c11.439,0,29.15-1.388,29.15-1.388c5.901-0.348,6.594,8.313,0.702,9.01c0,0-5.938,0.697-12.519,1.043l39.527,117.582l10.91-36.459
		C197.746,142.211,201.346,131.345,201.346,121.981L201.346,121.981z M129.424,137.068l-32.818,95.363
		c9.799,2.881,20.162,4.455,30.899,4.455c12.737,0,24.952-2.201,36.323-6.199c-0.294-0.469-0.561-0.966-0.779-1.508L129.424,137.068
		L129.424,137.068z M223.482,75.022c0.47,3.484,0.736,7.224,0.736,11.248c0,11.1-2.073,23.577-8.316,39.178l-33.412,96.6
		c32.519-18.963,54.391-54.192,54.391-94.545C236.883,108.486,232.025,90.603,223.482,75.022L223.482,75.022z M127.505,0
		C57.2,0,0,57.196,0,127.5c0,70.312,57.2,127.507,127.505,127.507c70.302,0,127.511-57.195,127.511-127.507
		C255.014,57.196,197.807,0,127.505,0L127.505,0z M127.505,249.163c-67.081,0-121.659-54.578-121.659-121.663
		C5.846,60.42,60.422,5.846,127.505,5.846c67.078,0,121.651,54.574,121.651,121.654
		C249.156,194.585,194.583,249.163,127.505,249.163L127.505,249.163z"/>
</g>
</svg>
