<?xml version="1.0" encoding="utf-8"?>
<!-- Generator: Adobe Illustrator 19.0.0, SVG Export Plug-In . SVG Version: 6.00 Build 0)  -->
<svg version="1.1" id="Capa_1" xmlns="http://www.w3.org/2000/svg" xmlns:xlink="http://www.w3.org/1999/xlink" x="0px" y="0px"
	 viewBox="0 0 336.6 413.2" style="enable-background:new 0 0 336.6 413.2;" xml:space="preserve">
<style type="text/css">
	.st0{display:none;opacity:0.8;fill:#5F5C70;}
	.st1{opacity:0.8;fill:#BDCE66;}
	.st2{display:none;opacity:0.8;fill:#BC4C57;}
	.st3{display:none;opacity:0.8;fill:#53A6A1;}
	.st4{display:none;}
	.st5{opacity:0.8;fill:#CB666A;}
	.st6{opacity:0.8;fill:#5CA9A9;}
	.st7{opacity:0.8;fill:#57606E;}
</style>
<g id="XMLID_2_">
	<g id="XMLID_16_">
		<polygon id="XMLID_26_" class="st0" points="171.5,183.6 237.8,298.4 304.1,413.2 171.5,413.2 38.9,413.2 105.2,298.4 		"/>
		<polygon id="XMLID_23_" class="st1" points="210.4,246.3 258.5,329.8 306.7,413.2 210.4,413.2 114,413.2 162.2,329.8 		"/>
		<polygon id="XMLID_20_" class="st2" points="100.5,295.8 134.4,354.5 168.3,413.2 100.5,413.2 32.8,413.2 66.7,354.5 		"/>
		<polygon id="XMLID_17_" class="st3" points="142.9,310.8 172.5,362 202.1,413.2 142.9,413.2 83.8,413.2 113.4,362 		"/>
	</g>
	<g id="XMLID_3_" class="st4">
		<polygon id="XMLID_13_" class="st5" points="172,282.4 90.5,141.2 9,0 172,0 335.1,0 253.5,141.2 		"/>
		<polygon id="XMLID_10_" class="st6" points="118.5,205.2 59.2,102.6 0,0 118.5,0 237,0 177.7,102.6 		"/>
		<polygon id="XMLID_7_" class="st1" points="253.3,144.3 211.6,72.2 170,0 253.3,0 336.6,0 294.9,72.2 		"/>
		<polygon id="XMLID_4_" class="st7" points="207.1,125.9 170.7,63 134.4,0 207.1,0 279.8,0 243.4,63 		"/>
	</g>
</g>
</svg>
