<?xml version="1.0" encoding="utf-8"?>
<!-- Generator: Adobe Illustrator 16.0.3, SVG Export Plug-In . SVG Version: 6.00 Build 0)  -->
<!DOCTYPE svg PUBLIC "-//W3C//DTD SVG 1.1//EN" "http://www.w3.org/Graphics/SVG/1.1/DTD/svg11.dtd">
<svg version="1.1"
	 id="svg2" xmlns:rdf="http://www.w3.org/1999/02/22-rdf-syntax-ns#" xmlns:dc="http://purl.org/dc/elements/1.1/" xmlns:svg="http://www.w3.org/2000/svg" xmlns:cc="http://creativecommons.org/ns#"
	 xmlns="http://www.w3.org/2000/svg" xmlns:xlink="http://www.w3.org/1999/xlink" x="0px" y="0px" width="578.106px" height="816px"
	 viewBox="0 0 578.106 816" enable-background="new 0 0 578.106 816" xml:space="preserve">
<g id="g10" transform="matrix(1.3333333,0,0,-1.3333333,0,816)">
	<g id="g12" transform="scale(0.1)">
		<path id="path22" fill="#FAFAFA" d="M403.4,6120h275.845v-272.53h252.327V6120h275.859v-825.29H931.582v276.35H679.259v-276.35
			H403.418V6120H403.4"/>
		<path id="path24" fill="#FAFAFA" d="M1570.17,5846.32h-242.838V6120h761.649v-273.68h-242.952v-551.609h-275.838v551.609H1570.17"
			/>
		<path id="path26" fill="#FAFAFA" d="M2209.86,6120h287.63l176.931-289.98L2851.176,6120h287.739v-825.29h-274.717v409.058
			l-189.778-293.438h-4.739l-189.917,293.438v-409.058H2209.86V6120"/>
		<path id="path28" fill="#FAFAFA" d="M3276.186,6120h275.933v-552.499h387.905v-272.791h-663.838V6120"/>
		<g>
			<path fill="#FAFAFA" d="M0,4917.279L394.578,491.55L2165.241,0l1775.545,492.253l395.01,4425.026H0z M3512.743,3866.983
				l-24.727-275.171l-10.884-122.014h-1.743h-1307.49h-1.879h-765.989l49.607-555.835h716.382h1.879h1113.574h146.265
				l-13.242-145.752l-127.559-1429.014l-8.159-91.699L2167.899,939.624v-0.095l-2.501-0.688L1053.52,1247.497l-76.051,852.276
				h251.14h293.741l38.661-432.905l604.508-163.235l0.502,0.132v0.044l605.395,163.403l62.996,703.967h-666.511h-1.879H953.222
				L819.815,3866.983l-12.997,145.616h1359.203h1.879h1357.837L3512.743,3866.983z"/>
		</g>
	</g>
</g>
</svg>
