<?xml version="1.0" encoding="utf-8"?>
<!-- Generator: Adobe Illustrator 16.0.3, SVG Export Plug-In . SVG Version: 6.00 Build 0)  -->
<!DOCTYPE svg PUBLIC "-//W3C//DTD SVG 1.1//EN" "http://www.w3.org/Graphics/SVG/1.1/DTD/svg11.dtd">
<svg version="1.1" id="Capa_1" xmlns="http://www.w3.org/2000/svg" xmlns:xlink="http://www.w3.org/1999/xlink" x="0px" y="0px"
	 width="400px" height="400px" viewBox="0 0 400 400" enable-background="new 0 0 400 400" xml:space="preserve">
<g id="colores-pantalla">
	
		<polyline fill="none" stroke="#FFFFFF" stroke-width="24" stroke-linecap="round" stroke-linejoin="round" stroke-miterlimit="10" points="
		93,93 324,93 324,334 99,337 93,329.5 316,326 90,323 90,191.5 90,95 93,189 318,189 316,197 99,198 87,204.5 93,236.5 319.5,235 
		321,270 84.5,273.5 	"/>
	
		<line fill="none" stroke="#E7901C" stroke-width="24" stroke-linecap="round" stroke-linejoin="round" stroke-miterlimit="10" x1="108" y1="219" x2="305" y2="219"/>
	
		<line fill="none" stroke="#A4C637" stroke-width="24" stroke-linecap="round" stroke-linejoin="round" stroke-miterlimit="10" x1="108" y1="254" x2="307" y2="254"/>
	
		<polyline fill="none" stroke="#E0AFCC" stroke-width="24" stroke-linecap="round" stroke-linejoin="round" stroke-miterlimit="10" points="
		108,290 305,290 305,300 305,305 108,305 	"/>
	
		<polyline fill="none" stroke="#67C3E6" stroke-width="24" stroke-linecap="round" stroke-linejoin="round" stroke-miterlimit="10" points="
		108,116 307,116 306.557,168.5 108,170.5 108,136 290,135 290.5,149.5 125,154.5 	"/>
	<path fill="none" stroke="#E06353" stroke-width="24" stroke-linecap="round" stroke-linejoin="round" stroke-miterlimit="10" d="
		M88,68h234c0,0,3.443-32.677-6-22.5l-53-1.964L204.25,45.5L262,53l-79.5-9.464L96,46.5l3-2.964L90.5,49.5l92,6.177"/>
</g>
<g id="Pantalla">
	<path fill="none" stroke="#040303" stroke-width="6" stroke-linecap="round" stroke-linejoin="round" stroke-miterlimit="10" d="
		M245.068,55.72"/>
	<g>
		<g>
			<path fill="#040303" d="M243.582,64.262c11.607,0,11.607-18,0-18S231.975,64.262,243.582,64.262L243.582,64.262z"/>
		</g>
	</g>
	<g>
		<g>
			<path fill="#040303" d="M275.482,65.09c11.607,0,11.607-18,0-18C263.876,47.09,263.876,65.09,275.482,65.09L275.482,65.09z"/>
		</g>
	</g>
	<g>
		<g>
			<path fill="#040303" d="M306.557,64.677c11.607,0,11.607-18,0-18C294.95,46.677,294.949,64.677,306.557,64.677L306.557,64.677z"
				/>
		</g>
	</g>
	
		<rect x="99" y="280" fill="none" stroke="#040303" stroke-width="6" stroke-linecap="round" stroke-linejoin="round" stroke-miterlimit="10" width="217" height="35"/>
	
		<rect x="99" y="245" fill="none" stroke="#040303" stroke-width="6" stroke-linecap="round" stroke-linejoin="round" stroke-miterlimit="10" width="217" height="18"/>
	
		<rect x="99" y="208" fill="none" stroke="#040303" stroke-width="6" stroke-linecap="round" stroke-linejoin="round" stroke-miterlimit="10" width="217" height="21"/>
	
		<rect x="99" y="103" fill="none" stroke="#040303" stroke-width="6" stroke-linecap="round" stroke-linejoin="round" stroke-miterlimit="10" width="217" height="77"/>
	
		<line fill="none" stroke="#040303" stroke-width="6" stroke-linecap="round" stroke-linejoin="round" stroke-miterlimit="10" x1="82" y1="79" x2="335" y2="79"/>
	<path fill="none" stroke="#040303" stroke-width="6" stroke-linecap="round" stroke-linejoin="round" stroke-miterlimit="10" d="
		M97.607,31C97.607,31,80,34.34,80,43.869v285.875c0,0,2.992,16.257,17.537,17.257h225.178c0,0,8.285-0.446,10.285-12.877V42.626
		c0,0,1.556-7.626-9.009-11.626H97.607z"/>
</g>
<g id="colores-engranaje">
	<path fill="none" stroke="#B6B5B5" stroke-width="24" stroke-linecap="round" stroke-linejoin="round" stroke-miterlimit="10" d="
		M306.384,223l-2.05,12.667c0,0,52,14,48.333,18.333S365,245,365,245s-14,16.333-2,23s5,29.5,5,29.5l12,4.833L362.667,315
		c0,0-8.333,36.333-18,32s4.333,5,4.333,5l-14-3.333c0,0-37,8.333-41,3.333s-2,15.333-2,15.333s8.668-11.999-20.666-27.666
		c0,0-24.668-23-18.334-24.667s-14.666,2.684-14.666,2.684s15.333-15.351,11.333-25.351s11-33.47,13-35.567s-16-7.099-16-7.099
		s14.334,12.332,32.667-8.334s20,4.001,20.333-0.666S305,259,305,259s36.622,0.835,28.08,9.667c0,0,31.254,10.332,16.254,35.666
		c0,0-7.333,37.334-53,28.334c0,0-60-34.667-8-72.667c0,0,47.659-24.143,54.333,31c0,0-12.666,67-40.333,37c0,0-83.333-27.333-9-65
		c0,0-38.555,38.843-20.667,43.667"/>
</g>
<g id="Engranaje">
	<path fill="none" stroke="#040303" stroke-width="6" stroke-linecap="round" stroke-linejoin="round" stroke-miterlimit="10" d="
		M283.052,293.493c0,0,0.613-19.695,27.438-21.994c0,0,21.61,0.612,20.385,25.136c0,0-0.153,24.678-20.846,21.918
		C310.027,318.553,284.432,319.626,283.052,293.493z"/>
	<path fill="none" stroke="#040303" stroke-width="6" stroke-linecap="round" stroke-linejoin="round" stroke-miterlimit="10" d="
		M246.363,264.43c0,0-13.152-11.678-12.539-12.443c0.613-0.767,3.693-7.832,10.438-14.115c0,0,11.426,5.587,12.807,6.201
		c0,0,16.494-20.969,36.711-18.971c0,0,2.531-12.102,3.566-14.102h16.438c0,0,2.243,5.247,3.22,14.846
		c0,0,20.077-0.289,33.184,11.072c0,0,13.563-7.721,15.939-8.027c0,0,8.353,7.317,9.656,10.385c0,0-2.223,8.945-6.056,15.613
		c0,0,6.364,9.568,9.774,33.06c0,0,10.499,5.622,11.499,6.081v18.854c0,0-10.503,3.678-16.135,4.943c0,0-2.476,14.215-13.815,27.242
		c0,0,1.771,11.188,3.61,11.803c0,0-7.314,9.195-11.299,9.656c0,0-12.777-5.519-13.544-8.584c0,0-5.775,9.351-34.896,6.744
		c0,0-9.171,15.633-9.785,15.326c0,0-13.015-3.525-11.942-4.443c0,0-1.524-17.319-2.293-17.473c0,0-24.479-6.707-33.905-29.467
		l-14.827,4.368c0,0-11.266-20.69-10.346-21.151c0,0,16.896-11.266,16.438-11.149C237.8,300.813,229.753,281.04,246.363,264.43z"/>
</g>
<g id="colores-hoja">
	<path fill="none" stroke="#85A61B" stroke-width="24" stroke-linecap="round" stroke-linejoin="round" stroke-miterlimit="10" d="
		M306.384,220.333"/>
	
		<polyline fill="none" stroke="#85A61B" stroke-width="15" stroke-linecap="round" stroke-linejoin="round" stroke-miterlimit="10" points="
		52.506,198.333 51,211 45.333,215.667 33.333,218.5 40.5,208 	"/>
	<path fill="none" stroke="#DDF58C" stroke-width="24" stroke-linecap="round" stroke-linejoin="round" stroke-miterlimit="10" d="
		M67,195h87l-85,21.667l85-4c0,0-118.666,22.666-120.333,20.666s122,2.334,122,2.334L154.333,254L32,251.333V272l123.667,1.333
		l-3,22.176l-117-5.176l-1.333,21l119,3.667l-0.667,21.333L35,330l-1.667,17l122.333,7L154,369.667L35.333,361.5l0.333,8.5H76"/>
</g>
<g id="Hoja">
	
		<polyline fill="none" stroke="#040303" stroke-width="6" stroke-linecap="round" stroke-linejoin="round" stroke-miterlimit="10" points="
		122.975,272.081 150.509,286.45 122.975,300.818 	"/>
	
		<line fill="none" stroke="#040303" stroke-width="6" stroke-linecap="round" stroke-linejoin="round" stroke-miterlimit="10" x1="108.52" y1="256.766" x2="78.577" y2="317.684"/>
	
		<polyline fill="none" stroke="#040303" stroke-width="6" stroke-linecap="round" stroke-linejoin="round" stroke-miterlimit="10" points="
		66.875,272.081 38.137,286.191 65.843,300.818 	"/>
	<path fill="none" stroke="#040303" stroke-width="6" stroke-linecap="round" stroke-linejoin="round" stroke-miterlimit="10" d="
		M23,223h28.301c0,0,2.699-2.2,6.699-8.654V182"/>
	<path fill="none" stroke="#040303" stroke-width="6" stroke-linecap="round" stroke-linejoin="round" stroke-miterlimit="10" d="
		M60.788,182.145l-37.913,37.396l0.532,150.828c0,0,0.024,7.631,5.57,9.631h132.288c0,0,2.735-3.291,2.735-9.229V190.856
		c0,0-0.013-8.475-7.756-8.711C148.5,181.908,60.788,182.145,60.788,182.145z"/>
</g>
</svg>
