<?xml version="1.0" encoding="utf-8"?>
<!-- Generator: Adobe Illustrator 16.0.3, SVG Export Plug-In . SVG Version: 6.00 Build 0)  -->
<!DOCTYPE svg PUBLIC "-//W3C//DTD SVG 1.1//EN" "http://www.w3.org/Graphics/SVG/1.1/DTD/svg11.dtd">
<svg version="1.1" id="Capa_1" xmlns="http://www.w3.org/2000/svg" xmlns:xlink="http://www.w3.org/1999/xlink" x="0px" y="0px"
	 width="400px" height="306.585px" viewBox="0 0 400 306.585" enable-background="new 0 0 400 306.585" xml:space="preserve">
<g id="colores">
	<path fill="none" stroke="#A4C637" stroke-width="17" stroke-linecap="round" stroke-linejoin="round" stroke-miterlimit="10" d="
		M324.5,43V33c0,0-7.165,31.333-5.499,32.667s6.666,28.333,9.333,27s18.334-10.333,15.667-12.333s-6.667-17.477-6.667-17.477
		l-5.807-11.523l-0.806,27.333"/>
	<path fill="none" stroke="#F3AB4A" stroke-width="25" stroke-linecap="round" stroke-linejoin="round" stroke-miterlimit="10" d="
		M333.001,111c0,0,25.666,154.333,26.666,154.333s12.666,3.332,12,0c-0.666-3.334-33-155.333-34-154.333"/>
	<path fill="none" stroke="#E06353" stroke-width="25" stroke-linecap="round" stroke-linejoin="round" stroke-miterlimit="10" d="
		M217.667,224.667c0,0-19.001,13-17.667,16s13,15.998,17.667,9.666c4.667-6.334,24.666-7.666,21-8.666s3.334-17.668-8.333-15.334"/>
	<path fill="none" stroke="#A4C637" stroke-width="25" stroke-linecap="round" stroke-linejoin="round" stroke-miterlimit="10" d="
		M103.334,213.494c0,0-18.667,13.84-14.333,16.174c4.334,2.332,13,20,15.667,18s25.666,1.666,21.333-4.334s8-18.666,2.667-20.666
		s-13.333-11.015-12-9.174c1.333,1.84-5.668,17.043-5.668,17.043"/>
	<path fill="none" stroke="#E0AFCC" stroke-width="25" stroke-linecap="round" stroke-linejoin="round" stroke-miterlimit="10" d="
		M56,143.667c0,0-13,6-9.667,8.333c3.333,2.333,0.787,21.667,4.56,21.333s13.773,13,19.773,4s13.667-15.334,10-17.668
		c-3.667-2.332-8-21.667-9-16s-12.671,18.423-10.169,17.878"/>
	<path fill="none" stroke="#67C3E6" stroke-width="25" stroke-linecap="round" stroke-linejoin="round" stroke-miterlimit="10" d="
		M116.334,72c0,0-14,5-12,8s-10,5-5.667,7.333s-0.333,14.059,3.667,13.863C106.334,101,117.667,111,118,105
		s18.333-8.667,13.333-11.667s3.667-15.334-1.667-15.667s-13.333,9.667-13.333,9.667"/>
	<path fill="none" stroke="#F3AB4A" stroke-width="25" stroke-linecap="round" stroke-linejoin="round" stroke-miterlimit="10" d="
		M279.5,85c0,0-67-50-102-46s-80.495,9-91.748,28C85.752,67,45,85.113,52,98.307l25.255-8.939c0,0-5.745,17.133,0,22.133
		c0,0,30.245,29.5,54.245,16c0,0,38.039-27.355,25.253-34c0,0-8.359-38.815-15.306-38.408c0,0,118.053,3.908,131.553,39.408
		l6.5,3.807l-16,12.193c0,0-65.809-43-98.154-38.5c0,0,85.654,50.5,82.154,50c0,0-64.473-24.625-73.729-27.059
		c-0.525-0.138-0.873-0.205-1.021-0.191c-2.75,0.25,59.5,34.073,56.75,36.287c0,0-60.75-19.287-61.25-18.287s48.25,35.5,47,35.75
		s-62-21.75-59.75-21.25S141.447,142,141.447,142L217,163.908c0,0-125-24.908-123-30.408c0,0-34.333-17.167-34.333-21.5
		c0,0-18-14.655-18.167-10.661S53.667,123.333,51,121s-19.495-4.167-18.664-3.833S30,136.5,29.167,137.5s-8.833,27.5-7.333,28.667
		c1.5,1.166,2.167,21.832,4,22c1.833,0.166-3.5,4.648-3.5,4.648s19.166,5.684,21.833,5.352c2.667-0.334,24,17.666,41.167-2.5
		c0,0,33.166-20.834,21.333-36.668c0,0-5.333-9.167-6.5-7.667c0,0,0.167,16.5,1.5,16.167c1.333-0.332,60-14.167,71-0.5
		c0,0,56.667,19.334,50.667,14.668c0,0-93.333-3-99.667-1l-18.333,12.148c0,0,34.333,5.482,35,0c0,0,97.667,8.482,98.667,0
		c0,0,0.333,13.337,3.333,12.428c3-0.91,28.287-2.354,45.667,8.25c0,0,6.667,18.174-2,20.174c0,0-32.666-20.668-31.333-18.334
		c0,0,13.666,22.727,8.666,22.029c0,0,15,10.637,13,10.637c0,0-16,16.801-19.333,13.233c0,0,1.666-11.899,0.333-10.233
		c0,0-18.333,21-21.333,19.334c0,0-54.333,14.32-56.667,9.994C177,276,195.334,269,195.334,269s-33-13.998-18.667-33.332
		c0,0,21.333-35.668,48.667-35.668c0,0-82.164,10-81.249,6.334c0,0,17.421,19.332,12.668,19C152,225,172.333,219,172.333,219
		s-25,26.666-24.333,28.334C148.667,249,162.333,266,160.333,266S163,286.333,163,286.333l15.333,2c0,0-97.667-8.332-94.333-17.666
		c0,0,65.667,1.334,62.667-11c0,0-87.336,46.998-85.168-32.668c0,0,8.835-15.347,12.835-13.506c0,0-19.495,56.84,11.419,50.174
		c0,0-55.096-9.455-59.419-55.334l28,9l-6.667,14.629"/>
</g>
<g id="paleta">
	<path fill="none" stroke="#040303" stroke-width="6" stroke-linecap="round" stroke-linejoin="round" stroke-miterlimit="10" d="
		M112.155,60.18c0,0,26.31-4.865,31.813,26.675c0,0,3.503,26.681-27.818,31.336c0,0-27.558,6.894-30.298-24.836
		C85.851,93.356,82.691,63.596,112.155,60.18z"/>
	<path fill="none" stroke="#040303" stroke-width="6" stroke-linecap="round" stroke-linejoin="round" stroke-miterlimit="10" d="
		M58.966,130.178c0,0,26.319-4.587,31.35,28.095c0,0,5.461,26.824-27.07,34.061c0,0-25.497,6.613-30.596-29.146
		C32.65,163.187,27.493,132.622,58.966,130.178z"/>
	<path fill="none" stroke="#040303" stroke-width="6" stroke-linecap="round" stroke-linejoin="round" stroke-miterlimit="10" d="
		M105.024,202.503c0,0,32.671-6.207,36.422,29.134c0,0,0.197,31.073-31.228,30.185c0,0-28.119-1.252-32.703-27.516
		C77.516,234.306,72.645,211.949,105.024,202.503z"/>
	<path fill="none" stroke="#040303" stroke-width="6" stroke-linecap="round" stroke-linejoin="round" stroke-miterlimit="10" d="
		M186.922,243.076c0,0-1.447-24.048,33.16-29.345c0,0,25.754-3.854,32.355,19.422c0,0,4.727,20.283-34.369,26.931
		C218.068,260.083,192.097,267.839,186.922,243.076z"/>
	<path fill="none" stroke="#040303" stroke-width="6" stroke-linecap="round" stroke-linejoin="round" stroke-miterlimit="10" d="
		M155.181,30.016c0,0,60.485-10.41,125.377,37.164c0,0,20.743,23.135,5.525,37.921c0,0-18.991,20.46-52.523,33.316
		c0,0-22.91,17.954,1.045,39.342c0,0,14.162,14.221,57.648,26.006c0,0,27.719,9.541,3.617,37.43c0,0-19.537,42.77-122.201,57.334
		c0,0-155.349,11.295-165.885-123.588C7.786,174.941,7.571,44.017,155.181,30.016z"/>
</g>
<g id="pincel">
	<path fill="none" stroke="#040303" stroke-width="6" stroke-linecap="round" stroke-linejoin="round" stroke-miterlimit="10" d="
		M342.679,98.319c0,0,12.286-10.602,8.529-21.86c0,0-2.214-15.884-10.737-22.337c0,0-9.456-9.559-16.505-45.133
		c0,0-5.766,36.67-11.746,43.003c0,0-5.959,14.328-0.159,30.733c0,0,3.992,14.055,14.92,18.471"/>
	<path fill="none" stroke="#040303" stroke-width="6" stroke-linecap="round" stroke-linejoin="round" stroke-miterlimit="10" d="
		M346.43,100.745l38.308,159.659c0,0,3.223,15.43-15.67,18.749c0,0-21.246,6.106-21.413-9.534L322.42,108.554
		c0,0-3.797-6.865,11.378-9.07C333.798,99.484,346.941,96.129,346.43,100.745z"/>
</g>
</svg>
