<?xml version="1.0" encoding="utf-8"?>
<!-- Generator: Adobe Illustrator 16.0.3, SVG Export Plug-In . SVG Version: 6.00 Build 0)  -->
<!DOCTYPE svg PUBLIC "-//W3C//DTD SVG 1.1//EN" "http://www.w3.org/Graphics/SVG/1.1/DTD/svg11.dtd">
<svg version="1.1" id="Capa_1" xmlns="http://www.w3.org/2000/svg" xmlns:xlink="http://www.w3.org/1999/xlink" x="0px" y="0px"
	 width="400px" height="400px" viewBox="0 0 400 400" enable-background="new 0 0 400 400" xml:space="preserve">
<g id="Capa_1_1_">
	<g id="Capa_4">
		<path fill="none" stroke="#E06353" stroke-width="11" stroke-linecap="round" stroke-linejoin="round" stroke-miterlimit="10" d="
			M81.112,247.682l1.674,62.432c0,0,8.199-55.605,9.021-55.118c0.822,0.485,9.033,102.226,5.695,105.839
			c-3.339,3.614,8.919-101.007,11.375-101.35c2.457-0.344,5.194,76.015,5.204,77.652c0.009,1.639,8.51-79.699,8.51-79.699"/>
		<path fill="none" stroke="#161616" stroke-width="17" stroke-linecap="round" stroke-linejoin="round" stroke-miterlimit="10" d="
			M74.641,210.708c0,0,53.533,6.379,54.477,2.933c0.944-3.447-45.001,6.286-45.732,4.875"/>
		
			<line fill="none" stroke="#43AED6" stroke-width="18" stroke-linecap="round" stroke-linejoin="round" stroke-miterlimit="10" x1="164.913" y1="158.028" x2="157.765" y2="197.003"/>
		
			<line fill="none" stroke="#43AED6" stroke-width="20" stroke-linecap="round" stroke-linejoin="round" stroke-miterlimit="10" x1="47.216" y1="152.88" x2="52.507" y2="190.207"/>
		
			<polyline fill="none" stroke="#92D7F2" stroke-width="17" stroke-linecap="round" stroke-linejoin="round" stroke-miterlimit="10" points="
			177.016,167.883 168.535,208.003 182.209,173.299 172.021,213.529 186.424,179.253 177.628,219.035 189.794,186.247 
			183.007,225.947 194.594,189.024 186.723,230.76 		"/>
		<path fill="none" stroke="#92D7F2" stroke-width="17" stroke-linecap="round" stroke-linejoin="round" stroke-miterlimit="10" d="
			M11.199,182.121l3.288,40.297c0,0,6.43-42.918,2.049-46.01c-4.38-3.091,5.635,39.083,5.635,39.083l-1.978-44.24
			c0,0,7.609,40.315,8.832,39.181c1.223-1.134-2.47-44.343-2.47-44.343l9.561,37.767l-3.932-42.015l9.803,37.064l-4.665-41.314"/>
		<path fill="none" stroke="#FFFEF4" stroke-width="17" stroke-linecap="round" stroke-linejoin="round" stroke-miterlimit="10" d="
			M89.453,103.572c0,0,13.385-9.254,19.79-6.998c6.405,2.257,11.643,4.194,9.036,5.356c-2.607,1.162-34.547,4.218-31.896,9.159
			c2.651,4.941,36.682-5.086,35.71-3.034c-0.972,2.053,16.942,6.701-35.801,13.728c0,0-2.979-6.981-0.03-5.138
			c2.95,1.843-1.081,13.338,2.678,11.432c3.759-1.906,47.534-5.438,35.378-7.17c0,0,0.027,10.161-4.723,9.532
			c0,0-28.336,1.804-25.789,2.937c0,0,22.893,5.111,21.897,2.987c0,0-12.994,6.63-12.889,3.188"/>
		<path fill="none" stroke="#161616" stroke-width="17" stroke-linecap="round" stroke-linejoin="round" stroke-miterlimit="10" d="
			M106.42,88.887c0,0-21.497-3.316-29.528,24.919c-8.03,28.235,22.042,30.659,29.399,33.169c7.356,2.509,30.197-8.481,26.838-29.266
			C129.771,96.925,119.271,86.52,106.42,88.887z"/>
		<path fill="none" stroke="#161616" stroke-width="17" stroke-linecap="round" stroke-linejoin="round" stroke-miterlimit="10" d="
			M114.123,47.743c0,0,19.901-1.791,16.446-4.23c-3.456-2.438-19.02-27.177-20.526-26.676c-1.505,0.5,10.063,24.033,8.772,24.04
			c-1.291,0.008-10.209-11.74-9.595-11.989c0.613-0.25-1.798,7.876-1.798,7.876s0.583,4.176,2.769,5.393
			c2.187,1.216,13.239-0.569,15.455,0.156"/>
		<path fill="none" stroke="#B6B5B5" stroke-width="16" stroke-linecap="round" stroke-linejoin="round" stroke-miterlimit="10" d="
			M87.397,59.99c0,0-37.978,83.105-17.96,133.981c0,0,13.071-60.776,15.377-36.656c0,0-1.712,49.873,0.223,38.39
			c0,0,10.61-41.69,11.922-41.37c0,0-0.631,46.466,2.314,45.711c0,0,9.575-44.551,11.789-44.318c0,0,1.481,43.275,3.944,44.235
			c2.463,0.962,9.06-48.538,11.278-47.543c2.218,0.994,6.9,45.217,5.183,45.718c-1.718,0.503,4.698-56.086,4.698-56.086
			l7.632,49.797c0,0,3.084-68.944,0.643-69.913c-2.441-0.969,8.516,23.223,6.566,26.185c-1.949,2.961,3.49-46.064-0.044-48.917
			c-3.534-2.853-14.581-42.45-16.875-42.108c-2.292,0.341,5.398,46.841,6.94,48.144c1.542,1.303-19.521-48.402-21.096-48.064
			c-1.575,0.34-1.102,25.166-5.059,21.132c-3.957-4.032-9.803-23.018-8.071-21.058c1.732,1.96-4.359,25.514-8.973,21.157
			c-4.614-4.358-5.253-22.019-3.505-21.227c1.748,0.792,29.772,28.818,31.416,29.463c1.642,0.646-12.89-18.279-46.055-0.059
			c0,0,21.878-71.117-9.546-3.508c-31.424,67.609,30.011,63.215,1.826,60.507"/>
	</g>
</g>
<g id="Capa_4_1_">
	<g id="Capa_2">
		<g>
			
				<polyline fill="none" stroke="#040303" stroke-width="6" stroke-linecap="round" stroke-linejoin="round" stroke-miterlimit="10" points="
				83.104,167.833 79.756,166.888 76.478,165.654 73.217,166.748 70.447,168.781 70.235,171.842 70.608,174.84 71.779,176.233 
				74.991,176.949 77.546,179.004 80.451,180.603 82.199,183.519 81.625,186.795 79.33,189.23 76.002,190.429 72.529,189.809 
				69.25,188.719 65.778,188.216 			"/>
		</g>
		<g>
			
				<polygon fill="none" stroke="#040303" stroke-width="6" stroke-linecap="round" stroke-linejoin="round" stroke-miterlimit="10" points="
				129.055,166.304 125.833,166.661 123.05,168.367 120.423,170.414 119.077,173.496 119.078,176.828 119.072,180.087 
				120.086,183.599 121.562,187.032 124.543,189.304 128.031,190.669 131.793,190.817 135.217,189.607 138.284,187.785 
				140.552,184.875 140.889,181.187 141.094,177.544 141.246,173.747 138.795,170.844 136.042,168.509 132.87,166.371 			"/>
		</g>
		<g>
			
				<polyline fill="none" stroke="#040303" stroke-width="6" stroke-linecap="round" stroke-linejoin="round" stroke-miterlimit="10" points="
				95.055,179.091 98.159,179.663 101.302,179.415 104.427,179.553 107.675,179.509 			"/>
		</g>
		<g>
			
				<polyline fill="none" stroke="#040303" stroke-width="6" stroke-linecap="round" stroke-linejoin="round" stroke-miterlimit="10" points="
				107.951,168.54 104.789,168.477 101.634,168.752 98.468,168.515 95.492,168.44 95.478,171.732 95.227,175.099 94.674,178.455 
				95.212,181.848 94.446,185.192 94.936,188.602 94.147,191.782 97.751,191.56 101.341,191.868 104.938,192.198 108.932,191.734 
							"/>
		</g>
		<g id="Capa_3">
			<g>
				<g>
					<path fill="#040303" d="M84.245,81.56c-0.538,0.058-0.944,0.257-1.267,0.698c-0.29,0.395-0.25,0.943-0.062,1.364
						c0.177,0.396,0.583,0.668,0.995,0.763c0.525,0.121,0.983-0.016,1.392-0.344c0.618-0.496,0.963-1.446,0.384-2.097
						c-0.336-0.376-1.145-0.452-1.568-0.202c-0.365,0.218-0.476,0.728-0.396,1.119c0.064,0.315,0.283,0.558,0.504,0.777
						c0.676,0.671,1.712-0.378,1.037-1.049c-0.057-0.056-0.112-0.113-0.167-0.172c0.083,0.09,0.084,0.219,0.037,0.329
						c-0.146,0.114-0.293,0.228-0.438,0.341c-0.141,0.023,0.101-0.001,0.131-0.001c0.087,0.006,0.071,0.004-0.048-0.006
						c0.15,0.029-0.148-0.083-0.03-0.015c-0.181-0.104-0.202-0.188-0.228-0.39c0.023,0.18,0.05-0.168,0,0.021
						c-0.05,0.188,0.072-0.125-0.027,0.054c-0.016,0.026-0.031,0.051-0.047,0.076c-0.087,0.136,0.109-0.13,0.004-0.005
						c-0.048,0.057-0.104,0.109-0.161,0.157c0.168-0.145-0.006-0.006-0.063,0.021c0.117-0.046,0.138-0.058,0.066-0.033
						c-0.13,0.04,0.196-0.011-0.011-0.01c-0.09-0.006-0.084-0.004,0.013,0.005c-0.042-0.007-0.209-0.073-0.029,0.005
						c-0.03-0.014-0.059-0.03-0.087-0.048c0.153,0.092,0.05,0.036,0.008-0.008c0.067,0.091,0.08,0.104,0.038,0.04
						c-0.082-0.133,0.053,0.163,0.01,0.016c-0.017-0.079-0.015-0.056,0.007,0.068c-0.006-0.06,0.023-0.193-0.013,0.026
						c0.031-0.189-0.077,0.102,0.027-0.063c-0.07,0.088-0.08,0.104-0.025,0.044c0.112-0.117-0.137,0.087,0.009,0
						c-0.097,0.037-0.106,0.042-0.028,0.013c0.034-0.013,0.214-0.039,0.042-0.019c0.4-0.044,0.736-0.31,0.733-0.742
						C84.984,81.922,84.646,81.516,84.245,81.56L84.245,81.56z"/>
				</g>
			</g>
			<g>
				<g>
					<path fill="#040303" d="M102.123,76.867c-0.884,0.05-1.219,1.002-0.811,1.712c0.194,0.337,0.589,0.564,0.979,0.538
						c0.54-0.037,0.92-0.401,1.228-0.813c0.441-0.593,0.305-1.63-0.427-1.935c-0.438-0.183-0.836-0.151-1.211,0.151
						c-0.31,0.25-0.402,0.712-0.368,1.087c0.036,0.4,0.314,0.736,0.742,0.733c0.376-0.002,0.769-0.341,0.733-0.742
						c-0.007-0.071-0.009-0.143-0.005-0.215c-0.019,0.12-0.019,0.142-0.003,0.067c0.033-0.14-0.083,0.158-0.016,0.045
						c-0.087,0.104-0.105,0.131-0.055,0.081c-0.02,0.02-0.278,0.149-0.204,0.126c-0.151,0.015-0.19,0.021-0.115,0.017
						c0.122-0.006-0.205-0.039-0.084-0.009c-0.13-0.059-0.163-0.072-0.097-0.039c0.112,0.055-0.146-0.127-0.05-0.044
						c0.131,0.114-0.083-0.15-0.002,0.008c-0.049-0.125-0.063-0.151-0.041-0.079c0.039,0.134-0.012-0.195-0.011-0.049
						c-0.006,0.078-0.002,0.053,0.01-0.074c-0.01,0.051-0.073,0.175,0.01-0.002c-0.015,0.031-0.032,0.062-0.052,0.091
						c-0.096,0.159,0.114-0.125-0.041,0.047c-0.031,0.033-0.063,0.065-0.096,0.094c0.115-0.108,0.007-0.006-0.029,0.015
						c-0.073,0.037-0.055,0.029,0.056-0.022c-0.138,0.047,0.186-0.007,0.053-0.011c0.091-0.004,0.175,0.019,0.252,0.065
						c-0.112-0.049,0.143,0.128,0.054,0.043c0.082,0.111,0.101,0.136,0.06,0.075c-0.071-0.106,0.066,0.184,0.022,0.063
						c-0.059-0.17,0.001,0.188,0.001,0.012c0.004-0.076,0-0.04-0.015,0.109c0.022-0.119-0.091,0.178-0.032,0.075
						c-0.107,0.19-0.28,0.248-0.427,0.257c0.401-0.023,0.735-0.324,0.733-0.742C102.861,77.213,102.523,76.844,102.123,76.867
						L102.123,76.867z"/>
				</g>
			</g>
			<g>
				<g>
					<path fill="#040303" d="M120.216,81.187c-0.007-0.058-0.011-0.112-0.01-0.171c-0.005,0.033-0.01,0.066-0.013,0.099
						c0.021-0.078,0.011-0.061-0.031,0.054c0.057-0.131-0.12,0.124-0.023,0.029c-0.017,0.017-0.271,0.141-0.17,0.112
						c-0.043,0.006-0.086,0.012-0.129,0.018c0.078,0.001,0.046-0.005-0.093-0.017c0.132,0.024-0.164-0.088-0.046-0.017
						c-0.031-0.022-0.063-0.044-0.093-0.067c0.051,0.054,0.036,0.037-0.042-0.054c0.082,0.125-0.051-0.165-0.011-0.006
						c-0.047-0.185-0.012-0.038-0.015,0.025c-0.008,0.193,0.041-0.15-0.011,0.033c0.045-0.158,0-0.013-0.028,0.03
						c0.088-0.142-0.003-0.011-0.037,0.021c0.124-0.115,0.004-0.015-0.037,0.006c0.179-0.093-0.107-0.014,0.112-0.033
						c-0.168,0.016,0.153,0.043-0.013-0.004c0.13,0.038,0.157,0.112,0.042-0.021c-0.262-0.305-0.777-0.262-1.043,0.006
						c-0.299,0.304-0.255,0.74,0.006,1.044c0.443,0.513,1.183,0.568,1.744,0.224c0.606-0.371,0.813-1.06,0.698-1.73
						c-0.109-0.635-0.779-0.997-1.374-0.882c-0.589,0.115-0.931,0.749-0.86,1.313c0.052,0.398,0.303,0.735,0.742,0.733
						C119.849,81.926,120.268,81.586,120.216,81.187L120.216,81.187z"/>
				</g>
			</g>
			<g>
				<g>
					<path fill="#040303" d="M136.905,92.306c0.211,0.248-0.159-0.178-0.084-0.11c-0.078-0.07-0.161-0.133-0.251-0.187
						c-0.221-0.133-0.524-0.132-0.744,0.004c-0.37,0.229-0.74,0.646-0.678,1.118c0.065,0.489,0.353,0.857,0.836,0.999
						c0.422,0.125,0.913-0.035,1.2-0.362c0.375-0.428,0.458-1.007,0.427-1.558c-0.022-0.401-0.323-0.736-0.741-0.733
						c-0.388,0.002-0.756,0.34-0.733,0.742c0.005,0.089,0.008,0.18,0.006,0.269c-0.001,0.046-0.032,0.306,0,0.087
						c-0.009,0.063-0.025,0.125-0.042,0.186c-0.025,0.075-0.016,0.055,0.03-0.06c-0.014,0.034-0.032,0.066-0.051,0.099
						c-0.063,0.108,0.135-0.148,0.014-0.022c-0.082,0.084,0.176-0.114,0.036-0.032c-0.098,0.056,0.208-0.069,0.057-0.031
						c0.157-0.018,0.198-0.023,0.124-0.018c-0.062,0.005-0.18-0.018,0.103,0.02c-0.031-0.004-0.06-0.014-0.089-0.024
						c0.236,0.083,0.142,0.063,0.079,0.021c0.118,0.096,0.151,0.121,0.101,0.074c-0.048-0.052-0.024-0.019,0.074,0.099
						c-0.088-0.115,0.061,0.202,0.023,0.063c0.017,0.162,0.023,0.206,0.019,0.132c0-0.073-0.005-0.03-0.02,0.129
						c0.022-0.147-0.082,0.161-0.031,0.062c0.049-0.094-0.144,0.159-0.024,0.032c0.125-0.13-0.14,0.086,0.032-0.021
						c-0.248,0.001-0.495,0.003-0.744,0.004c-0.141-0.169-0.178-0.208-0.112-0.116c0.046,0.063,0.095,0.125,0.146,0.186
						c0.261,0.306,0.78,0.261,1.042-0.006C137.212,93.045,137.165,92.612,136.905,92.306L136.905,92.306z"/>
				</g>
			</g>
			<g>
				<g>
					<path fill="#040303" d="M143.82,109.894c-0.754,0.024-1.357,0.499-1.192,1.303c0.1,0.487,0.621,0.934,1.089,1.043
						c0.784,0.181,1.402-0.557,1.396-1.295c-0.006-0.774-0.664-1.426-1.347-1.68c-0.377-0.14-0.808,0.159-0.905,0.52
						c-0.11,0.416,0.144,0.765,0.521,0.904c-0.084-0.038-0.085-0.037-0.008,0.004c0.177,0.094-0.087-0.089,0.073,0.048
						c0.056,0.048,0.104,0.104,0.154,0.158c-0.085-0.097,0.042,0.09,0.045,0.095c-0.073-0.133,0.012,0.141-0.008-0.042
						c0.015,0.144,0.001,0.001,0.025-0.049c0.047-0.095-0.031,0.024-0.057,0.052c0.151-0.164,0.304-0.168,0.492-0.142
						c-0.057-0.008-0.162-0.071,0.027,0.02c-0.042-0.02-0.164-0.11,0.002,0.017c-0.036-0.027-0.069-0.061-0.101-0.092
						c-0.112-0.114,0.092,0.137,0.009,0.008c-0.083-0.127,0.053,0.166,0.012,0.03c0.039,0.128,0.004,0.252-0.052,0.369
						c-0.044,0.092-0.138,0.175-0.236,0.206c0.168-0.055-0.155,0.004,0.067-0.003C144.777,111.339,144.771,109.864,143.82,109.894
						L143.82,109.894z"/>
				</g>
			</g>
			<g>
				<g>
					<path fill="#040303" d="M145.104,127.114c-0.609,0.294-1.255,0.871-1.027,1.625c0.168,0.554,0.727,0.87,1.252,1.006
						c0.494,0.128,1.146,0.141,1.525-0.263c0.588-0.624,0.074-1.398-0.444-1.851c-0.301-0.264-0.747-0.292-1.043,0.006
						c-0.269,0.273-0.296,0.779,0.006,1.042c0.088,0.078,0.172,0.157,0.251,0.242c0.042,0.043,0.147,0.188-0.009-0.019
						c0.028,0.037,0.052,0.075,0.074,0.115c0.055,0.099-0.076-0.21-0.034-0.075c0.042,0.131-0.017-0.205-0.015-0.109
						c-0.001-0.072,0.036-0.182,0.081-0.286c-0.046,0.109,0.15-0.166,0.062-0.083c0.178-0.166,0.152-0.109,0.084-0.073
						c0.227-0.121,0.165-0.066,0.092-0.044c-0.194,0.058,0.212-0.009-0.006,0c-0.082,0.003-0.355-0.029-0.043,0.011
						c-0.075-0.009-0.151-0.027-0.224-0.046c-0.068-0.017-0.133-0.04-0.196-0.064c0.277,0.107,0.024,0.007-0.045-0.034
						c-0.191-0.114,0.118,0.113-0.012-0.007c-0.047-0.045-0.122-0.15,0.049,0.071c-0.043-0.057-0.093-0.19,0.02,0.077
						c-0.026-0.063-0.034-0.192,0.006,0.108c-0.008-0.067,0.023-0.19-0.021,0.103c0.009-0.064,0.07-0.174-0.042,0.08
						c0.028-0.063,0.132-0.18-0.035,0.029c0.024-0.029,0.052-0.056,0.079-0.083c0.13-0.123-0.146,0.102,0.014-0.011
						c0.112-0.077,0.232-0.139,0.353-0.197c0.361-0.175,0.45-0.688,0.259-1.01C145.896,127.005,145.466,126.939,145.104,127.114
						L145.104,127.114z"/>
				</g>
			</g>
			<g>
				<g>
					<path fill="#040303" d="M138.354,145.61c-0.458-0.638-1.215-0.969-1.962-0.619c-0.729,0.342-0.785,1.271-0.392,1.885
						c0.423,0.664,1.239,0.807,1.914,0.462c0.326-0.166,0.518-0.471,0.649-0.795c0.145-0.359,0.026-0.767-0.128-1.098
						c-0.17-0.365-0.69-0.448-1.01-0.258c-0.371,0.219-0.428,0.646-0.26,1.01c-0.087-0.19,0.003,0.198-0.018-0.066
						c0.009,0.126,0.051-0.164-0.01,0.028c0.048-0.108,0.053-0.127,0.016-0.059c0.074-0.09,0.084-0.105,0.033-0.046
						c-0.079,0.087,0.146-0.084-0.024,0.016c-0.104,0.062,0.162-0.046-0.032,0.001c0.254-0.061-0.128-0.033,0.127,0.003
						c-0.029-0.005-0.06-0.013-0.087-0.022c0.104,0.048,0.122,0.054,0.049,0.018c-0.064-0.042-0.052-0.034,0.035,0.027
						c-0.054-0.057-0.049-0.047,0.014,0.029c-0.022-0.032-0.042-0.065-0.06-0.099c0.031,0.08,0.034,0.083,0.009,0.008
						c-0.019-0.084-0.018-0.07,0.001,0.044c0.001-0.083-0.004-0.062-0.016,0.062c0.022-0.075,0.012-0.055-0.031,0.062
						c0.04-0.066,0.025-0.046-0.044,0.054c0.054-0.051,0.036-0.037-0.057,0.042c0.067-0.036,0.045-0.029-0.065,0.023
						c0.184-0.07-0.109-0.003,0.017-0.006c0.08,0.004,0.061,0-0.059-0.011c0.032,0.006,0.063,0.014,0.093,0.024
						c-0.188-0.055-0.002,0.006,0.052,0.044c-0.189-0.127,0.089,0.146-0.025-0.013c0.234,0.326,0.642,0.478,1.01,0.259
						C138.418,146.429,138.589,145.937,138.354,145.61L138.354,145.61z"/>
				</g>
			</g>
			<g>
				<g>
					<path fill="#040303" d="M121.423,156.866c-0.651-0.612-1.653-0.693-2.213,0.081c-0.256,0.353-0.233,0.817-0.055,1.195
						c0.179,0.382,0.556,0.599,0.924,0.765c0.428,0.192,0.839,0.226,1.272,0.037c0.318-0.138,0.544-0.471,0.627-0.8
						c0.196-0.778-0.355-1.564-1.129-1.709c-0.394-0.075-0.793,0.11-0.903,0.52c-0.099,0.366,0.125,0.83,0.52,0.904
						c0.034,0.005,0.068,0.013,0.101,0.022c0.163,0.039-0.145-0.076-0.003-0.004c0.067,0.042,0.052,0.028-0.042-0.042
						c0.032,0.025,0.06,0.055,0.086,0.086c-0.072-0.099-0.089-0.116-0.048-0.053c0.074,0.123-0.061-0.171-0.017-0.038
						c0.062,0.184,0.004-0.169,0,0.021c0.023-0.138,0.026-0.168,0.012-0.091c-0.011,0.06-0.069,0.162,0.027-0.047
						c-0.01,0.021-0.021,0.039-0.034,0.058c0.025-0.031,0.048-0.064,0.073-0.097c-0.053,0.051-0.029,0.035,0.072-0.05
						c-0.019,0.014-0.04,0.025-0.061,0.036c0.036-0.018,0.072-0.034,0.109-0.05c-0.076,0.019-0.048,0.016,0.082-0.006
						c-0.055,0.006-0.19-0.02,0.02,0.013c-0.051-0.008-0.101-0.025-0.15-0.041c0.088,0.037,0.092,0.036,0.013-0.001
						c-0.063-0.032-0.129-0.057-0.192-0.09c-0.036-0.02-0.071-0.042-0.104-0.066c0.141,0.095,0.022,0.006-0.008-0.026
						c0.067,0.088,0.081,0.101,0.041,0.036c0.014,0.033,0.029,0.067,0.043,0.101c-0.02-0.078-0.019-0.05,0.006,0.083
						c0-0.078-0.006-0.049-0.019,0.088c0.02-0.134-0.086,0.166-0.025,0.043c0.04-0.062,0.024-0.041-0.05,0.063
						c0.089-0.106-0.153,0.099-0.035,0.021c0.066-0.036,0.043-0.028-0.071,0.024c0.055-0.022,0.186-0.029-0.037-0.006
						c0.029-0.001,0.059-0.001,0.088,0c-0.202-0.005-0.08-0.008-0.012,0.011c-0.178-0.052-0.035-0.01,0.014,0.019
						c0.16,0.095-0.107-0.101,0.041,0.04c0.294,0.275,0.755,0.286,1.042-0.006C121.706,157.629,121.716,157.142,121.423,156.866
						L121.423,156.866z"/>
				</g>
			</g>
			<g>
				<g>
					<path fill="#040303" d="M101.93,158.103c-0.652-0.218-1.321,0.308-1.285,0.989c0.018,0.32,0.162,0.607,0.392,0.828
						c0.157,0.151,0.334,0.237,0.532,0.317c-0.228-0.092,0.322,0.129,0.171,0.077c0.048,0.016,0.093,0.029,0.144,0.037
						c0.363,0.063,0.682-0.012,0.966-0.251c0.245-0.205,0.315-0.5,0.352-0.799c0.078-0.645-0.48-1.164-1.025-1.364
						c-0.377-0.138-0.807,0.157-0.904,0.52c-0.111,0.414,0.143,0.767,0.52,0.904c-0.087-0.041-0.096-0.042-0.025-0.005
						c0.151,0.081-0.109-0.104,0.006,0.009c-0.124-0.123-0.044-0.06-0.011,0c-0.092-0.164-0.034-0.082-0.018-0.016
						c-0.015-0.129-0.02-0.154-0.016-0.076c0.004,0.145,0.04-0.184,0.001-0.049c0.063-0.216,0.18-0.287,0.426-0.318
						c-0.077,0-0.055,0.004,0.066,0.015c-0.16-0.028,0.143,0.08-0.027-0.006c-0.059-0.025-0.119-0.05-0.177-0.073
						c0.07,0.027,0.069,0.022-0.001-0.015c0.15,0.088-0.046-0.085,0.075,0.081c-0.092-0.125,0.044,0.158,0.008,0.019
						c0.037,0.142,0.004,0.23-0.049,0.36c-0.047,0.113-0.191,0.185-0.297,0.222c-0.034,0.012-0.32-0.019-0.205,0.02
						c0.381,0.128,0.805-0.148,0.904-0.519C102.559,158.6,102.311,158.229,101.93,158.103L101.93,158.103z"/>
				</g>
			</g>
			<g>
				<g>
					<path fill="#040303" d="M83.826,150.561c-0.709,0.029-1.307,0.471-1.518,1.153c-0.233,0.761,0.337,1.462,1.052,1.646
						c0.721,0.185,1.375-0.215,1.607-0.899c0.224-0.659-0.144-1.359-0.688-1.72c-0.335-0.223-0.815-0.062-1.008,0.271
						c-0.21,0.364-0.063,0.785,0.271,1.007c-0.146-0.097-0.019-0.013,0.015,0.021c-0.16-0.162,0.058,0.148-0.035-0.072
						c0.018,0.044,0.028,0.092,0.039,0.138c-0.058-0.258-0.036,0.154,0.001-0.115c-0.007,0.051-0.062,0.192,0.022-0.006
						c-0.074,0.175,0.067-0.056-0.008,0.024c0.027-0.021,0.054-0.042,0.081-0.062c-0.067,0.038-0.049,0.032,0.056-0.018
						c-0.077,0.021-0.059,0.021,0.055,0.001c-0.036,0.002-0.072,0.002-0.106-0.001c0.228,0.01-0.083-0.048,0.069,0.017
						c-0.148-0.064-0.095-0.07-0.003,0.047c-0.101-0.129,0.038,0.149-0.006-0.002c0.012,0.119,0.017,0.137,0.014,0.054
						c-0.02,0.116-0.022,0.134-0.004,0.054c0.037-0.163-0.078,0.142,0.005-0.009c0.043-0.066,0.037-0.058-0.022,0.024
						c0.024-0.027,0.049-0.052,0.075-0.076c-0.163,0.153,0.162-0.062-0.044,0.021c0.036-0.012,0.071-0.023,0.109-0.032
						c-0.102,0.01-0.108,0.013-0.022,0.008c0.402-0.017,0.736-0.329,0.733-0.742C84.565,150.902,84.228,150.543,83.826,150.561
						L83.826,150.561z"/>
				</g>
			</g>
			<g>
				<g>
					<path fill="#040303" d="M69.451,136.165c-0.593,0.143-1.159,0.673-1.074,1.333c0.095,0.718,0.652,1.159,1.367,1.179
						c0.651,0.019,1.244-0.345,1.408-0.998c0.172-0.684-0.225-1.351-0.805-1.691c-0.822-0.482-1.556,0.797-0.737,1.279
						c0.183,0.107-0.09-0.095,0.059,0.035c0.142,0.124-0.068-0.119,0.031,0.029c0.1,0.148-0.041-0.145,0.014,0.018
						c0.055,0.165-0.005-0.165,0.002,0.001c0.008,0.166,0.04-0.166,0-0.008c0.05-0.195-0.037,0.032,0.081-0.125
						c-0.094,0.125,0.139-0.081,0.005,0.005c0.101-0.036,0.113-0.042,0.034-0.015c-0.08,0.018-0.07,0.018,0.027-0.001
						c-0.062,0.004-0.126-0.003-0.188-0.005c0.205,0.005-0.089-0.056,0.108,0.031c-0.15-0.067,0.107,0.109-0.006,0.003
						c0.064,0.092,0.076,0.107,0.033,0.043c0.042,0.111,0.05,0.13,0.026,0.056c0.003,0.037,0.007,0.075,0.012,0.113
						c0-0.08-0.006-0.057-0.019,0.069c0.022-0.148-0.084,0.147-0.008,0.013c-0.094,0.164,0.053-0.002-0.085,0.092
						c0.07-0.038,0.064-0.038-0.015,0c0.042-0.015,0.086-0.026,0.131-0.036c0.391-0.093,0.616-0.535,0.51-0.91
						C70.25,136.277,69.842,136.072,69.451,136.165L69.451,136.165z"/>
				</g>
			</g>
			<g>
				<g>
					<path fill="#040303" d="M66.339,116.818c0.039-0.372-0.024-0.803-0.317-1.067c-0.326-0.293-0.823-0.331-1.184-0.072
						c-0.682,0.491-0.82,1.459-0.201,2.069c0.633,0.624,1.817,0.576,2.209-0.292c0.163-0.361,0.215-0.776,0.073-1.154
						c-0.175-0.467-0.508-0.752-0.966-0.93c-0.375-0.146-0.808,0.164-0.903,0.521c-0.114,0.42,0.146,0.757,0.52,0.904
						c-0.097-0.043-0.11-0.046-0.041-0.011c0.144,0.077-0.119-0.109-0.003-0.004c0.053,0.057,0.043,0.041-0.031-0.05
						c0.025,0.033,0.044,0.072,0.063,0.109c-0.046-0.113-0.057-0.132-0.032-0.06c0.018,0.057,0.021,0.191,0-0.036
						c0.004,0.04,0.002,0.081-0.001,0.12c0.013-0.218,0.013-0.105-0.003-0.041c-0.025,0.072-0.015,0.05,0.031-0.069
						c-0.022,0.05-0.106,0.156,0.033-0.023c-0.112,0.145,0.137-0.066-0.023,0.022c0.119-0.046,0.143-0.059,0.069-0.035
						c0.186-0.054,0.115-0.011,0.033-0.013c0.199,0.003,0.079,0.009,0.01-0.01c0.176,0.05,0.017,0.005-0.029-0.02
						c-0.068-0.046-0.06-0.039,0.029,0.023c-0.121-0.104,0.087,0.138,0.006,0.014c-0.037-0.069-0.028-0.045,0.026,0.07
						c-0.024-0.062-0.019-0.178,0,0.052c-0.016-0.188-0.048,0.166,0.002-0.013c0.039-0.131-0.081,0.17-0.018,0.051
						c0.027-0.052,0.109-0.142-0.04,0.042c0.013-0.016,0.027-0.031,0.042-0.046c0.088-0.089-0.159,0.109-0.056,0.046
						c0.1-0.063-0.19,0.066-0.083,0.039c-0.158,0.041-0.295,0.019-0.439-0.054c-0.083-0.047-0.148-0.112-0.198-0.192
						c-0.098-0.145-0.052-0.146-0.029-0.052c-0.051-0.21-0.013-0.081-0.012-0.011c0.001,0.06-0.006,0.121-0.013,0.181
						c-0.04,0.401,0.374,0.735,0.743,0.733C66.042,117.557,66.298,117.218,66.339,116.818L66.339,116.818z"/>
				</g>
			</g>
			<g>
				<g>
					<path fill="#040303" d="M71.102,97.88c-0.456,0.299-0.794,0.859-0.754,1.417c0.06,0.848,0.869,1.227,1.64,1.067
						c0.644-0.136,1.126-0.749,1.077-1.41c-0.058-0.801-0.677-1.254-1.428-1.341c-0.401-0.046-0.735,0.376-0.733,0.742
						c0.002,0.439,0.342,0.687,0.742,0.733c-0.175-0.02,0.003,0.014,0.037,0.024c-0.092-0.041-0.104-0.042-0.033-0.005
						c-0.081-0.068-0.093-0.076-0.034-0.024c0.089,0.081-0.072-0.135,0.018,0.038c-0.043-0.108-0.054-0.124-0.03-0.05
						c-0.013-0.123-0.016-0.146-0.01-0.064c0.011,0.156,0.039-0.176,0.009-0.022c-0.023,0.115,0.09-0.146-0.013,0.024
						c0.072-0.089,0.083-0.104,0.028-0.046c0.091-0.065,0.104-0.076,0.037-0.03c-0.069,0.036-0.057,0.031,0.038-0.014
						c-0.079,0.018-0.068,0.021,0.033,0.006c-0.065,0.01-0.133,0.006-0.2,0.002c0.103,0.016,0.115,0.015,0.038-0.004
						c0.103,0.048,0.122,0.054,0.056,0.017c0.138,0.082,0.156,0.125,0.19,0.229c-0.036-0.108,0.001,0.197,0.013,0.002
						c-0.014,0.217-0.009,0.095,0.01,0.033c0.034-0.12-0.083,0.155,0.014-0.022c0.095-0.175-0.067,0.067,0.01-0.021
						c0.125-0.145-0.094,0.051-0.002-0.008c0.335-0.22,0.472-0.653,0.26-1.01C71.914,97.805,71.438,97.659,71.102,97.88
						L71.102,97.88z"/>
				</g>
			</g>
		</g>
		<g>
			
				<polygon fill="none" stroke="#040303" stroke-width="6" stroke-linecap="round" stroke-linejoin="round" stroke-miterlimit="10" points="
				107.634,15.549 105.479,18.049 103.4,20.914 100.779,23.336 98.623,26.139 96.902,29.274 94.75,32.069 92.847,35.034 
				90.624,37.809 89.682,41.143 92.039,43.91 95.082,45.948 98.604,46.856 102.116,47.64 105.781,47.803 109.011,46.574 
				106.581,44.379 103.874,41.701 100.056,39.993 101.976,36.685 101.649,34.196 103.307,31.536 105.672,29.238 103.644,26.517 
				106.179,24.282 108.61,21.732 106.906,18.794 			"/>
		</g>
		<g>
			
				<polygon fill="none" stroke="#040303" stroke-width="6" stroke-linecap="round" stroke-linejoin="round" stroke-miterlimit="10" points="
				107.415,92.398 103.821,92.664 100.219,92.934 96.794,94.08 93.508,95.523 90.355,97.258 87.289,99.281 85.439,102.468 
				83.016,105.235 82.199,108.828 80.973,112.216 80.64,115.811 80.062,119.358 80.438,122.84 81.268,126.305 83.182,129.318 
				85.466,131.999 87.254,135.063 90.149,137.095 92.727,139.536 96.152,140.552 99.223,142.307 102.604,143.312 106.132,143.012 
				109.694,142.979 112.815,141.23 115.92,139.652 119.198,138.255 121.913,135.977 124.306,133.204 126.8,130.473 128.737,127.247 
				129.15,123.498 130.097,119.866 129.848,116.131 128.742,112.562 127.8,109.014 127.063,105.349 125.051,102.203 123.33,99.092 
				120.761,96.584 117.468,95.134 114.315,93.659 110.969,92.516 			"/>
		</g>
		<g>
			
				<polygon fill="none" stroke="#040303" stroke-width="6" stroke-linecap="round" stroke-linejoin="round" stroke-miterlimit="10" points="
				107.216,85.028 103.622,84.598 100.119,85.62 96.498,85.77 93.288,87.466 90.059,88.914 86.924,90.605 84.109,92.811 
				82.118,95.796 79.598,98.361 77.685,101.417 76.385,104.781 75.729,108.322 75.144,111.838 74.06,115.3 73.681,118.875 
				73.992,122.366 74.439,125.815 75.906,128.988 77.294,132.103 78.34,135.447 80.394,138.251 83.106,140.438 85.445,142.96 
				88.083,145.211 91.297,146.542 94.193,148.496 97.526,149.468 100.89,150.264 104.515,151.127 108.237,150.892 111.981,150.886 
				115.656,150.104 119.239,148.938 122.626,147.278 125.571,144.908 128.456,142.535 130.937,140.014 133.355,137.325 
				134.658,133.946 135.881,130.586 136.881,127.124 137.509,123.534 137.09,119.912 137.216,116.234 135.957,112.775 
				135.626,109.082 134.217,105.699 132.218,102.597 130.711,99.3 129.257,95.949 126.578,93.548 124.172,90.77 120.708,89.474 
				117.482,87.972 114.33,86.186 110.875,84.984 			"/>
		</g>
		<g>
			
				<polygon fill="none" stroke="#040303" stroke-width="6" stroke-linecap="round" stroke-linejoin="round" stroke-miterlimit="10" points="
				79.223,234.174 77.833,236.464 77.883,240.027 78.068,243.573 78.157,247.105 77.883,250.641 77.675,254.178 78.345,257.704 
				78.164,261.244 77.964,264.786 78.364,268.313 77.862,271.867 78.374,275.391 78.749,278.917 78.222,282.479 78.444,286.01 
				78.911,289.529 78.999,293.064 79.368,296.589 79.071,300.143 79.781,303.65 79.617,307.203 80.159,310.719 80.324,314.253 
				80.26,317.801 80.566,321.329 80.614,324.869 80.289,328.43 80.89,331.943 81.382,335.461 81.151,339.02 81.908,342.523 
				81.44,346.098 81.942,349.605 82.289,346.025 82.598,342.438 82.835,338.842 83,335.24 83.635,331.678 83.678,328.064 
				84.447,324.518 84.496,320.9 84.589,317.284 85.416,313.751 85.228,310.1 86.255,306.593 86.851,303.035 86.904,299.404 
				87.527,295.854 87.996,292.273 88.255,288.662 88.857,285.122 90.448,283.943 90.749,287.518 91.454,291.036 91.843,294.593 
				91.681,298.188 92.491,301.721 92.684,305.291 92.773,308.865 92.33,312.464 92.409,316.038 93.285,319.579 93.22,323.16 
				92.943,326.747 93.547,330.305 93.804,333.869 93.094,337.468 93.342,341.035 93.476,344.607 94.235,348.166 93.776,351.755 
				94.306,355.318 94.095,358.898 93.978,362.48 94.689,366.041 93.979,369.634 94.117,373.207 94.265,376.782 94.283,380.359 
				94.359,383.936 94.486,387.512 94.745,391.049 95.916,387.691 96.053,384.077 96.574,380.545 97.274,377.05 98.599,373.654 
				98.69,370.052 99.071,366.498 100.184,363.059 100.523,359.497 100.876,355.939 101.141,352.375 102.128,348.906 102.703,345.38 
				102.984,341.816 103.546,338.29 103.928,334.736 104.05,331.154 104.642,327.631 104.831,324.061 105.249,320.514 
				105.647,316.965 105.659,313.374 106.94,309.919 107.285,306.361 106.822,302.7 108.22,305.039 108.368,308.648 109.633,312.15 
				109.819,315.766 109.276,319.43 109.755,323.016 110.335,326.598 110.786,330.188 110.419,333.826 110.533,337.438 
				111.459,341.01 110.706,344.662 111.299,348.251 111.736,351.848 111.638,355.469 112.021,359.07 112.21,362.68 112.193,366.298 
				112.483,369.907 112.315,373.408 113.192,370.081 113.67,366.574 113.678,363.002 114,359.475 115.12,356.061 115.686,352.566 
				115.469,348.964 116.641,345.555 116.866,342.014 117.25,338.495 117.634,334.979 118.291,331.495 118.986,328.021 
				119.438,324.51 119.663,320.971 120.209,317.473 120.922,313.994 121.051,310.441 121.438,306.925 122.303,303.463 
				122.292,299.895 122.288,296.327 123.289,292.88 123.188,289.303 124.364,285.873 124.058,282.277 124.896,278.809 
				124.918,275.252 125.055,271.708 125.676,268.213 125.963,264.686 126.31,261.165 126.726,257.646 127.138,254.128 
				127.104,250.576 127.339,247.043 127.482,243.505 127.614,239.932 126.186,237.471 125.534,240.988 124.638,244.592 
				123.604,248.16 122.741,251.766 121.403,255.256 120.6,258.872 119.848,262.508 118.478,265.953 117.199,269.398 
				115.526,272.088 115.269,268.699 115.792,265.162 115.387,261.629 115.393,258.073 114.488,254.615 113.316,251.33 
				111.257,249.479 108.913,251.999 107.016,255.116 105.844,258.555 104.888,262.046 103.627,265.441 102.909,268.989 
				102.33,272.561 101.557,276.083 100.272,279.51 99.93,283.287 99.544,279.51 99.107,275.884 99.171,272.195 98.198,268.636 
				97.387,265.063 97.55,261.333 96.164,257.866 96.013,254.165 94.625,250.754 93.211,248.143 90.32,250.958 87.769,254.177 
				85.642,257.618 85.367,253.917 84.966,250.201 83.414,246.682 82.993,242.971 82.448,239.271 81.151,235.773 			"/>
		</g>
		<g>
			
				<polyline fill="none" stroke="#040303" stroke-width="6" stroke-linecap="round" stroke-linejoin="round" stroke-miterlimit="10" points="
				135.974,218.575 132.551,218.677 129.192,219.354 125.778,219.561 122.379,219.188 			"/>
		</g>
		<g>
			
				<polyline fill="none" stroke="#040303" stroke-width="6" stroke-linecap="round" stroke-linejoin="round" stroke-miterlimit="10" points="
				67.695,207.413 71.083,208.544 74.667,208.915 78.145,209.654 81.597,210.518 85.1,211.139 88.484,212.527 92.137,212.171 
				95.662,212.648 99.151,213.596 102.711,213.898 106.303,213.443 109.856,213.811 113.414,213.42 116.988,213.775 
				120.565,213.795 124.092,213.158 127.641,212.798 131.178,212.316 134.682,211.633 138.066,210.456 			"/>
		</g>
		<g>
			
				<polyline fill="none" stroke="#040303" stroke-width="6" stroke-linecap="round" stroke-linejoin="round" stroke-miterlimit="10" points="
				67.288,202.393 68.017,205.596 68.18,208.854 68.291,212.128 69.182,215.282 70.032,218.003 73.067,219.898 76.338,221.389 
				79.706,222.801 83.413,222.693 86.92,223.533 90.504,223.896 94.075,224.439 97.696,224.212 101.283,224.91 104.894,224.246 
				108.502,224.643 112.106,224.471 115.719,224.495 119.335,224.5 122.916,223.949 126.5,223.507 130.107,223.331 133.824,223.175 
				135.19,219.967 136.841,217.001 137.825,213.775 138.522,210.482 138.729,207.105 139.316,203.814 			"/>
		</g>
		<g>
			
				<polyline fill="none" stroke="#040303" stroke-width="6" stroke-linecap="round" stroke-linejoin="round" stroke-miterlimit="10" points="
				82.929,46.419 86.321,47.304 89.716,48.097 92.968,49.405 96.402,50.031 99.857,50.481 103.192,51.754 106.706,51.802 
				110.179,52.272 113.681,51.763 117.193,52.503 120.628,51.555 124.069,51.05 127.597,50.905 130.812,49.413 134.074,48.249 
				137.408,47.223 			"/>
		</g>
		<g>
			
				<polyline fill="none" stroke="#040303" stroke-width="6" stroke-linecap="round" stroke-linejoin="round" stroke-miterlimit="10" points="
				10.847,174.335 11.75,177.927 12.173,181.586 12.457,185.265 13.623,188.816 13.575,192.545 14.78,196.089 14.504,199.858 
				15.917,203.365 15.661,207.141 16.267,210.782 17.667,214.211 			"/>
		</g>
		<g>
			
				<polyline fill="none" stroke="#040303" stroke-width="6" stroke-linecap="round" stroke-linejoin="round" stroke-miterlimit="10" points="
				192.642,177.972 193.068,181.453 193.284,184.94 192.885,188.406 192.72,191.881 192.271,195.339 192.02,198.807 
				191.356,202.236 190.97,205.688 191.132,209.207 190.763,212.675 190.062,216.091 189.4,219.52 188.479,222.898 186.625,225.88 
							"/>
		</g>
		<g>
			
				<polyline fill="none" stroke="#040303" stroke-width="6" stroke-linecap="round" stroke-linejoin="round" stroke-miterlimit="10" points="
				174.908,158.028 174.312,161.541 173.349,164.979 172.651,168.47 171.66,171.899 171.011,175.399 170.078,178.841 
				169.643,182.389 168.385,185.76 168.266,189.382 167.187,192.79 166.449,196.275 165.624,199.74 165.146,203.301 163.644,206.58 
				162.193,209.588 			"/>
		</g>
		<g>
			
				<polyline fill="none" stroke="#040303" stroke-width="6" stroke-linecap="round" stroke-linejoin="round" stroke-miterlimit="10" points="
				159.077,141.637 161.208,144.657 163.64,147.369 166.532,149.627 169.178,152.133 171.365,155.085 174.032,157.567 
				176.773,159.983 179.404,162.511 181.564,165.483 184.186,168.021 186.476,170.867 188.903,173.58 191.358,176.269 
				194.147,178.682 196.078,181.812 197.509,184.955 198.161,188.474 197.588,191.947 197.112,195.414 196.689,198.878 
				197.171,202.411 196.195,205.824 195.699,209.273 195.414,212.749 194.784,216.177 194.781,219.711 193.856,223.087 
				193.334,226.549 192.093,229.825 191.145,233.189 189.395,236.209 187.595,238.693 185.615,236.223 183.853,233.227 
				181.154,230.936 179.557,227.795 176.82,225.568 174.726,222.82 172.482,220.193 170.087,217.704 167.491,215.415 
				165.683,212.333 162.808,210.335 160.23,208.034 157.477,205.951 154.594,204.057 151.945,201.84 149.172,199.743 
				146.063,198.207 			"/>
		</g>
		<g>
			
				<polyline fill="none" stroke="#040303" stroke-width="6" stroke-linecap="round" stroke-linejoin="round" stroke-miterlimit="10" points="
				47.564,201.816 46.816,198.395 46.949,194.888 46.573,191.428 46.21,187.968 45.851,184.509 45.16,181.089 44.646,177.648 
				44.321,174.18 43.878,170.726 43.202,167.31 42.853,163.837 42.399,160.374 41.727,156.943 40.633,153.606 38.676,150.744 			"/>
		</g>
		<g>
			
				<polyline fill="none" stroke="#040303" stroke-width="6" stroke-linecap="round" stroke-linejoin="round" stroke-miterlimit="10" points="
				53.122,138.866 50.545,141.479 47.716,143.764 44.589,145.673 41.944,148.191 39.293,150.698 35.933,152.33 33.499,155.104 
				30.521,157.212 27.519,159.298 24.938,161.888 22.108,164.18 19.408,166.626 16.447,168.777 14.286,171.814 11.365,174.015 
				9.218,176.976 6.815,179.699 6.834,183.365 7.12,187.022 7.434,190.675 7.554,194.342 8.571,197.942 7.931,201.668 
				8.839,205.271 8.997,208.941 9.513,212.575 9.51,216.268 9.761,219.938 10.646,223.521 10.988,227.212 12.679,230.581 
				15.448,228.406 17.597,225.57 20.522,223.605 23.381,221.568 25.563,218.749 28.497,216.807 30.921,214.26 33.821,212.282 
				36.549,210.098 39.114,207.699 42.037,205.764 44.979,203.868 47.562,201.458 50.386,199.361 53.686,198.058 56.957,196.89 
				60.327,195.893 			"/>
		</g>
		<g>
			
				<polygon fill="none" stroke="#040303" stroke-width="6" stroke-linecap="round" stroke-linejoin="round" stroke-miterlimit="10" points="
				110.509,9.624 108.033,12.306 105.736,15.016 103.706,17.95 101.278,20.545 98.996,23.265 96.398,25.752 94.598,28.849 
				92.852,31.969 90.246,34.483 88.3,37.462 86.604,40.601 84.443,43.442 83.07,46.769 80.775,49.541 79.323,52.804 77.1,55.643 
				75.687,58.923 74.612,62.362 72.554,65.313 70.936,68.485 69.783,71.866 67.959,74.956 66.655,78.271 65.681,81.71 64.84,85.185 
				63.703,88.546 61.867,91.685 60.76,95.07 59.896,98.527 59.624,102.135 58.221,105.446 57.445,108.919 56.785,112.416 
				56.231,115.929 55.59,119.425 54.789,122.902 54.667,126.473 54.029,129.979 53.834,133.535 53.206,137.06 53.866,140.653 
				53.654,144.199 53.396,147.748 53.841,151.293 53.675,154.85 53.846,158.397 54.302,161.925 54.136,165.51 54.777,169.016 
				55.141,172.554 55.916,176.03 56.703,179.497 57.173,183.023 58.031,186.47 58.359,190.047 59.854,193.334 60.629,196.806 
				61.503,200.237 64.815,201.175 67.9,202.9 71.444,203.021 74.766,204.004 78.074,205.232 81.576,205.279 85.004,205.833 
				88.46,206.152 91.939,206.118 95.384,206.674 98.858,206.673 102.331,206.4 105.795,206.354 109.254,206.1 112.735,206.419 
				116.218,206.534 119.682,206.305 123.152,206.126 126.596,205.637 129.974,204.563 133.487,204.773 136.971,204.652 
				140.324,203.521 143.783,203.225 145.007,199.915 146.979,196.919 148.317,193.647 149.311,190.25 150.201,186.827 
				151.359,183.497 152.518,180.158 153.177,176.68 154.513,173.374 154.815,169.82 155.835,166.429 156.667,162.99 
				157.083,159.477 157.043,155.905 157.61,152.428 158.486,148.976 158.614,145.442 158.658,141.909 159.257,138.406 
				158.975,134.867 159.255,131.343 159.448,127.81 158.918,124.294 158.772,120.771 158.329,117.27 158.556,113.71 
				157.712,110.255 157.099,106.784 157.14,103.21 155.937,99.841 155.941,96.249 154.651,92.918 153.707,89.523 152.757,86.135 
				152.344,82.588 150.778,79.382 149.959,75.945 149.064,72.521 148.089,69.114 146.565,65.917 144.806,62.832 143.49,59.56 
				142.375,56.184 140.905,52.968 139.185,49.878 137.55,46.745 135.752,43.702 133.71,40.808 131.905,37.774 129.814,34.926 
				128.217,31.748 126.083,28.928 123.747,26.266 121.696,23.394 119.544,20.602 117.284,17.892 115.081,15.136 112.673,12.555 			
				"/>
		</g>
	</g>
</g>
<g id="colores-lupa">
	<path fill="none" stroke="#B6B5B5" stroke-width="24" stroke-linecap="round" stroke-linejoin="round" stroke-miterlimit="10" d="
		M308.334,183.808c0,0,14,3.784,15.333,10.988S354.666,239,319,265s-24,27.001-44.333,14.667s-48.173-8.251-37.753-68.959
		c0,0,38.086-57.041,62.753-28.708c0,0,21,56.999,16,59.333s-25,35.334-26,20.334s12.372-105.868-32.979-47.769
		c0,0-7.02,44.769,14.646,46.769s3.333-45.983,3.333-45.983l-5,25.983c0,0,38.667-1,34.667-8"/>
	<path fill="none" stroke="#868686" stroke-width="16" stroke-linecap="round" stroke-linejoin="round" stroke-miterlimit="10" d="
		M285.904,159.069c0,0,55.097-5.249,70.43,65.841c0,0-0.182,90.757-89.091,72.09c0,0-22.138-9.32-29.275-14.327
		c-1.714-1.202-2.563-2.155-2.034-2.673l-3.179,3.023l-3.642,3.463l-5.446,5.181c0,0,1.052,12.666-2.308,11.333
		c-3.36-1.333-52.81,52-52.81,52l-7.211-9.333L214.667,293l26.106-11c0,0-32.439-26.635-24.106-67.316
		C225,174.001,272.475,153.805,285.904,159.069z"/>
</g>
<g id="Lupa">
	<path fill="none" stroke="#040303" stroke-width="6" stroke-linecap="round" stroke-linejoin="round" stroke-miterlimit="10" d="
		M236.914,229.844c0-2.238-2.205-3.341,0-8.854"/>
	<path fill="none" stroke="#040303" stroke-width="6" stroke-linecap="round" stroke-linejoin="round" stroke-miterlimit="10" d="
		M240.773,210.512c0,0,4.961-28.735,52.938-31.432"/>
	<path fill="none" stroke="#040303" stroke-width="6" stroke-linecap="round" stroke-linejoin="round" stroke-miterlimit="10" d="
		M233.055,192.314c0,0-30.881,40.254,7.721,82.715c0,0,46.32,45.218,89.333,0c0,0,45.769-42.461,0-91.538
		C330.107,183.491,283.787,135.516,233.055,192.314z"/>
	<path fill="none" stroke="#040303" stroke-width="6" stroke-linecap="round" stroke-linejoin="round" stroke-miterlimit="10" d="
		M228.367,180.458c0,0-39.039,39.958-1.654,96.776l-5.212,7.192c0,0-9.926-3.309-12.407,0l-54.175,54.591c0,0-7.444,9.924,0,13.646
		l8.685,8.687c0,0,6.617,5.375,11.166,0l53.598-54.178c0,0,7.194-4.549,1.817-11.992l7.03-6.617c0,0,57.484,44.664,109.593-12.82
		c0,0,37.934-47.252-7.029-101.734C339.778,174.008,280.479,122.282,228.367,180.458z"/>
</g>
</svg>
