<?xml version="1.0" encoding="utf-8"?>
<!-- Generator: Adobe Illustrator 16.0.3, SVG Export Plug-In . SVG Version: 6.00 Build 0)  -->
<!DOCTYPE svg PUBLIC "-//W3C//DTD SVG 1.1//EN" "http://www.w3.org/Graphics/SVG/1.1/DTD/svg11.dtd">
<svg version="1.1" id="Capa_1" xmlns="http://www.w3.org/2000/svg" xmlns:xlink="http://www.w3.org/1999/xlink" x="0px" y="0px"
	 width="400px" height="400px" viewBox="0 0 400 400" enable-background="new 0 0 400 400" xml:space="preserve">
<g id="colores-wordpress">
	<path fill="none" stroke="#67C3E6" stroke-width="17" stroke-linecap="round" stroke-linejoin="round" stroke-miterlimit="10" d="
		M333.718,150.271l1.534,7.516c0,0,6.749,59.663,2.454,60.275s-11.043,50.307-20.245,49.08c0,0-27.921,44.176-32.516,40.797
		l14.109-36.195c0,0,34.354-85.583,32.822-91.105c0,0-1.33,72.393-19.837,82.515"/>
	<path fill="none" stroke="#67C3E6" stroke-width="20" stroke-linecap="round" stroke-linejoin="round" stroke-miterlimit="10" d="
		M209.203,226.021l-33.768,102.776c0,0,69.938,2.454,66.258-5.521l-29.447-82.516l-17.693,75.768l30.27-1.229l-10.428-29.898
		l-1.535-10.449l-1.84,30.84"/>
	<path fill="none" stroke="#67C3E6" stroke-width="20" stroke-linecap="round" stroke-linejoin="round" stroke-miterlimit="10" d="
		M78.196,160.7l0.767-2.914c0,0,44.018,144.325,50,146.165c5.981,1.841,6.441,9.662,6.441,9.662s-39.57-34.049-39.11-41.87
		c0.46-7.822-24.386-19.325-22.086-93.405l26.687,80.98"/>
	<path fill="none" stroke="#67C3E6" stroke-width="21" stroke-linecap="round" stroke-linejoin="round" stroke-miterlimit="10" d="
		M275.704,265.615c0,0,18.596-79.604,14.608-82.672l-22.623-52.993l-11.926,1.636l-7.955,12.531l-9.807-1.218l-3.676-0.302
		l38.652,107.057l-19.324-92.943l22.354,46.32l1.572,11.964l3.067-28.528l-20.246-41.718l4.295-20.552
		c0,0,2.146-34.663,16.563-32.515l4.908-0.096c0,0-25.769-14.935-28.528-13.401c-2.76,1.534,3.375,26.38-3.986,28.221
		c-7.361,1.841,14.416,26.074-17.484,8.282c0,0,16.871-42.024,10.123-42.024c0,0-52.147-10.43-65.031-2.147
		c0,0-55.828,20.246-71.779,39.877l-6.135,5.521l24.847-2.147c0,0,62.884-43.252,101.534-28.834l-5.215,22.7l0.307,6.749
		l-76.073,3.067l-7.669-0.613c0,0,68.098-26.994,74.232-20.246l-64.109,22.699l-1.533,15.645L136.785,138l-4.294,1.841
		l38.216,122.699l0.793,3.375v1.228l21.523-74.233l-19.99-51.649l-14.136-2.645l19.031,56.442l-6.428,26.38v4.295l-22.342-80.368"/>
	<path fill="none" stroke="#67C3E6" stroke-width="14" stroke-linecap="round" stroke-linejoin="round" stroke-miterlimit="10" d="
		M75.589,110.93c0,0,23.927-45.782,84.663-63.037c60.736-17.255,132.516-0.69,171.626,55.905
		c39.11,56.595,39.11,117.791,20.705,153.222c-18.405,35.43-8.573,35.89-51.909,69.938c0,0-27.027,18.23-31.064,16.259
		c0,0-30.063,10.166-32.209,9.377c0,0-40.956,7.675-42.848,3.507c0,0-49.657-6.781-50.099-11.351c0,0-41.656-18.406-42.331-24.33
		c0,0-28.767-24.467-36.316-45.467c0,0-16.752-27.749-19.206-73.147c0,0,2.147-36.811,7.669-46.32
		C54.27,155.485,72.981,111.773,75.589,110.93z"/>
</g>
<g id="wordpress">
	<path fill="none" stroke="#040303" stroke-width="6" stroke-linecap="round" stroke-linejoin="round" stroke-miterlimit="10" d="
		M328.72,134.098c0,0,2.819,28.192-7.05,49.901c0,0-15.787,49.056-18.042,54.976c0,0-26.22,72.455-26.22,74.991
		c0,0-4.934,11.454,3.734,3.843c0,0,26.149-15.401,44.757-45.567c0,0,16.352-30.447,16.634-38.904c0,0,5.639-28.864,3.103-34.872
		c0,0,2.536-31.945-13.814-64.366C331.82,134.098,328.931,128.53,328.72,134.098z"/>
	<path fill="none" stroke="#040303" stroke-width="6" stroke-linecap="round" stroke-linejoin="round" stroke-miterlimit="10" d="
		M206.504,214.445l-39.61,114.181c0,0-2.097,5.093,1.604,5.569c0,0,39.839,11.771,79.732-1.34c0,0,6.483-0.775,2.677-7.858
		c-3.806-7.084-37.214-106.181-40.175-110.552C210.732,214.445,209.309,206.359,206.504,214.445z"/>
	<path fill="none" stroke="#040303" stroke-width="6" stroke-linecap="round" stroke-linejoin="round" stroke-miterlimit="10" d="
		M76.959,143.119c0,0-25.091,56.667,0,109.669c0,0,9.304,39.188,65.971,71.608c0,0,4.845,2.715,1.833-2.994
		c0,0-59.205-167.006-65.125-178.283C79.637,143.119,78.8,138.934,76.959,143.119z"/>
	<path fill="none" stroke="#040303" stroke-width="6" stroke-linecap="round" stroke-linejoin="round" stroke-miterlimit="10" d="
		M88.447,121.763c0,0,41.942-60.085,116.331-64.314c0,0,55.839-1.709,95.167,37.619c0,0-17.33,3.375-21.559,15.215
		c0,0-5.071,8.454,0.429,19.872c0,0,6.768,15.221,8.459,19.028c0,0,16.917,24.103,12.688,38.058c0,0,7.189,4.827-24.104,97.862
		L223.842,136h13.532c0,0,7.896-2.787,6.908-5.605l0.142-5.395h-77.671c0,0-5.216-1.829-5.639,2.68c0,0-1.691,5.253,17.621,5.394
		c0,0,7.611,11.506,23.964,59.999c0,0-27.347,83.282-31.576,92.304L121.222,137c0,0-2.044-4.412,2.325-4.693
		c0,0,16-0.163,17.48-6.436c0,0,0.211-3.464-4.581-4.028l-46.096,0.841C90.35,122.685,88.236,122.962,88.447,121.763z"/>
	<path fill="none" stroke="#040303" stroke-width="6" stroke-linecap="round" stroke-linejoin="round" stroke-miterlimit="10" d="
		M208.193,45.572c0,0,139.556-1.741,152.666,154.754c0,0-4.229,148.035-156.047,152.265c0,0-145.051,2.487-152.664-152.265
		C52.15,200.326,52.15,57.04,208.193,45.572z"/>
	<path fill="none" stroke="#040303" stroke-width="6" stroke-linecap="round" stroke-linejoin="round" stroke-miterlimit="10" d="
		M208.193,35.846c0,0,148.072-2.164,162.211,164.48c0,0,0.604,148.881-162.211,160.722c0,0-158.583,6.767-166.193-167.464
		C42,193.584,47.92,43.459,208.193,35.846z"/>
</g>
<g id="colores-plugin">
	
		<line fill="none" stroke="#B6B5B5" stroke-width="24" stroke-linecap="round" stroke-linejoin="round" stroke-miterlimit="10" x1="94.93" y1="17.21" x2="72.479" y2="39.662"/>
	
		<line fill="none" stroke="#B6B5B5" stroke-width="24" stroke-linecap="round" stroke-linejoin="round" stroke-miterlimit="10" x1="135.233" y1="57.784" x2="111.971" y2="81.046"/>
	<path fill="none" stroke="#161616" stroke-width="24" stroke-linecap="round" stroke-linejoin="round" stroke-miterlimit="10" d="
		M40.832,43.719l68.434,70.328c0,0-52.205,17.041-68.434,9.737L23.52,135.145c0,0-7.751,0.612-7.843-1.353
		c-0.014-0.298,0.148-0.655,0.54-1.082l11.361-14.877c0,0,5.139-78.276,13.254-65.646l44.36,54.827c0,0-39.762,9.467-44.631,4.328
		c-4.869-5.139,5.139-36.246,7.033-36.246c1.894,0,14.877,24.073,14.877,24.073l-9.467,0.812"/>
</g>
<g id="plugin">
	<path fill="none" stroke="#040303" stroke-width="6" stroke-linecap="round" stroke-linejoin="round" stroke-miterlimit="10" d="
		M60.985,40.157l12.116,11.335c0,0,2.024,1.563,3.943,0c1.92-1.564,26.25-26.773,26.25-26.773s5.96-5.473-2.442-13.876
		c0,0-8.013-7.523-13.191-2.442L60.985,34.979C60.985,34.979,57.654,37.041,60.985,40.157z"/>
	<path fill="none" stroke="#040303" stroke-width="6" stroke-linecap="round" stroke-linejoin="round" stroke-miterlimit="10" d="
		M99.875,75.92l27.261-27.652c0,0,4.006-6.254,13.192,2.052c0,0,8.5,5.863,4.006,13.582l-26.872,26.871c0,0-3.224,4.983-5.472,0.684
		L100.657,79.9C100.657,79.9,98.13,77.689,99.875,75.92z"/>
	<path fill="none" stroke="#040303" stroke-width="6" stroke-linecap="round" stroke-linejoin="round" stroke-miterlimit="10" d="
		M40.671,32.401l79.441,80.991c0,0-4.393,14.608-38.394,20.608H40.662l-14.071,11.071c0,0-7.231,3.727-16.611-2.721
		c0,0-5.667-5.66-1.075-15.822l12.898-13.383l0.293-46.119C22.096,67.026,22.702,43.211,40.671,32.401z"/>
</g>
<g id="colores-theme">
	<path fill="none" stroke="#A4C637" stroke-width="17" stroke-linecap="round" stroke-linejoin="round" stroke-miterlimit="10" d="
		M382.82,293.92l-32.111,32.438l-55.715-55.989l12.076-10.154c0,0,20.584,3.568,23.055,7.41c2.47,3.842,38.972,29.916,41.991,27.444
		c3.02-2.469-21.407,17.018-21.407,17.018l-40.895-39.797l43.09,26.074l-32.111-27.995"/>
	<path fill="none" stroke="#F3AB4A" stroke-width="24" stroke-linecap="round" stroke-linejoin="round" stroke-miterlimit="10" d="
		M279.076,290.951L330.125,342l-7.685,9.605l-52.696-51.598l21.684,29.092c0,0-4.117,21.135-10.156,20.037
		c0,0-33.758,44.187-41.717,34.307c0,0-13.723-14.204,43.363-45.526l-1.098-8.269"/>
	<path fill="none" stroke="#A4C637" stroke-width="22" stroke-linecap="round" stroke-linejoin="round" stroke-miterlimit="10" d="
		M166,85.659"/>
</g>
<g id="theme">
	<path fill="none" stroke="#040303" stroke-width="6" stroke-linecap="round" stroke-linejoin="round" stroke-miterlimit="10" d="
		M300.841,256.783l-11.389,10.934c0,0-3.492,3.946,0,6.528l57.55,57.396c0,0,3.339,4.252,7.742,0l40.088-40.846
		c0,0,3.266-3.264-1.29-2.467c0,0-15.868,4.744-36.519-8.313c0,0-22.776-16.552-22.93-17.461c0,0-6.604-6.91-23.687-7.935
		C310.408,254.621,304.682,253.098,300.841,256.783z"/>
	<path fill="none" stroke="#040303" stroke-width="6" stroke-linecap="round" stroke-linejoin="round" stroke-miterlimit="10" d="
		M283.305,282.521l55.118,55.347c0,0,5.979,5.522-1.31,10.306L326.35,359.05c0,0-2.162,2.394-5.352,1.937
		c0,0-3.302,0.343-5.808-2.733l-10.592-9.793c0,0-6.946-8.161-12.642,0.19c0,0-14.918,21.332-20.157,26.002
		c0,0-12.755,14.69-20.498,16.398c0,0-8.428,5.012-18.108,0c0,0-8.996-4.781-2.732-20.271c0,0,4.154-12.928,41.832-40.047
		c0,0,6.568-3.568,1.898-14.389c0,0-9.564-10.135-9.906-9.794c0,0-8.428-4.385-0.113-11.786c0,0,10.818-12.926,11.389-12.926
		C275.561,281.838,279.316,276.088,283.305,282.521z"/>
</g>
</svg>
