<?xml version="1.0" encoding="utf-8"?>
<!-- Generator: Adobe Illustrator 16.0.3, SVG Export Plug-In . SVG Version: 6.00 Build 0)  -->
<!DOCTYPE svg PUBLIC "-//W3C//DTD SVG 1.1//EN" "http://www.w3.org/Graphics/SVG/1.1/DTD/svg11.dtd">
<svg version="1.1" id="Capa_1" xmlns="http://www.w3.org/2000/svg" xmlns:xlink="http://www.w3.org/1999/xlink" x="0px" y="0px"
	 width="400px" height="400px" viewBox="0 0 400 400" enable-background="new 0 0 400 400" xml:space="preserve">
<g id="html5-color">
	
		<polyline fill="none" stroke="#FFFFFF" stroke-width="20" stroke-linecap="round" stroke-linejoin="round" stroke-miterlimit="10" points="
		356,48 297,48 300.333,76.667 352,78.333 349.333,107.667 326.5,117.667 303,110 301,101 	"/>
	
		<polyline fill="none" stroke="#E7901C" stroke-width="10" stroke-linecap="round" stroke-linejoin="round" stroke-miterlimit="10" points="
		315.688,98.833 326.134,103.25 333.667,99 338,99 338,93 326,93 317,93 309.333,91 303,91 297,89.333 	"/>
	<path fill="none" stroke="#E7901C" stroke-width="20" stroke-linecap="round" stroke-linejoin="round" stroke-miterlimit="10" d="
		M283.498,129.013l1.585-3.517l40.916,13.758l-32.646-4.96c0,0,51.656,7.688,51.656,5.021s23.328-9.658,21.661-12.324
		s-25.336,5.782-25.336,5.782l-10.002-1.774l37.168,1.778L371,65.333V62h-58h62V25l4.333-2.333c0,0-17,13-23.333,9
		s-63.667,0-63.667,0s71.072-12,72.036-9S277.333,24.038,275,22.186s1.834,20.148,1.834,20.148l3.166,21V81l3.333,18.333
		l-1.666,13.333l3.333,5l-0.667-28.333"/>
</g>
<g id="html5">
	<g>
		<g>
			
				<polygon fill="none" stroke="#040303" stroke-width="6" stroke-linecap="round" stroke-linejoin="round" stroke-miterlimit="10" points="
				287.867,41.245 288.391,48.654 288.667,56.362 289.332,64.036 290.704,71.64 291.539,79.3 291.943,87.026 299.542,86.653 
				307.115,87.107 314.691,86.885 322.27,87.215 329.846,87.15 337.428,86.519 345.09,86.94 343.973,95.713 342.841,104.433 
				334.352,106.874 325.967,109.861 317.573,107.891 309.228,105.575 307.649,95.295 300.433,94.56 293.23,95.338 293.307,102.43 
				294.412,109.809 294.871,117.129 302.541,119.334 310.286,121.655 318.043,123.946 325.964,125.177 332.199,123.574 
				338.634,122.143 344.944,120.281 351.058,117.747 357.188,115.958 358.231,109.5 358.374,102.766 359.59,96.125 359.965,89.413 
				359.986,82.664 361.477,76.041 361.284,69.601 354.697,69.027 347.795,70 340.889,70 333.979,69.328 327.076,69.368 
				320.165,69.071 313.252,69.456 306.319,69.502 305.934,62.193 305.035,55.319 311.928,54.65 319.177,55.037 326.427,54.716 
				333.678,55.468 340.932,54.601 348.183,55.144 355.439,54.905 362.415,54.676 363.383,47.982 364.311,41.051 357.389,41.068 
				350.407,40.773 343.43,41.246 336.45,40.909 329.47,40.915 322.489,41.138 315.508,40.908 308.529,41.335 301.546,41.319 
				294.559,41.113 			"/>
		</g>
		<g>
			
				<polygon fill="none" stroke="#040303" stroke-width="6" stroke-linecap="round" stroke-linejoin="round" stroke-miterlimit="10" points="
				264.617,15.007 265.273,22.265 265.926,29.529 267.117,36.744 266.891,44.094 267.863,51.331 268.412,58.606 269.713,65.813 
				270.344,73.083 270.689,80.375 271.625,87.615 272.023,94.905 272.598,102.179 273.102,109.462 274.162,116.695 275.341,123.914 
				275.438,131.24 275.883,138.782 283.223,140.662 290.423,142.114 297.521,143.948 304.543,146.042 311.461,148.534 
				318.598,150.256 325.682,151.806 332.806,150.203 339.896,148.106 347.086,146.375 354.343,144.913 361.313,142.34 
				368.563,140.813 375.763,138.908 376.219,131.555 376.888,124.271 377.826,117.011 378.218,109.699 379.529,102.474 
				379.688,95.141 380.278,87.847 381.544,80.616 381.426,73.259 382.634,66.024 382.993,58.709 384.272,51.481 384.62,44.163 
				384.958,36.842 386.431,29.629 386.436,22.274 387.643,14.698 380.09,14.836 372.876,15.439 365.66,15.42 358.443,14.777 
				351.228,15.15 344.011,14.531 336.794,15.111 329.576,15.083 322.363,15.257 315.146,15.402 307.931,14.67 300.714,15.27 
				293.496,15.249 286.281,14.879 279.061,15.288 271.835,14.614 			"/>
		</g>
	</g>
</g>
<g id="flecha-color">
	<path fill="none" stroke="#DDF58C" stroke-width="10" stroke-linecap="round" stroke-linejoin="round" stroke-miterlimit="10" d="
		M216.334,159.833c0,0,49.832,4.333,49.666,2.333c0,0-10.333,32.667-8.833,34.5S222,168.333,223.667,167s33.667,3.667,32.167,2.333
		s-3,13.833-3.167,13.833s-13.167-9.5-13.167-9.5l-3.5,16.5c0,0-55,61.166-54.667,62.333s46.5-68,47.333-67.667
		S175,248.334,174.5,247.667s-5.167-7.5-5.167-7.5l57-57.333L164.5,234.167l58.834-55.667L158,229.334"/>
</g>
<g id="flecha_1_">
	<g>
		<g>
			
				<polyline fill="none" stroke="#040303" stroke-width="6" stroke-linecap="round" stroke-linejoin="round" stroke-miterlimit="10" points="
				151.749,225.193 157.724,221.154 164.18,217.891 169.864,213.417 176.343,210.145 182.152,205.867 188.077,201.764 
				193.917,197.527 199.334,192.741 205.218,188.547 210.609,183.747 216.084,179.042 220.771,173.814 217.398,167.531 
				212.238,162.339 207.384,156.958 202.241,152.374 209.018,152.641 216.128,153.283 223.264,153.49 230.375,154.133 
				237.508,154.351 244.628,154.846 251.775,154.741 258.921,154.642 266.052,155.187 272.8,155.421 271.777,162.217 
				269.986,169.166 268.08,176.089 266.736,183.144 265.014,190.113 263.98,197.231 262.029,204.156 260.866,211.428 
				257.086,206.035 253.236,200.792 249.124,195.753 244.02,191.548 238.411,196.372 233.18,201.508 228.063,206.754 
				223.068,212.117 217.801,217.25 212.95,222.761 208.667,228.741 204.098,234.477 199.201,239.956 194.633,245.703 
				190.515,251.79 186.289,257.797 181.631,263.49 			"/>
		</g>
	</g>
</g>
<g id="psd-color">
	
		<line fill="none" stroke="#2395C0" stroke-width="10" stroke-linecap="round" stroke-linejoin="round" stroke-miterlimit="10" x1="46" y1="310" x2="46" y2="307"/>
	<path fill="none" stroke="#2395C0" stroke-width="10" stroke-linecap="round" stroke-linejoin="round" stroke-miterlimit="10" d="
		M122,327.5c0,0,8.667-4.418,6.667-8.417s0.3,6.96,0.3,6.96l-3.483,1.313c0,0,3.056-4.069,4.475-8.563
		c0.987-3.124,1.182-6.464-0.992-8.788c-5.3-5.666-5.633-3.002-5.633-3.002L122,317.5v5.5"/>
	<path fill="none" stroke="#2395C0" stroke-width="15" stroke-linecap="round" stroke-linejoin="round" stroke-miterlimit="10" d="
		M16,250.5h133h4.5V264l-138-0.417V276.5H153l0.5,11.501L53,285.667l-36,0.334l-1.5,18.666l1.5,15.667l-1.5,15l1.833,9.333
		l1.333,9.334l10.667-4c0,0,10.292,0.332,11.625,0.666c1.334,0.334,9.541-1.666,9.541-1.666V343v-6.333V330l7.5-1.333l6.095-3.333
		l3.765-2.667l6.808,0.667l5,2.333l-13.131-11.666l-2.036-7.667V297l-3.833-5.48l11.667-3.519l4.667-6l13,1.333l11.083-1.667
		l-0.583,9.853V302l-0.833,6.936L91,307.001l-3-1.667l13.333,6.333L102,319l-0.333,9.334l-0.333,10.667l6.333,9.333l11,1
		L129,348.667l9.938-0.333l9.562-1V337l-3.167,3.001l8.167-11.667V316v-11v-5l-4.876-6.891L136.738,281.5H16.5v79H48
		c0,0,11.667,4.166,12.333,0s1.333-13.499,1.333-13.499l-2-12.667c0,0-1.333,23.334,6.667,19.667S73,347.334,73,347.334
		s21,0.667,21.333-0.333s8.083,7.666,8.083,7.666l52.083-9.333V340l-2.741,22.352c0,0-13.425,0.686-19.092,0
		c-5.667-0.685-29,2.649-29,2.649s-20-4.668-17-7.334s-13,7.334-13,7.334l-56.333,8.666l-1.833-3l138.87,5.334l-2.87-6.667V384.5H92
		H51H15"/>
	<path fill="none" stroke="#FFFFFF" stroke-width="7" stroke-linecap="round" stroke-linejoin="round" stroke-miterlimit="10" d="
		M52.25,299.938c0,0,7.313,5.156,6.438,5.781s3.156,9.078-2.219,9.578s-4.859,4.102-6.734,3.727s-7.742-0.012-7.742-0.012
		l10.504-4.256l0.877-5.363L53,304.877l-2.418-2.824l-2.706-3.553H42h-7l-5.5,0.625V339.5H38l-1.125-39.625l-5.125,0.5L32.25,336
		l1.875,0.125l-0.25-33.5"/>
	<path fill="none" stroke="#FFFFFF" stroke-width="7" stroke-linecap="round" stroke-linejoin="round" stroke-miterlimit="10" d="
		M85.625,294.188c0,0,6.563,1.22,6.688,1.97S90.75,297.5,90.75,297.5H87c0,0-7.875-2.375-8.875,0s-8.375,3.25-5.125,7.75
		s2.75-1.75,2.75-1.75S72,310.5,74,312s4.5,4.877,5.125,4.938c0.625,0.062-3-8.438-3-8.438s7.966,7.139,6.983,7.257
		s-0.859,2.095-0.859,2.095s8.376-2.477,7.001,1.148s-4.5,0.75-4.5,0.75s8.75,0.25,8.75,2.5s3.25,9.375,0,10l-2.75-8.5
		c0,0,1.75,10.375-1.875,9.25s0,2.75,0,2.75S79.5,340,73.75,337.375L72.179,335c0,0,12.446,2.625,12.571,0.625s1.5-1.375,1.5-1.375"
		/>
	<path fill="none" stroke="#FFFFFF" stroke-width="7" stroke-linecap="round" stroke-linejoin="round" stroke-miterlimit="10" d="
		M109.5,297v42.5h3.5l-0.625-42h7H126h5c0,0,8.125,1.625,9,4.5s5.5,7.5,4.625,16.25s-5.5,15.625-7.125,15.5s-1.625,4.838-8.5,4.48
		c-6.875-0.356-12.25,1.106-13.625,0l-0.625-1.605c0,0,16.25,1,17.125-1.625c0,0,9.25-7,7.875-10c0,0,3.375-9.625,1.5-11.625
		c0,0-2.375-10.75-5.25-11.375c0,0-5.763-4.375-9.131-3.5"/>
</g>
<g id="psd">
	<g>
		<g>
			
				<polygon fill="none" stroke="#040303" stroke-width="4" stroke-linecap="round" stroke-linejoin="round" stroke-miterlimit="10" points="
				117.137,302.109 116.682,309.749 117.044,317.496 117.353,325.248 116.896,333.078 122.761,333.422 128.489,332.686 
				133.512,329.336 136.021,323.656 136.915,317.503 136.024,311.445 133.826,305.898 129.467,302.479 123.252,302.311 			"/>
		</g>
		<g>
			
				<polygon fill="none" stroke="#040303" stroke-width="4" stroke-linecap="round" stroke-linejoin="round" stroke-miterlimit="10" points="
				106.221,294.111 105.806,300.955 105.731,307.8 106.269,314.646 105.907,321.486 105.944,328.336 105.576,335.188 
				106.088,341.95 113.223,342.177 120.444,342.605 127.68,342.751 134.61,340.758 140.824,337.07 145.37,331.426 147.812,324.646 
				148.718,317.537 148.757,310.434 146.291,303.773 141.766,298.492 136.489,293.816 130.755,293.141 123.845,293.464 
				116.912,293.766 109.973,293.102 			"/>
		</g>
		<g>
			
				<polygon fill="none" stroke="#040303" stroke-width="4" stroke-linecap="round" stroke-linejoin="round" stroke-miterlimit="10" points="
				96.6,293.926 94.708,302.461 86.788,300.941 79.703,305.143 81.59,309.057 87.636,312.318 93.511,315.948 97.706,321.371 
				98.735,326.723 97.296,333.471 92.946,338.803 86.532,341.053 79.762,341.674 73.462,341.072 68.167,338.496 70.333,330.057 
				79.71,331.965 87.16,328.314 81.861,320.945 75.48,317.932 70.487,312.895 68.898,305.988 70.668,298.002 77.563,293.536 
				85.466,291.1 93.227,292.453 			"/>
		</g>
		<g>
			
				<polygon fill="none" stroke="#040303" stroke-width="4" stroke-linecap="round" stroke-linejoin="round" stroke-miterlimit="10" points="
				40.643,302.016 40.653,308.957 41.058,315.713 47.598,314.706 50.513,308.954 47.329,303.636 			"/>
		</g>
		<g>
			
				<polygon fill="none" stroke="#040303" stroke-width="4" stroke-linecap="round" stroke-linejoin="round" stroke-miterlimit="10" points="
				24.738,294.739 24.551,301.854 25.307,308.708 24.801,315.564 25.34,322.416 24.607,329.273 25.405,336.137 24.693,343.379 
				33.466,342.968 42.147,343.282 41.777,336.434 41.864,329.869 42.285,323.21 49.992,323.418 57.354,321.559 62.449,315.896 
				63.803,308.518 62.048,302.465 58.356,297.193 52.213,295.121 45.42,294.723 38.617,294.85 31.805,295.198 			"/>
		</g>
		<g>
			
				<polygon fill="none" stroke="#040303" stroke-width="6" stroke-linecap="round" stroke-linejoin="round" stroke-miterlimit="10" points="
				9.042,241.042 9.08,248.188 8.82,255.375 9.271,262.563 8.699,269.75 8.856,276.939 9.224,284.127 9.288,291.316 8.968,298.508 
				9.06,305.697 9.238,312.887 8.745,320.077 8.873,327.27 9,334.456 9,341.646 8.724,348.837 9.156,356.025 8.462,363.219 
				9.269,370.407 8.825,377.602 9.036,384.801 8.926,392.07 16.188,391.602 23.375,391.557 30.562,392.473 37.75,392.486 
				44.939,392.189 52.127,392.105 59.317,392.1 66.507,392.311 73.697,392.404 80.887,391.682 88.078,392.27 95.27,392.077 
				102.457,392.027 109.646,392.355 116.836,391.789 124.027,392.413 131.219,391.614 138.407,392.381 145.602,391.786 
				152.801,392.257 159.662,391.661 159.563,384.813 159.583,377.625 160.325,370.438 159.538,363.25 160.154,356.061 
				159.696,348.873 159.699,341.684 160.072,334.492 159.841,327.303 159.697,320.113 159.858,312.923 160.368,305.73 
				159.918,298.544 160.157,291.354 160.029,284.163 159.719,276.975 160.262,269.781 160.375,262.593 160.173,255.398 
				160.152,248.199 160.121,240.879 152.812,240.876 145.625,240.535 138.438,241.459 131.25,241.302 124.061,240.863 
				116.873,241.395 109.683,241.369 102.493,241.465 95.303,241.473 88.113,241.18 80.922,241.068 73.73,240.936 66.543,241.1 
				59.354,241.137 52.164,241.048 44.973,241.322 37.781,240.665 30.593,241.1 23.399,241.247 16.199,241.081 			"/>
		</g>
	</g>
</g>
</svg>
