<?xml version="1.0" encoding="utf-8"?>
<!-- Generator: Adobe Illustrator 16.0.3, SVG Export Plug-In . SVG Version: 6.00 Build 0)  -->
<!DOCTYPE svg PUBLIC "-//W3C//DTD SVG 1.1//EN" "http://www.w3.org/Graphics/SVG/1.1/DTD/svg11.dtd">
<svg version="1.1" id="Capa_1" xmlns="http://www.w3.org/2000/svg" xmlns:xlink="http://www.w3.org/1999/xlink" x="0px" y="0px"
	 width="400px" height="400px" viewBox="0 0 400 400" enable-background="new 0 0 400 400" xml:space="preserve">
<g id="colores">
	
		<polyline fill="none" stroke="#67C3E6" stroke-width="34" stroke-linecap="round" stroke-linejoin="round" stroke-miterlimit="10" points="
		26,171 367,171 369.5,246 33,246 26,246 26,189 344.967,195 53.5,218.5 338.5,220.5 	"/>
</g>
<g id="transferencia">
	<path fill="none" stroke="#040303" stroke-width="6" stroke-linecap="round" stroke-linejoin="round" stroke-miterlimit="10" d="
		M11,165.968c0,0,7.233-9.968,19.406-9.968c12.174,0,337.674,0,337.674,0S379,151.942,384,170.466v71.979
		c0,0,1.964,22.23-16.561,19.055l-343.021,0.311c0,0-14.418-5.603-13.418-18.306V165.968z"/>
	
		<polyline fill="none" stroke="#040303" stroke-width="6" stroke-linecap="round" stroke-linejoin="round" stroke-miterlimit="10" points="
		99.563,184.58 113.678,235.391 129.203,186.344 144.022,232.92 158.137,184.58 	"/>
	
		<polyline fill="none" stroke="#040303" stroke-width="6" stroke-linecap="round" stroke-linejoin="round" stroke-miterlimit="10" points="
		176.131,184.58 189.893,235.391 204.712,184.58 221.295,232.92 235.762,184.58 	"/>
	
		<polyline fill="none" stroke="#040303" stroke-width="6" stroke-linecap="round" stroke-linejoin="round" stroke-miterlimit="10" points="
		253.051,184.58 266.813,230.45 282.689,186.344 297.157,230.45 311.271,184.58 	"/>
	<path fill="none" stroke="#040303" stroke-width="6" stroke-linecap="round" stroke-linejoin="round" stroke-miterlimit="10" d="
		M37.816,127.066c0,0,35.99-115.38,161.427-116.439c0,0,102.148-13.761,163.543,116.439l18.702-32.109"/>
	
		<line fill="none" stroke="#040303" stroke-width="6" stroke-linecap="round" stroke-linejoin="round" stroke-miterlimit="10" x1="362.786" y1="127.066" x2="327.148" y2="110.13"/>
	<path fill="none" stroke="#040303" stroke-width="6" stroke-linecap="round" stroke-linejoin="round" stroke-miterlimit="10" d="
		M357.494,287.965c0,0-26.816,92.092-151.549,100.561c0,0-100.913,14.82-159.661-100.561l-13.761,38.459"/>
	
		<line fill="none" stroke="#040303" stroke-width="6" stroke-linecap="round" stroke-linejoin="round" stroke-miterlimit="10" x1="46.284" y1="287.965" x2="78.746" y2="307.725"/>
	<path fill="none" stroke="#040303" stroke-width="6" stroke-linecap="round" stroke-linejoin="round" stroke-miterlimit="10" d="
		M109.09,97.78c0,0,8.468-15.878,17.642-19.76"/>
	<path fill="none" stroke="#040303" stroke-width="6" stroke-linecap="round" stroke-linejoin="round" stroke-miterlimit="10" d="
		M151.432,66.377c0,0,63.511-33.521,123.144,13.761"/>
	<path fill="none" stroke="#040303" stroke-width="6" stroke-linecap="round" stroke-linejoin="round" stroke-miterlimit="10" d="
		M292.924,92.84c0,0,7.057,5.646,8.114,8.821"/>
	<path fill="none" stroke="#040303" stroke-width="6" stroke-linecap="round" stroke-linejoin="round" stroke-miterlimit="10" d="
		M299.98,303.842c0,0-10.233,15.879-19.76,19.055"/>
	<path fill="none" stroke="#040303" stroke-width="6" stroke-linecap="round" stroke-linejoin="round" stroke-miterlimit="10" d="
		M261.873,331.011c0,0-61.395,40.577-129.495-8.114"/>
	<path fill="none" stroke="#040303" stroke-width="6" stroke-linecap="round" stroke-linejoin="round" stroke-miterlimit="10" d="
		M121.44,316.016c0,0-11.644-6.353-12.174-12.174"/>
</g>
</svg>
