<?xml version="1.0" encoding="utf-8"?>
<!-- Generator: Adobe Illustrator 16.0.3, SVG Export Plug-In . SVG Version: 6.00 Build 0)  -->
<!DOCTYPE svg PUBLIC "-//W3C//DTD SVG 1.1//EN" "http://www.w3.org/Graphics/SVG/1.1/DTD/svg11.dtd">
<svg version="1.1" id="Capa_1" xmlns="http://www.w3.org/2000/svg" xmlns:xlink="http://www.w3.org/1999/xlink" x="0px" y="0px"
	 width="400px" height="341px" viewBox="0 0 400 341" enable-background="new 0 0 400 341" xml:space="preserve">
<g id="ordenador-colores">
	<path fill="none" stroke="#B6B5B5" stroke-width="20" stroke-linecap="round" stroke-linejoin="round" stroke-miterlimit="10" d="
		M62.41,279.602l272.34-4.351c0,0,14.322,25.749,17.286,26.749H358c0,0-310.537-0.667-310.769,1.667l-2.898,2.334l17.91-22.949
		l18.193,8.3l243.901-2.276"/>
	<path fill="none" stroke="#868686" stroke-width="15" stroke-linecap="round" stroke-linejoin="round" stroke-miterlimit="10" d="
		M20.681,319.145c0,0,19.328,2.51,23.661,1.178c4.333-1.334,38.325-2.821,38.325-2.821H125h47.227H215l34.333-1H304h28h35
		c0,0,17.334-1.499,12.667-8.166s5.667-1.666,6,0s1.666,5.035,1.666,5.035l-12-10.035l-2.666,5l2-14l4.333,2.671
		c0,0-28.61-26.672-28.472-32.005c0.138-5.333-7.862-10-10.195-8.333s-6.999,2.666-8.666,2.833s-30,1.416-30,1.416l-35,0.584H230
		l-31.12,0.167l-36.546-0.333l-32.667,1l-35-0.334l-28.222,0.334l-17.111,2.333c0,0-4.667,8.168-5,10.584s-9,16.102-9,16.102
		L29,300.667l-4.667,7.667l-7,5.035L14,315.334l8-16.098l19-31.063l10-14.841c0,0-6.083-21.834-6.667-55.584l-5-145.083
		c0,0-8.514-29.501,22.91-25.084l45.972-3.338l59.365-2.745H199l56.667-2.833l68.671-2c0,0,18.996-4.333,17.329,18
		s3-10.672,3-10.672l-3-7.667L344,68c0,0-4.5,61.787-3,63.894S334.338,186,338.919,188S341,170.5,341,170.5l-2.081,54.5
		c0,0,6.419,14.5,0,16s5.081,2.5,5.081,2.5s-53.492,7.045-57.246,5.271c-3.754-1.772-85.494,1.272-87.874,0
		c-2.38-1.271-72.39,1.272-73.385,0c-0.995-1.271-63.246,0-63.246,0L57.5,213.5V156l-5-60V57L51,39.5h11l-4.512,10l8.957-14.835
		L130,31.5h44h32.5H231h36h20l34.813-0.329c0,0,11.256-14.171,11.256,22.329s-2.567,89.62-2.567,89.62V216c0,0,11.879,23-18.311,20
		c-30.19-3-66.689,3-66.689,3l-46.62-0.5l-60.38-1l-58.063,2H66"/>
	<path fill="none" stroke="#555555" stroke-width="13" stroke-linecap="round" stroke-linejoin="round" stroke-miterlimit="10" d="
		M17,327.637l28.667,1.682L65,328.408l21.333-0.908H108l17.495,1H148c0,0,32,0.982,33.333-0.092c1.333-1.075,40.333-0.926,41.333,0
		c1,0.925,33.667-0.741,37-0.908s36.666-1.352,37.333,0.908c0.667,2.259,30-1.366,30-1.366S357.666,325,358,326
		s14.334,0.782,15.334-0.275c1-1.057,11-1.689,11-1.689"/>
	
		<line fill="none" stroke="#FFFFFF" stroke-width="8" stroke-linecap="round" stroke-linejoin="round" stroke-miterlimit="10" x1="189.125" y1="25.875" x2="190.825" y2="28.25"/>
	<path fill="none" stroke="#67C3E6" stroke-width="24" stroke-linecap="round" stroke-linejoin="round" stroke-miterlimit="10" d="
		M75,50h220c0,0,21.808-2,17.118,14L314,49.92V93l0.143,107c0,0,8.084,23.5-8.778,19.5c0,0-93.863,4.916-97.363,0.458
		S154,218,154,218l-45.785,2.086L86.793,222H78l-1.764-91.653L72.5,60.5l20,11.5c0,0,199.477-4.5,200.988-4
		C294.999,68.5,296,202,296,202s-198.3-6-198.65-2S101,94,93.5,89.5s173.773,1.5,176.637-1c2.864-2.5,12.838,0,12.838,0
		s-12,92.5-9.486,93.5c2.513,1-157.662,0-159.075-1.5s-3.587-76,0-75.5s148.724,6,149.405,3c0.683-3-5.178,55-8.248,55
		c-3.069,0-121.222-5-123.646-1c-2.423,4-5.925-39.68-2.925-39.84c3-0.16,114.834,4.998,112.667,4.669s-3.774,19.874-3.774,19.874
		l-91.961-3.583"/>
	<path fill="none" stroke="#C8EDFB" stroke-width="20" stroke-linecap="round" stroke-linejoin="round" stroke-miterlimit="10" d="
		M81,125.238l-4.764,26.012L88.5,136.214L94,149c0,0,11.5-24,1.5-28.25s13.75,30.5,13.75,30.5s4.696-22.842,3.223-24.421
		C111,125.25,124,118.619,126.5,120.39s-8.5,31.86-5.25,32.11s21.479-12.728,15.5-16.54s20,14.79,18.25,15.04s0.25-33,5.75-32.25
		s3.25,36.669,5.5,36.959s13.65-29.301,11.95-28.88c-1.7,0.421,2.8,28.094,4.3,28.882s14.102-30.056,12.435-30.473
		S215.5,134.75,197.5,149.5s15.5-5.761,18.25-6.38s6.5-24.12,9-23.12s19.082,7.614,16.917,10.347
		C239.502,133.08,229.5,157.25,220.5,150s33.9-21.25,33.825-21.5S246,151.5,244.5,151s30.725-22.75,28.986-22.75
		c-1.737,0-9.236,23.5-8.236,23.5s24.5-25.342,23.25-24.921S279.477,158,279.477,158s14.523-7.5,17.773-6.5s20.846-5.26,18.829-8.38
		s-0.95-17.461-3.89-16.291c-2.94,1.17-14.939,10.705-14.939,10.705"/>
</g>
<g id="ordenador">
	<path fill="none" stroke="#040303" stroke-width="5" stroke-linecap="round" stroke-linejoin="round" stroke-miterlimit="10" d="
		M300.916,131.562c0,0-0.796,14.699-2.262,14.74c-1.465,0.042,11.266-16.499,12.104-14.154c0.837,2.346,3.519,0.754-1.717,14.489"/>
	<path fill="none" stroke="#040303" stroke-width="5" stroke-linecap="round" stroke-linejoin="round" stroke-miterlimit="10" d="
		M293.398,137.612c0,0-0.25-9.107-6.092-4.585c-5.843,4.522-7.162,13.128-3.58,13.065
		C287.307,146.03,292.52,142.952,293.398,137.612c0.881-5.339-4.836,27.953-13.379,15.139"/>
	<path fill="none" stroke="#040303" stroke-width="5" stroke-linecap="round" stroke-linejoin="round" stroke-miterlimit="10" d="
		M278.136,124.819c0,0,1.089,1.927,1.341,2.01"/>
	
		<line fill="none" stroke="#040303" stroke-width="5" stroke-linecap="round" stroke-linejoin="round" stroke-miterlimit="10" x1="276.838" y1="131.537" x2="273.486" y2="146.377"/>
	<path fill="none" stroke="#040303" stroke-width="5" stroke-linecap="round" stroke-linejoin="round" stroke-miterlimit="10" d="
		M270.137,133.865c0,0-1.267-2.534-2.617-2.314c-1.35,0.22-7.475,2.575-6.344,4.963c1.131,2.387,8.605,6.093,6.375,7.914
		c-2.229,1.822-5.057,4.178-10.051-0.282"/>
	<path fill="none" stroke="#040303" stroke-width="5" stroke-linecap="round" stroke-linejoin="round" stroke-miterlimit="10" d="
		M243.294,138.304c0,0,11.558,2.144,11.013-2.09c-0.543-4.233-6.195-7.877-11.516,1.923c-5.318,9.799,9.967,9.045,9.926,6.867"/>
	<path fill="none" stroke="#040303" stroke-width="5" stroke-linecap="round" stroke-linejoin="round" stroke-miterlimit="10" d="
		M237.6,136.503c0,0-0.461-11.433-13.945-12.312"/>
	<path fill="none" stroke="#040303" stroke-width="5" stroke-linecap="round" stroke-linejoin="round" stroke-miterlimit="10" d="
		M225.957,125.238c0,0-2.764,20.436-3.686,20.185s0,0,0,0s7.916,2.136,15.621-9.59"/>
	<path fill="none" stroke="#040303" stroke-width="5" stroke-linecap="round" stroke-linejoin="round" stroke-miterlimit="10" d="
		M190.362,139.309c0,0,7.036-9.674,9.338-7.789c2.304,1.885,4.271,13.987-11.097,14.699"/>
	<path fill="none" stroke="#040303" stroke-width="5" stroke-linecap="round" stroke-linejoin="round" stroke-miterlimit="10" d="
		M191.074,131.353c0,0-2.953,22.592-4.397,23.534"/>
	<path fill="none" stroke="#040303" stroke-width="5" stroke-linecap="round" stroke-linejoin="round" stroke-miterlimit="10" d="
		M173.485,138.492c0,0,6.973-8.417,9.359-6.973c2.387,1.444,4.397,14.699-10.93,14.008"/>
	
		<line fill="none" stroke="#040303" stroke-width="5" stroke-linecap="round" stroke-linejoin="round" stroke-miterlimit="10" x1="169.884" y1="155.515" x2="174.49" y2="131.52"/>
	
		<line fill="none" stroke="#040303" stroke-width="5" stroke-linecap="round" stroke-linejoin="round" stroke-miterlimit="10" x1="150.935" y1="139.56" x2="167.581" y2="135.508"/>
	<path fill="none" stroke="#040303" stroke-width="5" stroke-linecap="round" stroke-linejoin="round" stroke-miterlimit="10" d="
		M151.312,146.093c0,0,8.794-21.985,9.674-21.734c0.879,0.252,4.271,18.782,3.455,22.3"/>
	<path fill="none" stroke="#040303" stroke-width="5" stroke-linecap="round" stroke-linejoin="round" stroke-miterlimit="10" d="
		M122.542,122.16c0,0-0.628,18.845-4.397,23.241c-3.769,4.397,8.794-18.719,12.626-13.254s-2.37,20.438-11.518,11.381"/>
	<path fill="none" stroke="#040303" stroke-width="5" stroke-linecap="round" stroke-linejoin="round" stroke-miterlimit="10" d="
		M103.007,138.178c0,0,9.673,2.919,11.244-1.964c1.571-4.883-8.731-7.396-11.621,1.775c-2.89,9.171,5.151,9.988,9.673,6.847"/>
	<path fill="none" stroke="#040303" stroke-width="5" stroke-linecap="round" stroke-linejoin="round" stroke-miterlimit="10" d="
		M90.569,124.233c13.694,8.04,2.89,20.603,0,22.028c-2.89,1.425-3.769-10.722-4.271-10.764c-0.502-0.041-4.899,6.072-7.287,9.339
		c-2.387,3.267-3.266-0.126-2.512-0.001c0.753,0.126,2.01-20.101,2.01-20.101"/>
	<path fill="none" stroke="#040303" stroke-width="5" stroke-linecap="round" stroke-linejoin="round" stroke-miterlimit="10" d="
		M75.401,271.121c0,0-15.734,41.305-17.913,40.447"/>
	<path fill="none" stroke="#040303" stroke-width="5" stroke-linecap="round" stroke-linejoin="round" stroke-miterlimit="10" d="
		M98.023,271.159c0,0-15.24,40.684-17.586,39.782"/>
	<path fill="none" stroke="#040303" stroke-width="5" stroke-linecap="round" stroke-linejoin="round" stroke-miterlimit="10" d="
		M125.495,271.072c0,0-11.73,41.119-13.403,39.625"/>
	<path fill="none" stroke="#040303" stroke-width="5" stroke-linecap="round" stroke-linejoin="round" stroke-miterlimit="10" d="
		M151.123,270.992c0,0-9.549,40.837-10.386,40.109"/>
	<path fill="none" stroke="#040303" stroke-width="5" stroke-linecap="round" stroke-linejoin="round" stroke-miterlimit="10" d="
		M252.969,269.23c0,0,3.176,41.155,2.51,41.16"/>
	<path fill="none" stroke="#040303" stroke-width="5" stroke-linecap="round" stroke-linejoin="round" stroke-miterlimit="10" d="
		M275.59,268.721c0,0,7.867,41.861,7.361,41.67"/>
	<path fill="none" stroke="#040303" stroke-width="5" stroke-linecap="round" stroke-linejoin="round" stroke-miterlimit="10" d="
		M299.71,268.175c0,0,15.237,41.794,14.399,41.8"/>
	<path fill="none" stroke="#040303" stroke-width="5" stroke-linecap="round" stroke-linejoin="round" stroke-miterlimit="10" d="
		M321.813,266.418c0,0,17.759,43.376,17.089,43.381"/>
	<path fill="none" stroke="#040303" stroke-width="5" stroke-linecap="round" stroke-linejoin="round" stroke-miterlimit="10" d="
		M39.314,299.236c6.534-0.055,319.167-2.697,321.007-6.48"/>
	<path fill="none" stroke="#040303" stroke-width="5" stroke-linecap="round" stroke-linejoin="round" stroke-miterlimit="10" d="
		M47.231,286.668c0,0,304.688-5.333,303.292-7.232"/>
	<path fill="none" stroke="#040303" stroke-width="5" stroke-linecap="round" stroke-linejoin="round" stroke-miterlimit="10" d="
		M173.577,297.779"/>
	<path fill="none" stroke="#040303" stroke-width="5" stroke-linecap="round" stroke-linejoin="round" stroke-miterlimit="10" d="
		M176.587,271.195c0,0-2.186,27.424-4.361,26.602"/>
	
		<line fill="none" stroke="#040303" stroke-width="5" stroke-linecap="round" stroke-linejoin="round" stroke-miterlimit="10" x1="199.817" y1="270.703" x2="200.27" y2="297.413"/>
	<path fill="none" stroke="#040303" stroke-width="5" stroke-linecap="round" stroke-linejoin="round" stroke-miterlimit="10" d="
		M227.51,269.938c0,0,1.342,27.742,0.67,27.056"/>
	<path fill="none" stroke="#040303" stroke-width="5" stroke-linecap="round" stroke-linejoin="round" stroke-miterlimit="10" d="
		M190.822,24.043c0,0,4.083-0.754,4.083,3.706c0,0,0.502,4.083-4.083,3.329c0,0-4.334,0.799-4.083-3.495
		C186.739,27.583,186.362,23.54,190.822,24.043z"/>
	<path fill="none" stroke="#040303" stroke-width="5" stroke-linecap="round" stroke-linejoin="round" stroke-miterlimit="10" d="
		M53.006,277.502L35.041,306.02c0,0-5.025,9.912,2.889,6.715l24.121-1.438l39.071-0.754l44.473,0.628l206.44-1.466
		c0,0,24.217,3.979,10.648-13.734l-19.096-25.965c0,0-3.351-5.023-9.548-3.182l-30.151,1.256l-61.057,1.382
		c0,0-41.385,1.351-66.246,1.733c-10.701,0.166-18.341,0.15-18.303-0.228l-79.649,0.253l-12.312-0.378
		C66.323,270.844,54.891,270.341,53.006,277.502z"/>
	<path fill="none" stroke="#040303" stroke-width="5" stroke-linecap="round" stroke-linejoin="round" stroke-miterlimit="10" d="
		M11.212,322.527c0,0-2.302,10.295,9.423,10.629l21.441,2.178c0,0,66.5-1.005,69.18,0l89.013-1.34l59.733-0.838
		c0,0,119.097-1.342,118.763-3.184c0,0,15.871,1.703,14.972-17.238"/>
	<path fill="none" stroke="#040303" stroke-width="5" stroke-linecap="round" stroke-linejoin="round" stroke-miterlimit="10" d="
		M346.105,248.771l44.469,53.729c0,0,9.548,15.83-4.522,17.589c-14.07,1.76-35.931,1.508-35.931,1.508l-33.92,1.256
		c0,0-49.247-3.518-54.271-2.262c-5.025,1.258-45.729,2.262-45.729,2.262s-107.037,0.252-106.032-2.262l-4.271,0.188
		c0,0-86.936,5.341-88.779,3.33c0,0-16.583-0.67-7.706-16.918l34.055-53.219"/>
	<path fill="none" stroke="#040303" stroke-width="5" stroke-linecap="round" stroke-linejoin="round" stroke-miterlimit="10" d="
		M90.318,40.187c0,0,177.39-2.513,224.627,0l4.271-0.559c0,0,6.029-2.08,4.899,4.955l0.142,173.496c0,0,1.617,13.19-9.688,10.302
		c0,0-86.058,5.527-87.816,4.773c0,0-100.755-4.271-95.227-1.76c0,0-56.157,1.397-55.905,1.83c0,0-8.501,1.771-7.413-7.608
		c0,0-7.873-172.196-5.527-172.196l0.314-4.125c0,0,2.136-10.239,16.583-8.669L90.318,40.187z"/>
	<path fill="none" stroke="#040303" stroke-width="5" stroke-linecap="round" stroke-linejoin="round" stroke-miterlimit="10" d="
		M52.629,17.272l278.396-8.016c0,0,23.115-3.505,20.854,19.108l-4.233,181.21c0,0,1.993,32.412,4.389,38.443
		c0,0-77.963,11.658-79.637,9.648L166.869,259.5H52.629c0,0-12.73-0.107-13.4-12.838L31.021,45.517
		C31.021,45.517,28.508,20.741,52.629,17.272z"/>
</g>
</svg>
