<?xml version="1.0" encoding="utf-8"?>
<!-- Generator: Adobe Illustrator 19.0.0, SVG Export Plug-In . SVG Version: 6.00 Build 0)  -->
<svg version="1.1" id="Capa_1" xmlns="http://www.w3.org/2000/svg" xmlns:xlink="http://www.w3.org/1999/xlink" x="0px" y="0px"
	 viewBox="0 0 180.1 32.1" style="enable-background:new 0 0 180.1 32.1;" xml:space="preserve">
<style type="text/css">
	.ornament{fill:#FFFFFF;}
</style>
<g id="XMLID_106_">
	<g id="XMLID_146_">
		<g id="XMLID_154_">
			<g id="XMLID_153_">
				<path id="XMLID_158_" class="ornament" d="M172.6,20.3c3.7,0.5,6.8-2.8,6.4-6.4c-0.4-3.8-3.7-6.5-7.1-7.7c-4.6-1.5-10.1-0.7-14.8,0.2
					c-4.9,1-9.6,2.6-14.2,4.5c-9.9,4-19.3,9.3-29.5,12.5c-4.9,1.5-12.1,4.2-16.7,0.9c-3.3-2.4-4.6-6.5-3.7-10.4
					c1.2-4.8,5.6-9.1,10.2-10.7c3.3-1.2,9.1-1,10,3.3c0.3,1.6-0.3,3.5-1.8,4.3c-1.6,0.8-3.9,0.3-3.6-1.9c0.1-0.7-1.5-1.5-1.6-0.7
					c-0.5,3.3,3,5.4,6,4.2c4.2-1.6,3.2-7.3,0.2-9.6c-7.9-6.2-20,3-21.3,11.4c-0.6,3.6,0.7,7.3,3.3,9.9c3.8,3.8,8.6,3.6,13.6,2.5
					c12.1-2.6,22.9-8.8,34.2-13.6c6.5-2.8,13.3-5.1,20.4-5.9c4-0.5,8.9-0.7,12.2,1.9c1.9,1.5,3.3,4,2.7,6.5
					c-0.6,2.3-2.7,4.1-5.1,3.9C171.8,19.4,172.2,20.3,172.6,20.3L172.6,20.3z"/>
			</g>
		</g>
		<g id="XMLID_147_">
			<g id="XMLID_137_">
				<path id="XMLID_151_" class="ornament" d="M98.8,26.9c10.3,6.4,24.2,4.1,35,0.2c7.1-2.6,13.8-6.3,20.3-10.1c3.3-1.9,6.6-3.9,10-5.7
					c3.2-1.7,6.5-3,10.1-2.5c0.8,0.1,0.3-0.9-0.2-1.1c-5.3-2.2-12,2.7-16.4,5.3c-6.5,3.8-13,7.7-19.9,10.8
					c-11.5,5.2-27,8.9-38.7,2.5C98.4,25.8,98.3,26.6,98.8,26.9L98.8,26.9z"/>
			</g>
		</g>
	</g>
	<g id="XMLID_107_">
		<g id="XMLID_139_">
			<g id="XMLID_130_">
				<path id="XMLID_135_" class="ornament" d="M7.1,19.5c-5.9,0.4-5.7-6.6-2.6-9.6C7.3,7.2,11.3,6.8,15,7c6.3,0.3,12.4,2,18.3,4.2
					C45,15.6,55.9,22.1,67.9,25.6c4.8,1.4,11.2,3.4,15.7,0.3c3-2,5-5.4,5.1-9C89,8.3,79.1-0.5,70.6,1.2c-4.5,0.9-8.1,6.3-4.2,10.1
					c2.5,2.5,7.9,1.7,7.2-2.6C73.5,8,71.9,7.5,72,8.4c0.5,3.7-5.2,3.5-5.5-0.2C66.2,5,69.3,3,72.1,2.7c5.5-0.7,11.4,3.6,13.8,8.4
					c1.8,3.5,1.7,7.7-0.8,10.9c-3.8,4.9-9.5,4-14.8,2.7c-10.4-2.6-19.9-7.7-29.6-12c-9-3.9-19-7.9-29-7.2C7,5.8,1.9,8,0.9,13
					c-0.7,3.9,2.6,7.9,6.6,7.4C8.1,20.2,7.5,19.4,7.1,19.5L7.1,19.5z"/>
			</g>
		</g>
		<g id="XMLID_108_">
			<g id="XMLID_123_">
				<path id="XMLID_128_" class="ornament" d="M80.6,26.1c-12,6.4-27.5,2.7-39.3-2.6c-6.9-3.1-13.3-7.1-19.8-10.8
					c-4.2-2.4-11-7.4-16.1-5.1C4.7,7.9,5.7,8.8,6.1,8.7c3.9-0.5,7.3,1,10.6,2.8c3.3,1.8,6.6,3.7,9.8,5.6c6.4,3.7,12.8,7.3,19.8,9.8
					C57,30.9,71,33.4,81.2,26.9C81.7,26.6,81,25.9,80.6,26.1L80.6,26.1z"/>
			</g>
		</g>
	</g>
</g>
</svg>
