<?xml version="1.0" encoding="utf-8"?>
<!-- Generator: Adobe Illustrator 16.0.3, SVG Export Plug-In . SVG Version: 6.00 Build 0)  -->
<!DOCTYPE svg PUBLIC "-//W3C//DTD SVG 1.1//EN" "http://www.w3.org/Graphics/SVG/1.1/DTD/svg11.dtd">
<svg version="1.1" xmlns="http://www.w3.org/2000/svg" xmlns:xlink="http://www.w3.org/1999/xlink" x="0px" y="0px"
	 width="420.054px" height="800px" viewBox="0 0 420.054 800" enable-background="new 0 0 420.054 800" xml:space="preserve">
<g id="Capa_4">
	<path fill="none" stroke="#E06353" stroke-width="20" stroke-linecap="round" stroke-linejoin="round" stroke-miterlimit="10" d="
		M165,496.667l2.667,127c0,0,17.333-113,19-112S203.832,719.688,197,727s19.334-205.333,24.334-206S231,675.667,231,679
		s18.25-162,18.25-162"/>
	<path fill="none" stroke="#161616" stroke-width="33" stroke-linecap="round" stroke-linejoin="round" stroke-miterlimit="10" d="
		M152.275,421.394c0,0,108.805,13.606,110.765,6.606s-91.602,12.254-93.071,9.377"/>
	
		<line fill="none" stroke="#43AED6" stroke-width="33" stroke-linecap="round" stroke-linejoin="round" stroke-miterlimit="10" x1="336.5" y1="315.314" x2="321.5" y2="394.5"/>
	
		<line fill="none" stroke="#43AED6" stroke-width="33" stroke-linecap="round" stroke-linejoin="round" stroke-miterlimit="10" x1="97.178" y1="303.452" x2="107.5" y2="379.435"/>
	
		<polyline fill="none" stroke="#92D7F2" stroke-width="17" stroke-linecap="round" stroke-linejoin="round" stroke-miterlimit="10" points="
		361,335.5 343.275,417 371.5,346.578 350.301,428.284 380,358.738 361.638,439.545 386.77,373 372.5,453.667 396.5,378.708 
		380,463.5 	"/>
	<path fill="none" stroke="#92D7F2" stroke-width="17" stroke-linecap="round" stroke-linejoin="round" stroke-miterlimit="10" d="
		M23.58,362.5l6.21,82c0,0,13.583-87.215,4.71-93.554s11,79.554,11,79.554l-3.5-90c0,0,15,82.086,17.5,79.793S55,330.074,55,330.074
		L74,407l-7.5-85.5L86,397l-9-84.083"/>
	<path fill="none" stroke="#FFFEF4" stroke-width="17" stroke-linecap="round" stroke-linejoin="round" stroke-miterlimit="10" d="
		M183.667,203.667c0,0,27.333-18.667,40.333-14s23.628,8.667,18.314,11s-70.313,8.17-64.98,18.251S252,209.007,250,213.17
		s34.379,13.83-72.977,27.497c0,0-5.977-14.233,0-10.45s-2.356,27.116,5.311,23.283s96.742-10.5,72.038-14.167
		c0,0-0.063,20.667-9.717,19.333c0,0-57.654,3.333-52.487,5.667c0,0,46.5,10.667,44.5,6.333c0,0-26.506,13.333-26.253,6.333"/>
	<path fill="none" stroke="#161616" stroke-width="17" stroke-linecap="round" stroke-linejoin="round" stroke-miterlimit="10" d="
		M218.35,174c0,0-43.683-7-60.35,50.333s44.47,62.618,59.402,67.809s61.519-16.893,54.932-59.206S244.515,169.336,218.35,174z"/>
	<path fill="none" stroke="#161616" stroke-width="17" stroke-linecap="round" stroke-linejoin="round" stroke-miterlimit="10" d="
		M234.5,90.408c0,0,40.5-3.408,33.5-8.408s-38.363-55.5-41.432-54.5s20.182,49,17.557,49S223.5,52.5,224.75,52S221,68,221,68
		s1.137,8.5,5.568,11S253.5,78,258,79.5"/>
	<path fill="none" stroke="#B6B5B5" stroke-width="34" stroke-linecap="round" stroke-linejoin="round" stroke-miterlimit="10" d="
		M180,115c0,0-78.223,168.578-38.111,272.289c0,0,27.302-123.456,31.707-74.373c0,0-4.071,101.417,0,78.083
		c0,0,22.072-84.667,24.738-84c0,0-1.833,94.5,4.167,93c0,0,20-90.5,24.5-90c0,0,2.5,88.035,7.5,90.018s19-98.614,23.5-96.566
		s13.5,92.048,10,93.048s10.22-114.018,10.22-114.018l14.933,101.37c0,0,7.089-140.186,2.135-142.186S312.333,289,308.333,295
		s7.644-93.647,0.489-99.49S279.667,109,275,109.667s10.424,95.333,13.545,98s-39.131-98.675-42.338-98.004
		s-2.54,51.169-10.54,42.92S216,105.652,219.5,109.659s-9.167,51.839-18.5,42.923s-10.425-44.844-6.879-43.213
		s60.213,58.964,63.546,60.297s-26-37.333-93.667-0.667c0,0,45.336-144.384-19.375-7.246s60.292,128.926,3,123.086"/>
</g>
<g id="Capa_2">
	<g>
		
			<polyline fill="none" stroke="#040303" stroke-width="10" stroke-linecap="round" stroke-linejoin="round" stroke-miterlimit="10" points="
			169.995,334.291 163.197,332.329 156.544,329.78 149.9,331.966 144.241,336.069 143.773,342.293 144.496,348.396 146.862,351.241 
			153.387,352.735 158.56,356.947 164.448,360.231 167.968,366.182 166.763,372.84 162.065,377.765 155.282,380.164 
			148.227,378.863 141.571,376.604 134.514,375.542 		"/>
	</g>
	<g>
		
			<polygon fill="none" stroke="#040303" stroke-width="10" stroke-linecap="round" stroke-linejoin="round" stroke-miterlimit="10" points="
			263.473,331.723 256.913,332.41 251.234,335.848 245.867,339.98 243.092,346.233 243.054,353.01 243.004,359.638 245.025,366.794 
			247.986,373.793 254.024,378.449 261.101,381.266 268.752,381.611 275.73,379.192 281.989,375.521 286.634,369.63 
			287.365,362.134 287.823,354.726 288.177,347.004 283.229,341.072 277.657,336.291 271.231,331.904 		"/>
	</g>
	<g>
		
			<polyline fill="none" stroke="#040303" stroke-width="10" stroke-linecap="round" stroke-linejoin="round" stroke-miterlimit="10" points="
			194.168,357.33 200.474,358.528 206.87,358.061 213.224,358.38 219.831,358.329 		"/>
	</g>
	<g>
		
			<polyline fill="none" stroke="#040303" stroke-width="10" stroke-linecap="round" stroke-linejoin="round" stroke-miterlimit="10" points="
			220.521,336.021 214.089,335.856 207.671,336.377 201.234,335.859 195.183,335.672 195.116,342.367 194.564,349.212 
			193.401,356.029 194.456,362.94 192.858,369.732 193.813,376.67 192.173,383.131 199.505,382.721 206.803,383.391 
			214.114,384.105 222.242,383.205 		"/>
	</g>
	<g id="Capa_3">
		<g>
			<g>
				<path fill="#040303" d="M173.333,158.833c-1.094,0.114-1.923,0.514-2.585,1.407c-0.593,0.8-0.518,1.915-0.14,2.774
					c0.354,0.805,1.177,1.365,2.013,1.563c1.067,0.252,2-0.02,2.837-0.683c1.262-1,1.975-2.93,0.804-4.26
					c-0.68-0.772-2.323-0.934-3.187-0.429c-0.746,0.437-0.975,1.475-0.819,2.269c0.126,0.642,0.568,1.138,1.016,1.587
					c1.366,1.373,3.487-0.749,2.121-2.121c-0.115-0.115-0.227-0.231-0.336-0.352c0.167,0.185,0.168,0.446,0.071,0.669
					c-0.299,0.23-0.598,0.46-0.896,0.689c-0.285,0.045,0.205-0.001,0.266,0c0.177,0.013,0.144,0.008-0.098-0.015
					c0.305,0.061-0.3-0.169-0.062-0.029c-0.365-0.215-0.408-0.386-0.458-0.796c0.045,0.366,0.103-0.343-0.001,0.041
					c-0.104,0.383,0.148-0.255-0.056,0.109c-0.03,0.052-0.063,0.104-0.096,0.153c-0.179,0.275,0.223-0.263,0.009-0.011
					c-0.099,0.117-0.211,0.22-0.328,0.319c0.343-0.292-0.014-0.013-0.129,0.044c0.237-0.094,0.282-0.117,0.136-0.069
					c-0.266,0.081,0.398-0.017-0.022-0.019c-0.182-0.013-0.172-0.01,0.027,0.011c-0.087-0.015-0.424-0.151-0.061,0.011
					c-0.061-0.029-0.12-0.063-0.176-0.101c0.31,0.19,0.102,0.076,0.017-0.016c0.136,0.186,0.162,0.213,0.077,0.081
					c-0.165-0.27,0.107,0.332,0.02,0.032c-0.033-0.16-0.029-0.113,0.014,0.14c-0.011-0.121,0.049-0.392-0.028,0.052
					c0.067-0.385-0.157,0.206,0.058-0.129c-0.145,0.178-0.163,0.209-0.053,0.091c0.229-0.235-0.279,0.175,0.018,0.001
					c-0.198,0.073-0.217,0.082-0.056,0.024c0.069-0.024,0.436-0.074,0.085-0.038c0.813-0.084,1.5-0.619,1.5-1.5
					C174.833,159.58,174.148,158.749,173.333,158.833L173.333,158.833z"/>
			</g>
		</g>
		<g>
			<g>
				<path fill="#040303" d="M209.75,149.5c-1.798,0.091-2.491,2.023-1.67,3.472c0.39,0.688,1.192,1.156,1.987,1.106
					c1.096-0.069,1.876-0.804,2.505-1.638c0.905-1.202,0.64-3.312-0.846-3.942c-0.887-0.376-1.698-0.317-2.465,0.295
					c-0.632,0.503-0.826,1.444-0.761,2.207c0.069,0.814,0.63,1.5,1.5,1.5c0.766,0,1.569-0.684,1.5-1.5
					c-0.012-0.147-0.017-0.291-0.008-0.439c-0.039,0.244-0.042,0.289-0.008,0.136c0.069-0.286-0.17,0.321-0.034,0.091
					c-0.178,0.211-0.215,0.266-0.113,0.163c-0.04,0.038-0.565,0.301-0.415,0.255c-0.309,0.029-0.387,0.041-0.234,0.033
					c0.248-0.01-0.417-0.084-0.173-0.019c-0.264-0.121-0.329-0.148-0.194-0.081c0.226,0.114-0.297-0.26-0.103-0.089
					c0.264,0.232-0.167-0.308-0.003,0.015c-0.1-0.254-0.126-0.308-0.082-0.16c0.076,0.274-0.024-0.396-0.023-0.1
					c-0.012,0.158-0.004,0.107,0.021-0.152c-0.02,0.102-0.148,0.356,0.021-0.005c-0.032,0.063-0.067,0.125-0.106,0.185
					c-0.197,0.324,0.233-0.253-0.083,0.095c-0.063,0.067-0.128,0.131-0.196,0.192c0.234-0.219,0.014-0.014-0.06,0.03
					c-0.149,0.075-0.112,0.059,0.113-0.047c-0.28,0.094,0.378-0.012,0.109-0.021c0.185-0.006,0.356,0.04,0.513,0.136
					c-0.229-0.103,0.289,0.263,0.108,0.087c0.164,0.227,0.204,0.279,0.121,0.154c-0.143-0.218,0.133,0.374,0.046,0.126
					c-0.12-0.345,0,0.384,0.001,0.025c0.011-0.155,0.001-0.081-0.031,0.222c0.048-0.242-0.186,0.36-0.067,0.152
					c-0.219,0.384-0.571,0.502-0.87,0.517c0.816-0.042,1.5-0.651,1.5-1.5C211.25,150.214,210.567,149.458,209.75,149.5L209.75,149.5
					z"/>
			</g>
		</g>
		<g>
			<g>
				<path fill="#040303" d="M246.5,158.5c-0.014-0.117-0.021-0.229-0.02-0.346c-0.01,0.067-0.019,0.133-0.028,0.2
					c0.045-0.158,0.024-0.122-0.064,0.108c0.12-0.265-0.244,0.249-0.046,0.06c-0.035,0.034-0.553,0.284-0.349,0.226
					c-0.087,0.012-0.174,0.023-0.261,0.035c0.157,0.003,0.093-0.009-0.19-0.035c0.268,0.05-0.332-0.181-0.094-0.036
					c-0.062-0.046-0.124-0.092-0.186-0.139c0.103,0.112,0.074,0.075-0.085-0.111c0.166,0.256-0.101-0.335-0.021-0.012
					c-0.093-0.378-0.024-0.076-0.03,0.05c-0.018,0.393,0.084-0.303-0.022,0.068c0.093-0.322-0.001-0.028-0.057,0.06
					c0.182-0.287-0.007-0.021-0.074,0.042c0.253-0.233,0.007-0.03-0.076,0.013c0.364-0.188-0.217-0.029,0.23-0.069
					c-0.344,0.031,0.308,0.091-0.027-0.007c0.263,0.077,0.317,0.229,0.086-0.042c-0.53-0.624-1.578-0.543-2.121,0
					c-0.613,0.613-0.529,1.499,0,2.121c0.893,1.05,2.398,1.17,3.542,0.478c1.236-0.749,1.667-2.146,1.441-3.511
					c-0.214-1.293-1.574-2.038-2.785-1.811c-1.199,0.226-1.902,1.512-1.763,2.658c0.099,0.812,0.607,1.5,1.5,1.5
					C245.743,160,246.599,159.313,246.5,158.5L246.5,158.5z"/>
			</g>
		</g>
		<g>
			<g>
				<path fill="#040303" d="M280.311,181.314c0.425,0.506-0.322-0.365-0.171-0.225c-0.157-0.145-0.325-0.273-0.508-0.385
					c-0.448-0.273-1.065-0.274-1.514,0c-0.755,0.462-1.513,1.304-1.39,2.266c0.127,0.995,0.707,1.748,1.687,2.042
					c0.858,0.259,1.859-0.061,2.446-0.723c0.767-0.866,0.945-2.045,0.889-3.165c-0.041-0.816-0.651-1.5-1.5-1.5
					c-0.787,0-1.541,0.683-1.5,1.5c0.009,0.183,0.013,0.365,0.01,0.548c-0.002,0.092-0.07,0.62-0.001,0.176
					c-0.02,0.128-0.053,0.253-0.089,0.377c-0.054,0.153-0.034,0.113,0.062-0.121c-0.029,0.07-0.067,0.135-0.105,0.201
					c-0.13,0.221,0.277-0.298,0.029-0.046c-0.168,0.171,0.36-0.229,0.074-0.065c-0.2,0.115,0.424-0.137,0.116-0.062
					c0.317-0.035,0.402-0.046,0.252-0.035c-0.125,0.009-0.365-0.038,0.208,0.042c-0.062-0.009-0.121-0.028-0.179-0.049
					c0.478,0.171,0.286,0.13,0.159,0.043c0.24,0.196,0.307,0.246,0.203,0.149c-0.097-0.104-0.047-0.037,0.15,0.204
					c-0.176-0.235,0.123,0.41,0.046,0.126c0.034,0.329,0.046,0.418,0.037,0.27c0.003-0.148-0.01-0.06-0.042,0.263
					c0.047-0.3-0.169,0.325-0.063,0.125c0.101-0.19-0.296,0.323-0.049,0.066c0.254-0.263-0.287,0.174,0.065-0.042
					c-0.504,0-1.009,0-1.514,0c-0.283-0.347-0.359-0.426-0.227-0.238c0.094,0.13,0.193,0.256,0.298,0.378
					c0.526,0.627,1.581,0.541,2.121,0C280.926,182.82,280.836,181.94,280.311,181.314L280.311,181.314z"/>
			</g>
		</g>
		<g>
			<g>
				<path fill="#040303" d="M294.167,217.167c-1.533,0.04-2.765,0.999-2.439,2.637c0.198,0.992,1.252,1.907,2.203,2.133
					c1.592,0.378,2.86-1.115,2.855-2.616c-0.004-1.577-1.333-2.91-2.72-3.434c-0.766-0.289-1.644,0.314-1.845,1.047
					c-0.232,0.844,0.283,1.557,1.047,1.845c-0.17-0.077-0.175-0.075-0.017,0.006c0.359,0.195-0.177-0.181,0.15,0.101
					c0.113,0.098,0.211,0.211,0.309,0.324c-0.172-0.199,0.084,0.183,0.09,0.194c-0.146-0.272,0.023,0.285-0.015-0.085
					c0.03,0.293,0.001,0.003,0.053-0.1c0.096-0.192-0.063,0.049-0.115,0.104c0.308-0.331,0.619-0.337,1.004-0.282
					c-0.118-0.017-0.331-0.145,0.053,0.041c-0.086-0.042-0.333-0.226,0.003,0.035c-0.073-0.057-0.139-0.124-0.203-0.19
					c-0.227-0.233,0.186,0.281,0.017,0.017c-0.166-0.259,0.105,0.337,0.023,0.061c0.078,0.263,0.008,0.514-0.109,0.75
					c-0.092,0.187-0.283,0.354-0.481,0.417c0.341-0.11-0.317,0.005,0.136-0.007C296.098,220.117,296.102,217.117,294.167,217.167
					L294.167,217.167z"/>
			</g>
		</g>
		<g>
			<g>
				<path fill="#040303" d="M296.576,252.205c-1.243,0.591-2.564,1.754-2.109,3.292c0.334,1.127,1.466,1.777,2.535,2.061
					c1.004,0.267,2.328,0.3,3.105-0.516c1.204-1.263,0.166-2.843-0.88-3.769c-0.611-0.542-1.517-0.604-2.121,0
					c-0.552,0.552-0.612,1.579,0,2.121c0.177,0.157,0.347,0.319,0.507,0.493c0.083,0.09,0.299,0.386-0.017-0.038
					c0.056,0.075,0.104,0.154,0.148,0.236c0.11,0.202-0.152-0.429-0.067-0.153c0.082,0.266-0.032-0.418-0.028-0.222
					c-0.003-0.148,0.074-0.37,0.166-0.582c-0.095,0.221,0.308-0.333,0.128-0.167c0.364-0.336,0.311-0.221,0.171-0.148
					c0.466-0.242,0.339-0.133,0.191-0.089c-0.398,0.116,0.431-0.014-0.015,0c-0.166,0.005-0.719-0.064-0.085,0.022
					c-0.155-0.021-0.308-0.056-0.458-0.096c-0.135-0.036-0.268-0.082-0.398-0.133c0.563,0.22,0.051,0.014-0.092-0.072
					c-0.386-0.232,0.239,0.233-0.023-0.015c-0.096-0.091-0.245-0.306,0.099,0.147c-0.088-0.117-0.184-0.389,0.04,0.156
					c-0.052-0.127-0.066-0.391,0.011,0.219c-0.017-0.138,0.05-0.386-0.045,0.21c0.021-0.132,0.146-0.355-0.085,0.162
					c0.057-0.127,0.269-0.364-0.073,0.059c0.049-0.061,0.106-0.115,0.163-0.168c0.265-0.25-0.301,0.203,0.029-0.023
					c0.226-0.155,0.472-0.28,0.719-0.397c0.738-0.351,0.924-1.393,0.538-2.052C298.189,251.993,297.315,251.854,296.576,252.205
					L296.576,252.205z"/>
			</g>
		</g>
		<g>
			<g>
				<path fill="#040303" d="M282.629,289.743c-0.923-1.302-2.462-1.983-3.985-1.28c-1.487,0.686-1.612,2.575-0.821,3.829
					c0.854,1.354,2.513,1.655,3.89,0.963c0.663-0.333,1.058-0.952,1.329-1.611c0.299-0.729,0.064-1.561-0.246-2.234
					c-0.342-0.743-1.399-0.92-2.052-0.538c-0.756,0.443-0.88,1.31-0.539,2.053c-0.178-0.388,0.001,0.402-0.038-0.136
					c0.019,0.257,0.107-0.33-0.019,0.058c0.098-0.218,0.109-0.258,0.033-0.119c0.15-0.182,0.174-0.213,0.069-0.095
					c-0.163,0.179,0.296-0.168-0.052,0.033c-0.212,0.123,0.331-0.091-0.063,0.002c0.517-0.121-0.262-0.07,0.257,0.007
					c-0.061-0.011-0.12-0.026-0.178-0.045c0.212,0.098,0.247,0.11,0.103,0.035c-0.132-0.087-0.109-0.069,0.068,0.056
					c-0.108-0.117-0.099-0.097,0.028,0.059c-0.044-0.064-0.083-0.132-0.118-0.202c0.063,0.164,0.069,0.17,0.017,0.017
					c-0.038-0.172-0.037-0.142,0.002,0.09c0.004-0.169-0.007-0.127-0.032,0.126c0.045-0.153,0.024-0.112-0.064,0.124
					c0.083-0.132,0.052-0.095-0.092,0.11c0.113-0.104,0.075-0.076-0.115,0.084c0.137-0.073,0.093-0.058-0.133,0.047
					c0.376-0.141-0.22-0.007,0.035-0.011c0.163,0.01,0.124,0.002-0.119-0.023c0.064,0.013,0.127,0.03,0.189,0.051
					c-0.381-0.115-0.005,0.014,0.104,0.089c-0.382-0.26,0.181,0.301-0.05-0.025c0.472,0.666,1.3,0.979,2.053,0.539
					C282.75,291.409,283.103,290.411,282.629,289.743L282.629,289.743z"/>
			</g>
		</g>
		<g>
			<g>
				<path fill="#040303" d="M248.061,312.439c-1.318-1.253-3.354-1.43-4.501,0.137c-0.525,0.716-0.484,1.659-0.127,2.431
					c0.36,0.779,1.125,1.224,1.871,1.564c0.867,0.396,1.703,0.469,2.588,0.091c0.648-0.277,1.114-0.952,1.286-1.618
					c0.407-1.582-0.703-3.185-2.277-3.491c-0.802-0.156-1.616,0.215-1.845,1.047c-0.204,0.742,0.245,1.689,1.047,1.845
					c0.069,0.012,0.138,0.027,0.205,0.046c0.332,0.083-0.292-0.156-0.005-0.006c0.134,0.085,0.105,0.057-0.087-0.086
					c0.065,0.051,0.121,0.113,0.175,0.175c-0.148-0.201-0.181-0.237-0.099-0.107c0.152,0.251-0.121-0.35-0.032-0.076
					c0.122,0.374,0.008-0.344,0,0.041c0.046-0.279,0.054-0.34,0.025-0.186c-0.024,0.123-0.142,0.33,0.057-0.095
					c-0.021,0.041-0.044,0.08-0.07,0.118c0.05-0.065,0.099-0.131,0.149-0.197c-0.108,0.104-0.06,0.071,0.147-0.1
					c-0.039,0.027-0.08,0.05-0.123,0.07c0.073-0.033,0.147-0.066,0.221-0.099c-0.153,0.036-0.097,0.031,0.167-0.013
					c-0.112,0.011-0.386-0.042,0.04,0.028c-0.104-0.017-0.205-0.053-0.304-0.087c0.177,0.077,0.185,0.076,0.025-0.002
					c-0.128-0.065-0.262-0.117-0.389-0.185c-0.073-0.042-0.144-0.086-0.212-0.135c0.287,0.194,0.045,0.011-0.014-0.056
					c0.134,0.181,0.161,0.206,0.082,0.075c0.029,0.068,0.058,0.136,0.087,0.205c-0.04-0.158-0.036-0.101,0.011,0.17
					c0.001-0.16-0.011-0.1-0.039,0.178c0.043-0.273-0.177,0.334-0.049,0.088c0.082-0.127,0.047-0.085-0.105,0.126
					c0.183-0.214-0.31,0.201-0.07,0.044c0.136-0.073,0.088-0.056-0.145,0.05c0.113-0.044,0.38-0.058-0.073-0.013
					c0.059-0.004,0.118-0.004,0.177,0c-0.409-0.014-0.161-0.019-0.026,0.022c-0.361-0.11-0.07-0.022,0.028,0.037
					c0.324,0.195-0.215-0.204,0.085,0.082c0.592,0.563,1.532,0.589,2.121,0C248.627,313.994,248.653,313.003,248.061,312.439
					L248.061,312.439z"/>
			</g>
		</g>
		<g>
			<g>
				<path fill="#040303" d="M208.399,314.721c-1.324-0.45-2.691,0.611-2.625,1.997c0.031,0.651,0.322,1.237,0.786,1.69
					c0.317,0.309,0.676,0.485,1.077,0.651c-0.46-0.19,0.653,0.266,0.348,0.158c0.097,0.034,0.189,0.06,0.291,0.078
					c0.739,0.131,1.388-0.018,1.97-0.501c0.498-0.413,0.646-1.013,0.724-1.62c0.167-1.312-0.962-2.375-2.069-2.787
					c-0.767-0.285-1.643,0.311-1.845,1.047c-0.231,0.841,0.282,1.561,1.047,1.845c-0.178-0.083-0.195-0.087-0.051-0.012
					c0.306,0.166-0.22-0.214,0.012,0.017c-0.252-0.25-0.088-0.121-0.022,0c-0.185-0.334-0.069-0.168-0.037-0.032
					c-0.027-0.263-0.038-0.315-0.031-0.156c0.006,0.295,0.084-0.373,0.004-0.1c0.129-0.438,0.37-0.581,0.868-0.642
					c-0.156-0.001-0.111,0.009,0.136,0.032c-0.325-0.058,0.289,0.165-0.056-0.014c-0.119-0.05-0.239-0.101-0.358-0.151
					c0.143,0.057,0.141,0.048-0.003-0.028c0.304,0.18-0.093-0.174,0.152,0.166c-0.185-0.257,0.088,0.319,0.017,0.038
					c0.073,0.289,0.006,0.469-0.105,0.731c-0.097,0.229-0.391,0.374-0.608,0.449c-0.07,0.024-0.651-0.042-0.417,0.037
					c0.774,0.263,1.638-0.294,1.845-1.047C209.673,315.742,209.172,314.983,208.399,314.721L208.399,314.721z"/>
			</g>
		</g>
		<g>
			<g>
				<path fill="#040303" d="M171.667,299.167c-1.441,0.052-2.664,0.944-3.099,2.328c-0.485,1.547,0.667,2.978,2.119,3.361
					c1.463,0.385,2.798-0.422,3.28-1.811c0.463-1.336-0.277-2.766-1.377-3.507c-0.68-0.457-1.659-0.133-2.053,0.538
					c-0.433,0.74-0.139,1.597,0.538,2.053c-0.297-0.2-0.039-0.028,0.028,0.041c-0.323-0.33,0.116,0.303-0.07-0.147
					c0.037,0.09,0.058,0.187,0.079,0.282c-0.114-0.528-0.075,0.313,0.004-0.234c-0.015,0.103-0.128,0.391,0.044-0.014
					c-0.151,0.357,0.138-0.109-0.018,0.05c0.055-0.042,0.111-0.084,0.166-0.126c-0.137,0.077-0.099,0.066,0.115-0.033
					c-0.157,0.04-0.12,0.04,0.111,0.002c-0.072,0.004-0.144,0.004-0.215-0.002c0.463,0.022-0.167-0.1,0.141,0.035
					c-0.302-0.133-0.192-0.144-0.007,0.096c-0.203-0.263,0.076,0.304-0.011-0.003c0.022,0.24,0.031,0.277,0.026,0.11
					c-0.042,0.236-0.044,0.272-0.008,0.108c0.078-0.33-0.158,0.287,0.011-0.016c0.089-0.134,0.074-0.119-0.046,0.047
					c0.048-0.054,0.099-0.105,0.153-0.153c-0.332,0.312,0.33-0.123-0.089,0.044c0.073-0.026,0.146-0.047,0.222-0.064
					c-0.206,0.021-0.221,0.026-0.045,0.016c0.817-0.029,1.5-0.66,1.5-1.5C173.167,299.872,172.484,299.138,171.667,299.167
					L171.667,299.167z"/>
			</g>
		</g>
		<g>
			<g>
				<path fill="#040303" d="M142.601,269.721c-1.207,0.281-2.367,1.355-2.199,2.697c0.183,1.462,1.31,2.364,2.765,2.416
					c1.323,0.046,2.532-0.687,2.875-2.013c0.359-1.39-0.442-2.749-1.618-3.449c-1.666-0.992-3.174,1.602-1.514,2.591
					c0.37,0.22-0.182-0.194,0.119,0.072c0.287,0.253-0.138-0.242,0.063,0.06c0.201,0.302-0.083-0.294,0.026,0.037
					c0.11,0.333-0.008-0.338,0.006,0.002c0.014,0.337,0.083-0.337,0-0.017c0.103-0.397-0.077,0.062,0.165-0.251
					c-0.194,0.251,0.285-0.164,0.009,0.011c0.207-0.074,0.231-0.085,0.071-0.032c-0.163,0.035-0.144,0.035,0.056-0.002
					c-0.127,0.01-0.257-0.008-0.384-0.013c0.416,0.015-0.181-0.113,0.218,0.064c-0.305-0.135,0.219,0.224-0.013,0.008
					c0.131,0.189,0.154,0.218,0.069,0.087c0.083,0.227,0.1,0.266,0.051,0.115c0.008,0.076,0.016,0.152,0.024,0.229
					c0-0.162-0.013-0.115-0.038,0.14c0.045-0.3-0.174,0.299-0.017,0.027c-0.192,0.331,0.107-0.004-0.174,0.188
					c0.143-0.076,0.133-0.077-0.031-0.002c0.087-0.03,0.176-0.053,0.267-0.071c0.796-0.186,1.258-1.081,1.047-1.845
					C144.223,269.957,143.397,269.535,142.601,269.721L142.601,269.721z"/>
			</g>
		</g>
		<g>
			<g>
				<path fill="#040303" d="M136.5,230.333c0.082-0.756-0.039-1.633-0.632-2.173c-0.659-0.6-1.67-0.684-2.406-0.16
					c-1.393,0.992-1.685,2.96-0.434,4.206c1.28,1.274,3.689,1.192,4.496-0.568c0.336-0.733,0.446-1.575,0.162-2.348
					c-0.35-0.951-1.026-1.535-1.954-1.903c-0.761-0.302-1.646,0.324-1.845,1.047c-0.235,0.854,0.288,1.544,1.047,1.845
					c-0.196-0.088-0.224-0.095-0.082-0.022c0.292,0.159-0.241-0.224-0.007-0.009c0.107,0.117,0.086,0.083-0.063-0.102
					c0.052,0.068,0.09,0.146,0.128,0.222c-0.092-0.231-0.113-0.271-0.064-0.122c0.036,0.118,0.041,0.389,0-0.073
					c0.007,0.082,0.002,0.164-0.003,0.245c0.029-0.444,0.028-0.213-0.007-0.084c-0.052,0.148-0.03,0.101,0.064-0.14
					c-0.046,0.101-0.216,0.317,0.069-0.046c-0.23,0.293,0.279-0.132-0.048,0.046c0.243-0.094,0.29-0.118,0.14-0.072
					c0.378-0.106,0.234-0.021,0.066-0.025c0.406,0.009,0.161,0.021,0.022-0.02c0.357,0.104,0.033,0.011-0.059-0.04
					c-0.139-0.095-0.12-0.08,0.059,0.047c-0.244-0.213,0.175,0.282,0.011,0.03c-0.074-0.14-0.057-0.093,0.052,0.143
					c-0.048-0.127-0.035-0.364,0,0.106c-0.029-0.383-0.1,0.337,0.007-0.025c0.079-0.267-0.168,0.345-0.039,0.103
					c0.056-0.105,0.224-0.288-0.081,0.085c0.028-0.032,0.057-0.063,0.088-0.092c0.181-0.181-0.324,0.221-0.116,0.092
					c0.204-0.127-0.388,0.132-0.167,0.076c-0.321,0.081-0.601,0.035-0.893-0.113c-0.167-0.097-0.3-0.229-0.4-0.394
					c-0.198-0.295-0.105-0.296-0.06-0.105c-0.101-0.427-0.025-0.166-0.024-0.024c0.001,0.123-0.014,0.246-0.027,0.368
					c-0.088,0.814,0.75,1.5,1.5,1.5C135.885,231.833,136.412,231.146,136.5,230.333L136.5,230.333z"/>
			</g>
		</g>
		<g>
			<g>
				<path fill="#040303" d="M146.41,191.872c-0.93,0.602-1.625,1.737-1.551,2.872c0.112,1.726,1.754,2.508,3.323,2.188
					c1.31-0.267,2.298-1.507,2.208-2.853c-0.109-1.63-1.362-2.559-2.89-2.744c-0.813-0.099-1.5,0.757-1.5,1.5
					c0,0.892,0.688,1.401,1.5,1.5c-0.357-0.043,0.007,0.027,0.075,0.049c-0.187-0.083-0.209-0.086-0.067-0.01
					c-0.164-0.139-0.187-0.155-0.068-0.049c0.18,0.165-0.145-0.275,0.036,0.078c-0.087-0.22-0.108-0.254-0.062-0.102
					c-0.024-0.251-0.03-0.296-0.018-0.132c0.021,0.319,0.082-0.358,0.018-0.045c-0.048,0.236,0.185-0.294-0.026,0.049
					c0.147-0.179,0.167-0.21,0.058-0.094c0.186-0.131,0.211-0.152,0.075-0.063c-0.142,0.074-0.116,0.065,0.078-0.027
					c-0.161,0.038-0.139,0.043,0.067,0.014c-0.134,0.018-0.272,0.01-0.406,0.002c0.207,0.032,0.233,0.03,0.077-0.008
					c0.208,0.099,0.247,0.111,0.113,0.036c0.28,0.168,0.315,0.256,0.383,0.466c-0.071-0.22-0.001,0.4,0.027,0.006
					c-0.031,0.442-0.02,0.192,0.018,0.066c0.072-0.243-0.17,0.314,0.029-0.045c0.196-0.354-0.138,0.136,0.021-0.044
					c0.258-0.293-0.19,0.104-0.004-0.016c0.685-0.444,0.966-1.323,0.539-2.052C148.063,191.729,147.097,191.427,146.41,191.872
					L146.41,191.872z"/>
			</g>
		</g>
	</g>
	<g>
		
			<polygon fill="none" stroke="#040303" stroke-width="10" stroke-linecap="round" stroke-linejoin="round" stroke-miterlimit="10" points="
			221.686,24.854 217.27,29.91 213.01,35.713 207.651,40.609 203.232,46.284 199.695,52.641 195.284,58.3 191.379,64.308 
			186.823,69.926 184.868,76.696 189.632,82.351 195.795,86.533 202.949,88.42 210.083,90.055 217.534,90.433 224.118,87.97 
			219.2,83.477 213.727,77.998 205.982,74.479 209.927,67.773 209.291,62.708 212.696,57.317 217.532,52.67 213.439,47.112 
			218.623,42.596 223.595,37.44 220.163,31.445 		"/>
	</g>
	<g>
		
			<polygon fill="none" stroke="#040303" stroke-width="10" stroke-linecap="round" stroke-linejoin="round" stroke-miterlimit="10" points="
			220.329,181.151 213.019,181.651 205.689,182.157 198.709,184.447 192.009,187.343 185.576,190.836 179.317,194.911 
			175.517,201.374 170.556,206.972 168.851,214.27 166.317,221.146 165.596,228.455 164.38,235.663 165.104,242.748 
			166.751,249.805 170.609,255.956 175.221,261.435 178.823,267.69 184.685,271.857 189.902,276.851 196.854,278.96 
			203.079,282.564 209.946,284.648 217.125,284.079 224.368,284.053 230.739,280.535 237.07,277.363 243.753,274.56 
			249.302,269.958 254.203,264.345 259.308,258.82 263.284,252.282 264.17,244.661 266.138,237.286 265.675,229.686 
			263.468,222.414 261.596,215.187 260.138,207.724 256.086,201.302 252.621,194.955 247.425,189.825 240.745,186.836 
			234.351,183.799 227.559,181.433 		"/>
	</g>
	<g>
		
			<polygon fill="none" stroke="#040303" stroke-width="10" stroke-linecap="round" stroke-linejoin="round" stroke-miterlimit="10" points="
			220.014,166.159 212.709,165.241 205.572,167.279 198.205,167.54 191.656,170.952 185.071,173.859 178.677,177.264 
			172.925,181.716 168.84,187.764 163.684,192.95 159.757,199.144 157.074,205.97 155.696,213.164 154.466,220.309 152.222,227.338 
			151.407,234.604 152,241.71 152.867,248.729 155.813,255.199 158.599,261.551 160.687,268.364 164.832,274.092 170.323,278.572 
			175.05,283.728 180.389,288.34 186.909,291.085 192.777,295.092 199.544,297.108 206.375,298.768 213.738,300.564 
			221.313,300.131 228.927,300.162 236.41,298.614 243.712,296.286 250.621,292.951 256.638,288.164 262.533,283.371 
			267.609,278.274 272.559,272.834 275.249,265.978 277.777,259.158 279.852,252.128 281.172,244.835 280.362,237.462 
			280.661,229.983 278.141,222.933 277.511,215.418 274.688,208.521 270.656,202.188 267.63,195.466 264.714,188.634 
			259.292,183.717 254.434,178.037 247.403,175.361 240.86,172.27 234.469,168.6 227.454,166.113 		"/>
	</g>
	<g>
		
			<polygon fill="none" stroke="#040303" stroke-width="10" stroke-linecap="round" stroke-linejoin="round" stroke-miterlimit="10" points="
			161.318,469.172 158.464,473.813 158.524,481.066 158.857,488.277 158.996,495.464 158.397,502.648 157.931,509.841 
			159.253,517.021 158.843,524.217 158.394,531.42 159.167,538.6 158.104,545.821 159.103,552.993 159.826,560.17 158.71,567.403 
			159.12,574.592 160.029,581.756 160.166,588.947 160.875,596.118 160.229,603.345 161.631,610.488 161.255,617.709 
			162.318,624.868 162.612,632.059 162.439,639.272 163.021,646.452 163.074,653.654 162.372,660.893 163.552,668.045 
			164.511,675.206 164,682.44 165.497,689.575 164.504,696.838 165.485,703.979 166.232,696.705 166.903,689.411 167.428,682.1 
			167.806,674.775 169.138,667.538 169.268,660.188 170.874,652.983 171.018,645.627 171.25,638.275 172.973,631.098 
			172.633,623.667 174.764,616.548 176.019,609.321 176.17,601.938 177.478,594.718 178.474,587.445 179.045,580.104 
			180.31,572.909 183.559,570.534 184.129,577.802 185.522,584.969 186.271,592.207 185.9,599.514 187.507,606.71 187.856,613.976 
			187.995,621.248 187.051,628.562 187.168,635.83 188.909,643.045 188.733,650.326 188.129,657.618 189.315,664.859 
			189.797,672.116 188.309,679.425 188.772,686.684 189.001,693.951 190.503,701.195 189.528,708.49 190.562,715.744 
			190.091,723.028 189.81,730.309 191.216,737.557 189.729,744.856 189.968,752.127 190.227,759.399 190.221,766.676 
			190.335,773.95 190.55,781.227 191.034,788.422 193.455,781.606 193.778,774.258 194.877,767.081 196.344,759.979 199.079,753.09 
			199.307,745.762 200.123,738.54 202.427,731.555 203.158,724.317 203.92,717.09 204.5,709.841 206.55,702.798 207.759,695.632 
			208.374,688.387 209.559,681.219 210.377,674.001 210.667,666.715 211.912,659.555 212.34,652.293 213.231,645.085 
			214.081,637.872 214.149,630.569 216.794,623.558 217.539,616.327 216.641,608.873 219.457,613.646 219.714,620.992 
			222.248,628.13 222.583,635.482 221.436,642.927 222.365,650.228 223.504,657.521 224.378,664.83 223.59,672.223 223.777,679.567 
			225.619,686.845 224.044,694.265 225.209,701.572 226.055,708.891 225.814,716.257 226.55,723.585 226.893,730.93 
			226.813,738.287 227.362,745.629 226.979,752.75 228.803,745.994 229.814,738.867 229.873,731.603 230.57,724.434 
			232.888,717.499 234.08,710.4 233.682,703.071 236.105,696.15 236.603,688.951 237.428,681.799 238.25,674.649 239.626,667.577 
			241.081,660.515 242.043,653.381 242.541,646.184 243.696,639.076 245.185,632.012 245.49,624.789 246.319,617.64 
			248.119,610.608 248.139,603.35 248.172,596.096 250.249,589.097 250.086,581.819 252.517,574.858 251.937,567.54 
			253.683,560.494 253.771,553.261 254.09,546.055 255.397,538.954 256.021,531.784 256.767,524.625 257.654,517.477 
			258.534,510.323 258.507,503.102 259.028,495.918 259.361,488.722 259.671,481.455 256.794,476.436 255.427,483.582 
			253.562,490.899 251.416,498.145 249.62,505.468 246.858,512.55 245.181,519.896 243.609,527.281 240.783,534.273 238.14,541.265 
			234.706,546.713 234.223,539.819 235.33,532.633 234.547,525.44 234.599,518.209 232.8,511.165 230.456,504.471 226.29,500.683 
			221.492,505.779 217.597,512.096 215.173,519.074 213.188,526.165 210.583,533.057 209.081,540.266 207.86,547.52 
			206.246,554.675 203.594,561.628 202.854,569.309 202.114,561.621 201.266,554.241 201.44,546.738 199.503,539.49 
			197.895,532.213 198.273,524.63 195.494,517.562 195.23,510.032 192.448,503.079 189.602,497.747 183.689,503.442 
			178.463,509.959 174.095,516.932 173.58,509.401 172.809,501.841 169.694,494.663 168.883,487.109 167.818,479.579 165.22,472.45 
					"/>
	</g>
	<g>
		
			<polyline fill="none" stroke="#040303" stroke-width="10" stroke-linecap="round" stroke-linejoin="round" stroke-miterlimit="10" points="
			276.925,438.118 269.962,438.284 263.124,439.624 256.177,440 249.27,439.199 		"/>
	</g>
	<g>
		
			<polyline fill="none" stroke="#040303" stroke-width="10" stroke-linecap="round" stroke-linejoin="round" stroke-miterlimit="10" points="
			138.188,414.608 145.065,416.948 152.349,417.748 159.413,419.289 166.424,421.087 173.543,422.392 180.411,425.258 
			187.843,424.573 195.006,425.589 202.093,427.556 209.33,428.215 216.641,427.331 223.862,428.118 231.104,427.365 
			238.366,428.134 245.644,428.214 252.824,426.961 260.046,426.27 267.246,425.335 274.381,423.984 281.278,421.63 		"/>
	</g>
	<g>
		
			<polyline fill="none" stroke="#040303" stroke-width="10" stroke-linecap="round" stroke-linejoin="round" stroke-miterlimit="10" points="
			137.419,404.391 138.863,410.916 139.157,417.545 139.344,424.207 141.118,430.631 142.814,436.175 148.965,440.068 
			155.602,443.135 162.432,446.048 169.975,445.875 177.098,447.623 184.382,448.406 191.639,449.553 199.008,449.131 
			206.294,450.594 213.646,449.284 220.98,450.132 228.312,449.825 235.66,449.919 243.015,449.971 250.305,448.895 
			257.598,448.038 264.94,447.724 272.5,447.449 275.316,440.94 278.709,434.928 280.747,428.38 282.204,421.689 282.665,414.825 
			283.898,408.139 		"/>
	</g>
	<g>
		
			<polyline fill="none" stroke="#040303" stroke-width="10" stroke-linecap="round" stroke-linejoin="round" stroke-miterlimit="10" points="
			171.073,87.347 177.963,89.186 184.857,90.84 191.457,93.539 198.433,94.852 205.455,95.81 212.222,98.438 219.369,98.576 
			226.425,99.573 233.554,98.58 240.69,100.125 247.688,98.237 254.691,97.252 261.869,96.999 268.425,94.001 275.074,91.674 
			281.865,89.625 		"/>
	</g>
	<g>
		
			<polyline fill="none" stroke="#040303" stroke-width="10" stroke-linecap="round" stroke-linejoin="round" stroke-miterlimit="10" points="
			22.955,346.661 24.751,353.977 25.567,361.424 26.1,368.911 28.43,376.146 28.288,383.729 30.698,390.952 30.093,398.615 
			32.926,405.766 32.359,413.439 33.549,420.854 36.355,427.845 		"/>
	</g>
	<g>
		
			<polyline fill="none" stroke="#040303" stroke-width="10" stroke-linecap="round" stroke-linejoin="round" stroke-miterlimit="10" points="
			392.659,356.204 393.485,363.291 393.885,370.384 393.033,377.431 392.655,384.497 391.703,391.524 391.15,398.574 389.76,405.54 
			388.935,412.552 389.223,419.715 388.427,426.764 386.965,433.704 385.576,440.667 383.661,447.53 379.857,453.574 		"/>
	</g>
	<g>
		
			<polyline fill="none" stroke="#040303" stroke-width="10" stroke-linecap="round" stroke-linejoin="round" stroke-miterlimit="10" points="
			356.828,315.433 355.575,322.571 353.575,329.552 352.116,336.643 350.059,343.606 348.697,350.719 346.76,357.706 
			345.831,364.916 343.233,371.76 342.949,379.124 340.714,386.043 339.172,393.122 337.452,400.16 336.439,407.397 
			333.346,414.045 330.359,420.15 		"/>
	</g>
	<g>
		
			<polyline fill="none" stroke="#040303" stroke-width="10" stroke-linecap="round" stroke-linejoin="round" stroke-miterlimit="10" points="
			324.823,281.908 329.123,288.076 334.037,293.62 339.893,298.248 345.243,303.375 349.655,309.405 355.053,314.485 360.6,319.431 
			365.92,324.604 370.278,330.676 375.579,335.867 380.202,341.682 385.108,347.229 390.069,352.726 395.715,357.668 
			399.604,364.055 402.48,370.465 403.764,377.631 402.561,384.688 401.548,391.733 400.645,398.774 401.581,405.967 
			399.561,412.897 398.51,419.908 397.888,426.971 396.565,433.935 396.521,441.123 394.6,447.978 393.496,455.014 390.934,461.662 
			388.965,468.496 385.371,474.615 381.68,479.646 377.682,474.594 374.133,468.479 368.67,463.79 365.458,457.384 359.918,452.824 
			355.69,447.21 351.16,441.84 346.315,436.75 341.065,432.063 337.424,425.772 331.602,421.676 326.387,416.968 320.81,412.695 
			314.969,408.809 309.606,404.268 303.992,399.973 297.688,396.812 		"/>
	</g>
	<g>
		
			<polyline fill="none" stroke="#040303" stroke-width="10" stroke-linecap="round" stroke-linejoin="round" stroke-miterlimit="10" points="
			97.31,402.99 95.829,396.021 96.14,388.889 95.417,381.849 94.72,374.806 94.029,367.767 92.665,360.803 91.66,353.8 
			91.039,346.741 90.18,339.712 88.845,332.754 88.177,325.688 87.294,318.639 85.967,311.653 83.782,304.854 79.836,299.01 		"/>
	</g>
	<g>
		
			<polyline fill="none" stroke="#040303" stroke-width="10" stroke-linecap="round" stroke-linejoin="round" stroke-miterlimit="10" points="
			109.356,275.022 104.086,280.303 98.305,284.919 91.923,288.765 86.513,293.854 81.09,298.923 74.238,302.202 69.254,307.814 
			63.174,312.068 57.042,316.275 51.761,321.511 45.979,326.141 40.459,331.085 34.411,335.423 29.981,341.574 24.013,346.015 
			19.612,352.012 14.692,357.525 14.688,364.981 15.225,372.421 15.821,379.854 16.02,387.313 18.048,394.648 16.701,402.219 
			18.508,409.562 18.783,417.026 19.792,424.422 19.741,431.93 20.208,439.399 21.966,446.698 22.619,454.207 26.017,461.082 
			31.675,456.688 36.079,450.948 42.053,446.985 47.89,442.879 52.36,437.169 58.35,433.251 63.313,428.101 69.234,424.111 
			74.808,419.699 80.054,414.856 86.02,410.949 92.028,407.13 97.309,402.26 103.078,398.028 109.804,395.418 116.47,393.078 
			123.337,391.091 		"/>
	</g>
	<g>
		
			<polygon fill="none" stroke="#040303" stroke-width="10" stroke-linecap="round" stroke-linejoin="round" stroke-miterlimit="10" points="
			227.602,12.836 222.532,18.26 217.829,23.746 213.666,29.688 208.699,34.939 204.025,40.445 198.712,45.473 195.013,51.748 
			191.426,58.073 186.096,63.156 182.102,69.193 178.615,75.557 174.187,81.311 171.356,88.058 166.655,93.67 163.664,100.292 
			159.107,106.039 156.194,112.693 153.97,119.676 149.749,125.652 146.419,132.084 144.034,138.947 140.289,145.211 
			137.598,151.938 135.575,158.92 133.824,165.979 131.472,172.801 127.702,179.162 125.408,186.035 123.61,193.056 
			123.015,200.391 120.121,207.109 118.504,214.163 117.119,221.267 115.952,228.407 114.605,235.509 112.936,242.571 
			112.646,249.832 111.306,256.958 110.868,264.185 109.548,271.348 110.849,278.665 110.377,285.872 109.809,293.089 
			110.672,300.305 110.292,307.537 110.598,314.755 111.484,321.934 111.104,329.224 112.367,336.362 113.066,343.562 
			114.6,350.642 116.161,357.7 117.074,364.879 118.778,371.9 119.404,379.181 122.405,385.882 123.941,392.951 125.678,399.941 
			132.403,401.888 138.656,405.436 145.864,405.72 152.608,407.759 159.321,410.298 166.444,410.435 173.41,411.599 
			180.436,412.293 187.511,412.261 194.513,413.433 201.578,413.473 208.643,412.962 215.69,412.904 222.728,412.425 
			229.804,413.119 236.887,413.395 243.936,412.97 250.994,412.644 258.005,411.692 264.888,409.55 272.031,410.02 279.118,409.813 
			285.951,407.554 292.991,406.988 295.519,400.271 299.566,394.205 302.323,387.564 304.387,380.666 306.237,373.715 
			308.631,366.953 311.029,360.177 312.41,353.111 315.166,346.404 315.824,339.18 317.937,332.294 319.67,325.31 320.556,318.168 
			320.519,310.904 321.712,303.838 323.535,296.827 323.835,289.642 323.967,282.457 325.229,275.34 324.696,268.137 
			325.309,260.974 325.741,253.79 324.704,246.633 324.451,239.467 323.59,232.341 324.094,225.102 322.418,218.063 
			321.213,210.996 321.338,203.73 318.93,196.864 318.982,189.556 316.397,182.767 314.518,175.852 312.625,168.948 
			311.828,161.731 308.679,155.191 307.054,148.19 305.275,141.215 303.331,134.275 300.271,127.756 296.729,121.459 
			294.091,114.789 291.864,107.909 288.911,101.351 285.448,95.047 282.162,88.654 278.54,82.444 274.421,76.533 270.784,70.343 
			266.566,64.525 263.356,58.042 259.051,52.282 254.327,46.838 250.193,40.975 245.847,35.27 241.284,29.732 236.836,24.102 
			231.969,18.821 		"/>
	</g>
</g>
</svg>
