<?xml version="1.0" encoding="utf-8"?>
<!-- Generator: Adobe Illustrator 19.0.0, SVG Export Plug-In . SVG Version: 6.00 Build 0)  -->
<svg version="1.1" id="Capa_1" xmlns="http://www.w3.org/2000/svg" xmlns:xlink="http://www.w3.org/1999/xlink" x="0px" y="0px"
	 viewBox="0 0 684.9 24.9" style="enable-background:new 0 0 684.9 24.9;" xml:space="preserve">
<style type="text/css">
	.st0{fill-rule:evenodd;clip-rule:evenodd;fill:#0A0618;}
</style>
<g id="XMLID_18_">
	<path id="XMLID_114_" class="st0" d="M32.3,14.6C32.3,14.6,32.3,14.6,32.3,14.6C32.3,14.6,32.2,14.6,32.3,14.6L32.3,14.6z"/>
	<path id="XMLID_113_" class="st0" d="M53.2-8.2C53.2-8.2,53.2-8.2,53.2-8.2C53.2-8.2,53.2-8.2,53.2-8.2C53.2-8.2,53.2-8.2,53.2-8.2
		z"/>
	<path id="XMLID_112_" class="st0" d="M144.3,15.2C144.3,15.2,144.3,15.2,144.3,15.2C144.3,15.2,144.2,15.2,144.3,15.2L144.3,15.2z"
		/>
	<path id="XMLID_111_" class="st0" d="M53.2-8.2C53.2-8.2,53.2-8.2,53.2-8.2C53.2-8.2,53.2-8.2,53.2-8.2C53.2-8.2,53.2-8.2,53.2-8.2
		z"/>
	<path id="XMLID_110_" class="st0" d="M126.4-10.5C126.4-10.5,126.4-10.5,126.4-10.5C126.4-10.5,126.5-10.5,126.4-10.5L126.4-10.5z"
		/>
	<path id="XMLID_109_" class="st0" d="M198.1-6.7C198.1-6.7,198.1-6.7,198.1-6.7C198.2-6.7,198.2-6.7,198.1-6.7L198.1-6.7z"/>
	<path id="XMLID_108_" class="st0" d="M651.8,14.6C651.8,14.6,651.8,14.6,651.8,14.6C651.8,14.6,651.8,14.6,651.8,14.6L651.8,14.6z"
		/>
	<path id="XMLID_107_" class="st0" d="M630.9-8.2C630.9-8.2,630.9-8.2,630.9-8.2C630.9-8.2,630.9-8.2,630.9-8.2
		C630.9-8.2,630.9-8.2,630.9-8.2z"/>
	<path id="XMLID_106_" class="st0" d="M539.8,15.2C539.8,15.2,539.8,15.2,539.8,15.2C539.8,15.2,539.8,15.2,539.8,15.2L539.8,15.2z"
		/>
	<path id="XMLID_105_" class="st0" d="M630.8-8.2C630.8-8.2,630.8-8.2,630.8-8.2C630.9-8.2,630.9-8.2,630.8-8.2
		C630.9-8.2,630.9-8.2,630.8-8.2z"/>
	<path id="XMLID_104_" class="st0" d="M557.6-10.5C557.6-10.5,557.6-10.5,557.6-10.5C557.6-10.5,557.7-10.5,557.6-10.5L557.6-10.5z"
		/>
	<path id="XMLID_20_" class="st0" d="M684.4-6.3c0.5,0.1,1,0,1.4-0.1v-3.4c-1,0-2.1,0-3.1,0.1c-1.5,0.1-3.1,0.3-4.6,0.5
		c-0.9,0.1-1.9,0.1-2.8,0.3c-1,0.2-1.2,0.4-1.4,1.4c0,0.1,0.1,0.3,0.1,0.4c0,0.1-0.1,0.2-0.2,0.3c-1.2-0.1,0-1.2-0.7-1.5
		c-1.7,0.2-2.9,1.1-3.4,2.8c0.9,0.8,1.9-0.4,2.8,0.4c-0.2,0.1-0.3,0.3-0.5,0.3c-1.3,0.1-2.5,0.3-3.8,0.4c-0.3,0-0.7,0-1,0.1
		c-1.1,0.2-1.1,0.3-2.7-0.3c0.9-0.2,1.6-0.4,2.3-0.6c0-0.3,0-0.7,0-1.2c-0.3,0.3-0.5,0.4-0.7,0.7c-0.8-0.2-0.2-1.1-0.8-1.6
		c-0.1,0.1-0.5,0.2-0.5,0.4c-0.1,0.8-0.5,0.8-1.2,0.5c0,0.8-0.1,1.5-0.1,2.2c-0.5,0-0.9,0-1.3,0l0,0c-0.7,0.5-1.3,0.9-2.2,0.7
		c-0.4-0.1-1,0-1.4,0.2c-1.5,0.7-3.2,0.4-4.8,0.5c-0.5,0-1.2-0.1-1.5-0.5c-0.5-0.7-1.4-0.5-1.9-1c-0.5-0.6-1.2-0.5-1.8-0.9
		c-0.2-0.1-0.3-0.2-0.5-0.3c0.1-0.4,0.4-0.3,0.7-0.2c1,0.4,1.8,0,2.7-0.5c0.5-0.3,0.4-0.6-0.1-1.2c-1,0.6-1,0.5-2.2,0.6
		c-1.1,0-2.3,0.2-3.4,0.2c-0.2-0.3-0.4-0.6-0.5-0.9c-1,0.1-2,0.3-3,0.3c-1.4,0-2.6,0.4-3.3,1.7c-1,0.2-1.9,0.5-2.8,0.5
		c-0.7,0-1.4-0.4-2.2-0.6c0.5-0.6,0.9-1,1.5-1.6c-0.3-0.2-0.6-0.4-0.8-0.4c-0.9,0-1.7,0-2.6,0c-0.5,0-1-0.2-1.5-0.3c0,0.1,0,0.1,0,0
		c-0.4,0.1-0.8,0.2-1,0.4c-1.1,1.3-2.6,1.6-4.2,1.6c-0.4,0-0.9,0.1-1.1,0.3c-0.7,0.9-1.4,0.4-2.1-0.1c-0.5,0.3-1,0.7-1.5,0.8
		C620.3-5,619.7-5,619.1-5c-0.7,0.1-1.3,0.1-2,0.2c-1.9,0.4-3.7,0.4-5.6,0.2c-0.6,0-1-0.3-1.2-0.9c-0.5,0.3-0.9,0.6-1.3,0.8
		c-0.6-0.2-1.1-0.4-1-1.1c0.1-0.1,0.1-0.2,0.2-0.3c0.6-0.4,1.3-0.7,1.9-1.1c0.2-0.1,0.2-0.4,0.5-0.8c-1.3,0.1-2.5,0-3.6,0.2
		c-0.8,0.2-1.7,0.1-2.3,0.4c-1.2,0.6-2.2,0.4-3.3,0.1c-0.2-0.1-0.5-0.1-0.8-0.1c0.3-0.2,0.5-0.4,0.6-0.5C601.1-8,601-8.2,601-8.2
		c-0.6,0-1.2-0.1-1.8-0.1c-0.2,0.4-0.5,0.7-0.8,1.2c-0.2-0.4-0.3-0.6-0.5-0.9c-0.4,0.2-0.8,0.4-1.2,0.5c-0.6-0.3-1.2-0.7-1.8-0.2
		c-0.4,0.4,0.2,0.6,0.2,0.9c-0.3,0.2-0.6,0.5-1.1,0.9c0.9-0.1,1.6-0.1,2.2-0.1c0.2,0.4-0.1,0.5-0.3,0.6c-0.2,0.1-0.4,0.2-0.6,0.2
		c-1.9,0-3.7,0.5-5.5,0.9c-0.5,0.1-0.9,0-1.2-0.6c0.1-0.1,0.2-0.3,0.3-0.4c0.1-0.1,0.1-0.2,0.2-0.4c-2.2,0-4.3-0.1-6.4-0.1
		c-0.2,0-0.4,0-0.6,0.1c-1.1,1-2.5,0.8-3.8,0.5c-0.1,0-0.1,0-0.2,0.1c-0.3,0.4,0,0.7,0.3,0.8c0.8,0.2,1.7,0.3,2.4,0.4
		c0,0-1.8,1.6-1.9,1.6c-0.2,0-0.5,0.1-0.6,0c-0.6-1.1-1.7-0.5-2.6-0.8c-0.7,0.6-1.3,1.5-2.6,1c0-0.1-0.1-0.3-0.1-0.5
		c0-0.1,0-0.3,0-0.5c-0.5,0.1-1,0.2-1.5,0.3c-0.5-0.8-0.6-1.5,0.3-2.2c-0.4,0-0.7-0.1-0.8,0c-1,0.6-1.8,0.3-2.5-0.5
		c-0.3,0.2-0.5,0.4-0.8,0.5c-0.2,0.1-0.7,0.1-0.7-0.1c-0.6-1-1.7-1-2.5-1.6c0,0,0,0,0,0c0,0,0,0,0,0c0,0-0.1,0-0.1,0
		c-0.1,0.1-0.1,0.2-0.2,0.4c-0.1-0.1-0.1-0.1-0.2-0.2c0.1,0,0.2-0.1,0.4-0.1c0,0,0,0,0-0.1c-0.2-0.2-0.5-0.4-0.7-0.7
		c0-0.4,0-0.9,0-1.4c0.4-0.3,0.7-0.6,1-0.9c-0.6-1.3-1.7-0.5-2.4-0.8c-0.5,0.6-0.8,1.1-1.2,1.6c-1.3,0.1-1.5-0.7-1.5-1.7
		c-0.4,0.3-0.7,0.5-1,0.7c-0.3-0.2-0.6-0.5-0.9-0.7c-0.2,0.4-0.3,0.8-0.5,1.3c-0.6,0.1-1.3,0.1-1.7,0.4c-0.5,0.3-0.9,0.6-1.4,0.4
		c-0.6,0.6-0.8,1.6-1.9,1.9c-0.5-0.2-1.1-0.4-2-0.8c0.8-0.5,1.4-0.9,2.1-1.4c-0.5-0.4-0.8-0.6-1.2-0.8c0.4-0.2,0.7-0.4,1.1-0.7
		c-0.1-0.4-0.2-0.7-0.4-1.1c-0.2,0-0.3-0.1-0.5-0.1c-0.7,0.1-1.5,0.2-2.2,0.3c-0.7,0.1-0.9,0.8-0.5,1.4c0.2,0.3,0.5,0.4,0.8,0.8
		c-1.2,0.9-1.5,2.2-1.8,3.5c-0.8,0-0.5-0.6-0.7-1c-0.6,0-1.3,0.1-2,0.1c-0.4,1.5-0.4,1.5-1.7,2c-0.2-0.2-0.5-0.4-0.6-0.7
		c-0.6-1.2-0.6-1.2-1.7-0.8c-0.1,0-0.1,0.1-0.2,0.1c0.1,0.2,0.2,0.3,0.2,0.5c0,0.4-0.5,0.6-0.7,0.4c-0.4-0.4-0.7-0.8-1-1.2
		c0.7-0.9,1.7-0.9,2.6-1c1.1-0.2,1.9-0.7,2.7-1.5c-0.7-0.7-1.3,0.3-2-0.1c0.1-0.2,0.2-0.7,0.3-0.7c0.5-0.1,1-0.4,1.5-0.3
		c0.2,0,0.4-0.2,0.6-0.3c-0.2-0.5-0.6-0.4-0.9-0.5c-0.5-0.1-0.9-0.3-1.4-0.3c-1.1,0-2.3,0.1-3.4,0.3c-0.6,0.1-1,0.3-1.2,0.9
		c-0.1,0.2-0.1,0.5,0,0.8c0.4,1.3,0.4,1.5,0.1,2.9c-0.5,0-1-0.1-1.4-0.1c0,0,0,0,0,0c-0.1,0-0.2,0-0.3-0.1c0.1,0,0.2,0,0.3,0.1
		c0,0,0,0,0,0c0.3-0.9,0-1.5-0.8-2l0,0c-0.5,0.2-1.1,0.4-1.6,0.7c-0.5,0.3-0.6,0.8-0.3,1.5c-0.5,0.1-0.9,0.1-1.3,0.2
		c-0.1-0.2-0.2-0.3-0.2-0.4c0.3-1.2,0.3-1.2,0.1-2.3c0.7-0.8,1.8-0.3,2.7-0.5c0-0.3,0-0.5-0.1-0.7c-0.1-0.2-0.3-0.4-0.4-0.7
		c-1.3,0.1-2.6,0.3-3.9,0.4c-0.1,0.2-0.3,0.5-0.4,0.7c-0.7,0.2-1.1-0.2-1.1-0.9c-0.3,0-0.4-0.1-0.5-0.1c-1.6,0.5-3.1,0.7-4.8,0.5
		c-0.9-0.1-1.5,0.8-2.5,0.6c-0.8-0.2-1.6-0.2-2.4-0.2c-1.7,0.1-3.4,0.7-5.2,0.4c-1.4,0.7-3.1,0.1-4.5,0.9c-0.3,0.2-0.8,0.1-1.2,0.2
		c-0.4,0.1-0.8,0.1-1.2,0.2c-1.1,0.4-1.1,0.4-2,0.1c-0.2,0.3-0.4,0.7-0.6,1.1c-0.3-0.1-0.6-0.2-0.7-0.3c-0.5-0.5-1.1-0.6-1.7-0.3
		c-1.1,0.6-2.2,0.5-3.3,0.5c-1,0-2,0-3,0.2c-1.2,0.2-2.4,0.1-3.6-0.4c-0.3,0.2-0.6,0.5-0.9,0.8c0.2-0.7,0.3-1.2,0.5-1.9
		c-0.6-0.1-1.2-0.2-1.7-0.3c-0.1,0.2-0.3,0.3-0.4,0.5c-0.4,0.6-0.6,1.4-1.5,1.4c-0.8-0.3-1.5-0.5-2.2-0.7c0,0.3,0.1,0.6,0.1,0.9
		c-0.9,0.1-1.7,0.3-2.5,0.4c-1.2,0.2-1.5,0-1.7-1.2c-0.1-0.3-0.2-0.6-0.4-0.9c-0.8,0.8-0.8,0.8-1.9,1c-0.6,0.1-1.2,0.4-1.9,0.7
		c-0.2-0.4-0.3-0.8-0.4-1.2c-0.8,0.4-1.5,0.9-2.3,1.3c-0.7-0.2-1.5-0.4-2.3-0.5c0,0,0,0,0,0c0,0-0.1,0-0.1,0c-0.2,0-0.5,0.1-0.7,0.1
		c0,0-0.1-0.1-0.1-0.1c0.1-0.1,0.2-0.2,0.2-0.2c0.2,0.1,0.4,0.1,0.6,0.2c0,0,0,0,0.1,0c0,0,0,0,0,0c-0.7-1.4-2-1.5-3.4-1.4
		c-0.1,0.3-0.3,0.6-0.5,1c-0.7-0.1-1.4-0.2-2.1-0.3c-0.3,0.4-0.1,0.6,0.3,0.7c0.6,0.2,1.4,0,1.9,0.5c-0.7,0.5-0.7,0.5-1.1,0.4
		c-0.7-0.1-1.5-0.4-2.2-0.3c-0.8,0.1-1.4,0.5-2.3,0.1c-0.7-0.3-1.6-0.1-2.3-0.4c-0.6-0.2-1.3-0.3-2,0c-0.8,0.3-1.5,0.2-2.3-0.3
		c-0.8-0.6-1.7-0.6-2.7-0.4c-0.9,0.2-1.8,0.3-2.8,0.4c-0.3,0-0.7-0.1-0.7-0.6c0.6-0.2,1.3,0.2,1.9-0.2c0.5-0.3,1.1-0.4,1.7-0.6
		c0.3-0.5,0-0.8-0.5-0.8c-1-0.1-2-0.2-3-0.1c-1,0.1-2,0.1-3-0.2c-0.4-0.1-0.8-0.1-1.3-0.1c0.1,0.5,0.1,0.8,0.1,1.2
		c-0.9,0-1.7,0-2.6,0c-0.6,0-1.1,0.1-1.6,0.6c-0.5,0.5-1.1,0.6-1.8,0.2c-0.6-0.4-1.3-0.6-2-0.9c-0.7,0.2-0.2,1.5-1.2,1.2
		c0-0.4-0.1-0.9-0.1-1.3c0-0.4,0.6-0.6,0-1.2c-0.2,0-0.5,0.1-0.8,0.2c-1.3,0.4-2.6,0.5-4,0.5c-1.4,0-1.5,0.1-1.3,1.7c0,0,0,0,0,0
		c0,0,0,0,0.1,0c0.2,0,0.4,0,0.6,0c0,0.1,0,0.2-0.1,0.2c-0.2-0.1-0.3-0.2-0.5-0.3c0,0-0.1,0-0.1,0c0,0,0,0,0,0
		c-0.2,0.1-0.4,0.3-0.7,0.4c-0.1-0.7-0.1-1.3-0.2-1.8c-0.7-0.4-1.2-0.8-2.1-0.3c-0.3,0.2-1-0.2-1.4-0.3c-0.7,1.3-0.7,1.3-0.7,2.8
		c-0.5-0.4-0.3-1-0.4-1.5c-0.1-0.9-0.6-1.2-1.4-0.9c-0.3,0.1-0.6,0.3-0.8,0.6c-0.4,0.4-0.7,0.1-1.1-0.1c0.1-0.2,0.1-0.4,0.2-0.6
		c-0.9,0-1.8-0.1-2.6-0.1c-0.4,0-0.8,0.2-1.1,0.4c-0.4,0.3-0.7,0.4-1.1,0.2c-0.6-0.3-0.6,0.4-0.9,0.6c-0.1,0-0.3,0-0.4,0
		c-1.4-0.6-1.6-0.5-2.2,0.9c-0.2,0.4-0.2,0.4-0.9,0.5c0-0.4,0-0.9,0-1.3c-0.7-0.5-1.4-0.3-2-0.2c-0.7,0.1-1.3,0.2-1.9-0.4
		c0.6-0.4,1.6,0,1.7-1.2c-0.2,0-0.5-0.2-0.7-0.1c-0.9,0.1-1.7,0.4-2.6,0.5c-1.1,0.2-2.2,0.2-3.4,0.1c-1.4-0.1-2.8-0.1-4.2-0.2
		c-1.5,0-3.1-0.1-4.6,0.2c-1,0.2-2,0.3-3,0.3c-0.2,0-0.6,0-0.7-0.1c-0.5-0.4-1-0.3-1.5-0.3c-1.5,0.2-3.1,0.3-4.6,0.5
		c-0.9,0.1-1.7,0.2-2.6,0c-0.6-0.1-1.3-0.1-2,0.1c-1.7,0.4-3.4,0.9-5,1.2c-0.5,0.1-0.7,0.9-1.3,0.7c-0.6-0.2-1,0.3-1.5,0.4
		c-0.6,0.2-1.3,0.3-2,0.4l0.1,0c-0.4,0.2-0.8,0.5-1.2,0.5c-0.7,0.1-1.2,0.3-1.9,0.5c-0.6,0.2-1.4,0.1-2.2,0.1
		c-0.7,0-1.3-0.1-1.8,0.5c-0.4,0.5-1.1-0.5-1.6,0.4c-0.3,0.6-1.1,0.2-1.7,0.3C360-3,359-3.5,357.9-4.6c-1.2,0.1-2.4,0-3.5-1.1
		c0.4-0.1,0.6-0.2,0.9-0.4c-0.3-0.8-0.3-0.8-1.6-1.3c-0.1,0.2-0.2,0.4-0.3,0.6c-1-0.1-2.1-0.5-3,0.4c-0.9,0-1.9,0.4-2.8,0
		c-0.7-0.3-1.3-0.3-1.9,0.1c-0.5,0.3-0.9,0.5-1.5,0.1c-0.1-0.1-0.3-0.1-0.4-0.1c-0.3,0.1-0.5,0.1-0.7,0.1v-1
		c-0.4,0.3-0.7,0.6-1.2,0.8c-0.4-0.2-0.8-0.4-1.2-0.8v1c-0.2,0-0.5,0-0.7-0.1c-0.1,0-0.3,0-0.4,0.1c-0.5,0.4-1,0.2-1.5-0.1
		c-0.6-0.4-1.2-0.4-1.9-0.1c-0.9,0.4-1.8,0.1-2.8,0c-0.9-0.9-1.9-0.5-3-0.4c-0.1-0.2-0.2-0.4-0.3-0.6c-1.4,0.5-1.3,0.5-1.6,1.3
		c0.3,0.1,0.5,0.2,0.9,0.4c-1.1,1-2.3,1.2-3.5,1.1c-1.1,1.1-2.1,1.6-3.4,1.5c-0.6,0-1.4,0.3-1.7-0.3c-0.5-0.8-1.2,0.1-1.6-0.4
		c-0.5-0.6-1.2-0.5-1.8-0.5c-0.7,0-1.5,0.2-2.2-0.1c-0.6-0.2-1.2-0.5-1.9-0.5c-0.4,0-0.8-0.4-1.2-0.5l0.1,0c-0.7-0.1-1.3-0.2-2-0.4
		c-0.5-0.1-0.9-0.6-1.5-0.4c-0.7,0.3-0.8-0.6-1.3-0.7c-1.7-0.3-3.4-0.8-5-1.2c-0.6-0.1-1.4-0.2-2-0.1c-0.9,0.2-1.7,0.1-2.6,0
		c-1.5-0.2-3.1-0.4-4.6-0.5c-0.5-0.1-1.1-0.1-1.5,0.3c-0.2,0.1-0.5,0.1-0.7,0.1c-1,0-2-0.1-3-0.3c-1.5-0.3-3-0.2-4.6-0.2
		c-1.4,0-2.8,0-4.2,0.2c-1.2,0.1-2.2,0.1-3.4-0.1c-0.9-0.2-1.7-0.4-2.6-0.5c-0.2,0-0.5,0.1-0.7,0.1c0,1.2,1.1,0.8,1.7,1.2
		c-0.6,0.6-1.3,0.5-1.9,0.4c-0.6-0.1-1.3-0.3-2,0.2c0,0.4,0,0.8,0,1.3c-0.8-0.1-0.8-0.1-0.9-0.5c-0.5-1.4-0.8-1.5-2.2-0.9
		c-0.1,0-0.3,0-0.4,0c-0.3-0.2-0.2-0.8-0.8-0.6c-0.4,0.2-0.7,0.1-1.1-0.2c-0.3-0.2-0.7-0.4-1.1-0.4c-0.9,0-1.7,0-2.6,0.1
		c0.1,0.2,0.1,0.4,0.2,0.6c-0.3,0.2-0.7,0.5-1.1,0.1c-0.2-0.2-0.5-0.5-0.8-0.6c-0.8-0.3-1.3,0-1.4,0.9c-0.1,0.5,0.1,1.1-0.4,1.5
		c0-1.5,0-1.5-0.7-2.8c-0.5,0.1-1.1,0.5-1.4,0.3c-0.8-0.4-1.4,0-2.1,0.3c-0.1,0.5-0.1,1.1-0.2,1.8c-0.3-0.2-0.5-0.3-0.7-0.4
		c0,0,0,0,0,0c0,0-0.1,0-0.1,0c-0.2,0.1-0.3,0.2-0.5,0.3c0-0.1,0-0.2-0.1-0.2c0.2,0,0.4,0,0.6,0c0,0,0.1,0,0.1,0c0,0,0,0,0,0
		c0.2-1.6,0.2-1.7-1.3-1.7c-1.3,0-2.7-0.2-4-0.5C247.3-9,247-9,246.8-9.1c-0.5,0.5,0.1,0.8,0,1.2c-0.1,0.4-0.1,0.8-0.1,1.3
		c-1,0.3-0.6-1-1.2-1.2c-0.6,0.3-1.3,0.5-2,0.9c-0.7,0.4-1.3,0.3-1.8-0.2c-0.5-0.5-1-0.6-1.6-0.6c-0.8,0-1.7,0-2.6,0
		c0-0.4,0.1-0.8,0.1-1.2c-0.5,0.1-0.9,0-1.3,0.1c-1,0.3-1.9,0.3-3,0.2c-1-0.1-2,0-3,0.1c-0.4,0-0.7,0.3-0.5,0.8
		c0.6,0.2,1.2,0.3,1.7,0.6c0.6,0.4,1.3,0,1.9,0.2c0,0.6-0.4,0.7-0.7,0.6c-0.9-0.1-1.8-0.3-2.8-0.4c-0.9-0.2-1.9-0.2-2.7,0.4
		c-0.7,0.6-1.5,0.6-2.3,0.3c-0.7-0.2-1.3-0.2-2,0c-0.8,0.3-1.7,0.1-2.3,0.4c-0.9,0.4-1.5,0-2.3-0.1c-0.7-0.1-1.4,0.2-2.2,0.3
		c-0.4,0.1-0.4,0.1-1.1-0.4c0.6-0.5,1.3-0.3,1.9-0.5c0.4-0.1,0.6-0.3,0.3-0.7c-0.7,0.1-1.4,0.2-2.1,0.3c-0.2-0.4-0.3-0.7-0.5-1
		c-1.4-0.1-2.7,0-3.4,1.4c0,0,0,0,0,0c0,0,0,0,0.1,0c0.2-0.1,0.4-0.2,0.6-0.2c0.1,0,0.2,0.1,0.2,0.2c-0.1,0-0.1,0.1-0.1,0.1
		c-0.2,0-0.5-0.1-0.7-0.1c0,0-0.1,0-0.1,0c0,0,0,0,0,0c-0.8,0.2-1.5,0.4-2.3,0.5c-0.8-0.5-1.5-0.9-2.3-1.3c-0.2,0.4-0.3,0.8-0.4,1.2
		c-0.7-0.2-1.3-0.5-1.9-0.7c-1-0.2-1.1-0.2-1.9-1c-0.1,0.3-0.3,0.6-0.4,0.9c-0.3,1.2-0.5,1.4-1.7,1.2c-0.8-0.1-1.7-0.3-2.5-0.4
		c0-0.3,0.1-0.6,0.1-0.9c-0.7,0.2-1.5,0.5-2.2,0.7c-0.9-0.1-1.1-0.8-1.5-1.4c-0.1-0.2-0.2-0.3-0.4-0.5c-0.6,0.1-1.1,0.2-1.7,0.3
		c0.2,0.7,0.3,1.2,0.5,1.9c-0.4-0.3-0.7-0.6-0.9-0.8c-1.2,0.5-2.4,0.6-3.6,0.4c-1-0.2-2-0.2-3-0.2c-1.1,0-2.3,0.1-3.3-0.5
		c-0.6-0.3-1.2-0.2-1.7,0.3c-0.2,0.2-0.4,0.2-0.7,0.3c-0.2-0.4-0.4-0.8-0.6-1.1c-0.9,0.3-0.9,0.3-2-0.1c-0.4-0.1-0.8-0.1-1.2-0.2
		c-0.4-0.1-0.8,0-1.2-0.2c-1.4-0.7-3.1-0.2-4.5-0.9c-1.8,0.3-3.5-0.3-5.2-0.4c-0.8,0-1.6,0-2.4,0.2c-1,0.2-1.6-0.7-2.5-0.6
		c-1.6,0.2-3.2,0-4.8-0.5c-0.1,0-0.3,0-0.5,0.1c0,0.7-0.3,1-1.1,0.9c-0.1-0.2-0.2-0.5-0.4-0.7c-1.3-0.1-2.6-0.3-3.9-0.4
		c-0.1,0.2-0.3,0.4-0.4,0.7c-0.1,0.2,0,0.4-0.1,0.7c0.9,0.2,1.9-0.3,2.7,0.5c-0.2,1.1-0.2,1.1,0.1,2.3c0,0.1-0.1,0.2-0.2,0.4
		c-0.4-0.1-0.9-0.1-1.3-0.2c0.3-0.7,0.2-1.2-0.3-1.5c-0.5-0.3-1.1-0.5-1.6-0.7l0,0c-0.8,0.5-1.1,1.1-0.8,2c0,0,0,0,0,0
		c0.1,0,0.2,0,0.3-0.1c-0.1,0-0.2,0-0.3,0.1c0,0,0,0,0,0c-0.5,0-1,0.1-1.4,0.1c-0.3-1.4-0.3-1.6,0.1-2.9c0.1-0.2,0-0.5,0-0.8
		c-0.2-0.6-0.6-0.8-1.2-0.9c-1.1-0.1-2.3-0.2-3.4-0.3c-0.5,0-0.9,0.2-1.4,0.3c-0.3,0.1-0.7,0-0.9,0.5c0.2,0.1,0.4,0.3,0.6,0.3
		c0.6-0.2,1,0.2,1.5,0.3c0.2,0,0.2,0.5,0.3,0.7c-0.7,0.4-1.3-0.6-2,0.1c0.8,0.7,1.6,1.3,2.7,1.5c0.9,0.1,1.9,0.1,2.6,1
		c-0.3,0.4-0.7,0.8-1,1.2c-0.2,0.2-0.7,0-0.7-0.4c0-0.2,0.1-0.4,0.2-0.5c-0.1-0.1-0.1-0.1-0.2-0.1c-1.1-0.4-1.1-0.4-1.7,0.8
		c-0.1,0.3-0.4,0.5-0.6,0.7c-1.3-0.5-1.3-0.5-1.7-2c-0.7,0-1.4,0-2-0.1c-0.3,0.4,0.1,1-0.7,1c-0.3-1.3-0.6-2.6-1.8-3.5
		c0.3-0.3,0.6-0.5,0.8-0.8c0.4-0.6,0.2-1.3-0.5-1.4c-0.7-0.1-1.5-0.2-2.2-0.3c-0.1,0-0.2,0.1-0.5,0.1c-0.1,0.3-0.2,0.7-0.4,1.1
		c0.4,0.2,0.7,0.5,1.1,0.7c-0.3,0.2-0.6,0.4-1.2,0.8c0.7,0.5,1.3,0.9,2.1,1.4c-0.9,0.4-1.5,0.6-2,0.8c-1.1-0.3-1.3-1.3-1.9-1.9
		c-0.6,0.2-1-0.1-1.4-0.4c-0.5-0.3-1.1-0.3-1.7-0.4c-0.2-0.5-0.3-0.9-0.5-1.3c-0.3,0.2-0.6,0.5-0.9,0.7c-0.3-0.2-0.6-0.4-1-0.7
		c0,1-0.2,1.9-1.5,1.7c-0.3-0.5-0.7-1-1.2-1.6c-0.7,0.4-1.8-0.5-2.4,0.8c0.3,0.3,0.7,0.6,1,0.9c0,0.5,0,0.9,0.1,1.4
		c-0.3,0.2-0.5,0.4-0.7,0.7c0,0,0,0,0,0.1c0.1,0,0.2,0.1,0.4,0.1c-0.1,0.1-0.1,0.1-0.2,0.2c-0.1-0.1-0.1-0.2-0.2-0.4
		c0,0-0.1,0-0.1,0c0,0,0,0,0,0c0,0,0,0,0,0c-0.8,0.6-1.9,0.6-2.5,1.6c-0.1,0.1-0.5,0.1-0.7,0.1c-0.3-0.1-0.6-0.3-0.8-0.5
		c-0.8,0.8-1.6,1.1-2.5,0.5c-0.2-0.1-0.5,0-0.8,0c0.9,0.7,0.8,1.4,0.3,2.2c-0.5-0.1-1-0.2-1.5-0.3c0,0.3,0,0.4,0,0.5
		c0,0.2-0.1,0.4-0.1,0.5c-1.3,0.6-1.9-0.4-2.6-1c-0.9,0.3-2-0.3-2.6,0.8c0,0.1-0.4,0-0.6,0c-0.1,0-1.9-1.6-1.9-1.6
		c0.8-0.1,1.6-0.2,2.4-0.4c0.3-0.1,0.6-0.4,0.3-0.8c-0.1,0-0.1-0.1-0.2-0.1c-1.3,0.3-2.6,0.5-3.8-0.5c-0.1-0.1-0.4-0.1-0.6-0.1
		c-2.1,0-4.3,0-6.4,0.1c0.1,0.2,0.2,0.3,0.2,0.4c0.1,0.1,0.2,0.3,0.3,0.4c-0.3,0.5-0.8,0.7-1.2,0.6c-1.8-0.4-3.6-1-5.5-0.9
		c-0.2,0-0.4-0.1-0.6-0.2C88.1-5.5,87.8-5.6,88-6c0.6,0,1.3,0.1,2.2,0.1c-0.5-0.4-0.8-0.7-1.1-0.9c0-0.3,0.6-0.5,0.2-0.9
		c-0.7-0.5-1.3,0-1.8,0.2c-0.4-0.2-0.8-0.4-1.2-0.5c-0.2,0.3-0.3,0.5-0.5,0.9c-0.3-0.5-0.6-0.9-0.8-1.2c-0.7,0-1.3,0-1.8,0.1
		c-0.1,0-0.2,0.2-0.2,0.3c0.2,0.2,0.4,0.3,0.6,0.5c-0.3,0-0.6,0-0.8,0.1c-1.1,0.3-2.1,0.5-3.3-0.1c-0.7-0.3-1.5-0.3-2.3-0.4
		c-1.1-0.2-2.2-0.1-3.6-0.2c0.2,0.4,0.3,0.7,0.5,0.8c0.6,0.4,1.3,0.7,1.9,1.1C76-6,76-5.8,76.1-5.7c0.1,0.7-0.4,0.9-1,1.1
		c-0.4-0.3-0.8-0.5-1.3-0.8c-0.2,0.6-0.6,0.8-1.2,0.9c-1.9,0.1-3.7,0.1-5.6-0.2c-0.7-0.1-1.3-0.2-2-0.2c-0.6-0.1-1.2,0-1.8-0.1
		c-0.5-0.2-1-0.5-1.5-0.8c-0.7,0.5-1.4,1-2.1,0.1c-0.2-0.2-0.7-0.3-1.1-0.3c-1.6,0-3.1-0.2-4.2-1.6c-0.2-0.3-0.7-0.3-1-0.4
		c0,0.1,0,0.1,0,0c-0.5,0.1-1,0.3-1.5,0.3c-0.9,0.1-1.7,0-2.6,0c-0.2,0-0.4,0.2-0.8,0.4c0.6,0.6,1,1.1,1.5,1.6
		c-0.8,0.2-1.5,0.6-2.2,0.6c-0.9,0-1.8-0.3-2.8-0.5c-0.6-1.3-1.9-1.6-3.3-1.7c-1,0-2-0.2-3-0.3c-0.2,0.3-0.3,0.5-0.5,0.9
		c-1.1-0.1-2.2-0.2-3.4-0.2c-1.2,0-1.2,0-2.2-0.6c-0.6,0.6-0.6,0.9-0.1,1.2C33-5.9,33.9-5.5,34.9-6c0.2-0.1,0.5-0.2,0.6,0.2
		c-0.2,0.1-0.3,0.2-0.5,0.3c-0.5,0.4-1.2,0.2-1.8,0.9c-0.4,0.5-1.3,0.3-1.9,1c-0.3,0.3-1,0.5-1.5,0.5c-1.6-0.1-3.2,0.2-4.8-0.5
		c-0.4-0.2-1-0.3-1.4-0.2c-0.9,0.2-1.5-0.2-2.2-0.7l0.1,0c-0.4,0-0.8,0-1.3,0c0-0.8-0.1-1.4-0.1-2.2c-0.7,0.3-1.2,0.3-1.2-0.5
		c0-0.1-0.4-0.3-0.5-0.4c-0.6,0.4,0,1.3-0.8,1.6c-0.2-0.2-0.5-0.4-0.7-0.7c0,0.5,0,0.9,0,1.2c0.8,0.2,1.5,0.4,2.3,0.6
		c-1.6,0.5-1.6,0.5-2.7,0.3c-0.3-0.1-0.7,0-1-0.1c-1.3-0.1-2.5-0.2-3.8-0.4c-0.1,0-0.3-0.2-0.5-0.3c0.9-0.8,1.9,0.4,2.8-0.4
		c-0.5-1.7-1.7-2.6-3.4-2.8c-0.8,0.3,0.4,1.5-0.7,1.5c-0.1-0.1-0.2-0.2-0.2-0.3c0-0.1,0.1-0.3,0-0.4C10-8.6,9.8-8.8,8.8-9
		C7.8-9.2,6.9-9.2,6-9.3C4.4-9.5,2.9-9.7,1.4-9.8c-1-0.1-2.1-0.1-3.1-0.1v3.4c0.4,0.2,0.9,0.3,1.4,0.1c0.5-0.1,1.2,0,1.6,0.7
		C0.9-5.4,0.7-5.2,0.5-5.2c-0.8,0.1-1.5,0-2.3,0v18.5c0.3-0.2,0.7-0.4,0.9-0.8c0.3-0.3,0.7-0.4,1.1-0.4c0.5,0,1.1-0.1,1.6,0
		c0.4,0,0.9,0.1,1.4,0.2c-0.2,0.3-0.3,0.5-0.5,0.8c0.3,0.3,0.5,0.5,0.8,0.8c1.5-1.3,1.5-1.3,3.3-1.2c3.3,0,6.6,0.1,9.8,0
		c2.1,0,4.1,0.2,6,1c0.3,0.1,0.6,0,1,0c0.1,0,0.2,0.1,0.3,0.2c0,0.2,0,0.5,0,0.7c0.6,0.2,0.9-0.1,1.2-0.5c0.4-0.8,1.1-1,2-0.8
		c1.1,0.2,2.3,0.5,3.4,0.2c0.2-0.1,0.5,0,0.8,0c0.3,0.4,0.6,0.8,0.9,1.2c0.2-0.4,0.5-0.4,0.8-0.3c0.3,0.1,0.4,0.3,0.3,0.6
		c-0.1,0.3-0.4,0.6,0,0.9c0.2,0.2,0.5-0.2,0.6-0.8c0.1-0.4,0.1-0.9,0.1-1.3c0.5,0,0.9-0.1,1.3,0c1.4,0.4,3-0.2,4.4,0.3
		c0.2,0.1,0.5,0,0.8-0.1c1.4-0.6,2.5-0.1,3.5,0.8c0.1,0.1,0.3,0.2,0.6,0.3c0.6-0.4,1.3-0.5,2.1-0.4c0.8,0.1,1.6-0.1,2.4-0.2
		c0.4,0,0.8-0.1,1.3-0.1c0.1,0.5,0.2,0.9,0.3,1.4c0.3-0.2,0.5-0.3,0.7-0.4c1.6,0.5,3.1,1,4.6,1.5c0.1-0.2,0.2-0.3,0.2-0.4
		c0.1-0.4,0-0.9,0.2-1.1c0.3-0.3,0.8-0.4,1.3-0.5c0.4-0.1,0.8,0.1,1.2,0.1c0.1,0,0.2-0.1,0.3-0.2c0.1-0.4-0.3-0.8,0.4-1.2
		c0.7,0.9,1.5,1.7,2.8,1.9c1.2,0.1,2.3,0.4,3.5-0.1c-0.4-0.3-0.6-0.6-0.2-0.9c0.7-0.6,1.4-1,2.3-1.1c0.6-0.1,1.2-0.2,1.7-0.5
		c1.5-1,3.1-0.8,4.7-0.7c0.7,0,1.3,0.2,1.6,1c0.1,0.2,0.3,0.4,0.5,0.3c0.9-0.3,1.5,0.4,2.3,0.5c0.9,0.1,1.8,0.4,2.7,0.6
		c0.7,0.9,1.8,0.4,2.6,0.8c0.2,0.1,0.3,0.5,0.6,0.3c0.1-0.2,0.3-0.4,0.3-0.5c0.9,0.6,1.7,1.3,2.5,1.8c0.8,0.5,1.6,0.3,2.2-0.4
		c0.3-0.4,0.5-0.8,0.8-1.2c1.3,0.2,2.6-0.8,3.9,0.1c0.2,0.1,0.5-0.1,0.8-0.1c1,0,2,0,2.9-0.5c0.4-0.2,1-0.2,1.6-0.2
		c0.9-0.1,1.1-0.2,1.2-1c0-0.2-0.1-0.4-0.1-0.6c0-0.1,0.1-0.2,0.1-0.4c0.3,0,0.6,0,1,0c0,0.5-0.1,1,0,1.5c0.1,0.6,0.4,0.6,0.9,0.2
		c0-0.4-0.1-0.9-0.1-1.3c0-0.5,0.3-0.9,0.8-1.1c0.5-0.2,0.7,0.1,1,0.5c0.1,0.2,0.4,0.3,0.5,0.4c1.4-0.4,2.2-1.7,3.7-1.9
		c0.2,0.2,0.5,0.4,0.7,0.6c0.2,0.2,0.5,0.4,0.7,0.6c1.3-1.1,1.3-1.1,2.2-0.5c0.2-0.2,0.4-0.5,0.6-0.6c0.5,0.1,1,0.1,1.4,0.2
		c0.2,0,0.5,0,0.6,0.1c1.2,1.2,2.7,0.9,4.1,0.8c0.9-0.1,1.7,0.1,2.6,0.1c0.4,0.8,1,1.5,2,1.6c0.7,0,0.7,0.7,0.9,1.2
		c1,0.2,2,0.4,3,0.5c0.7,0.1,1.3,0.2,1.5,1c0,0.2,0.3,0.5,0.5,0.6c0.8,0.2,1.5,0.7,2.3,0.4c0.1,0,0.2,0,0.3,0c-0.1,0-0.2,0-0.3,0
		c0.8,0.5,1.4,1.4,2.6,1.2c-0.2-0.5-0.5-0.8-0.5-1.2c0-0.6,0.6-0.4,0.9-0.4c0.1,0,0.2,0,0.2-0.1c0.3-0.8,1-0.7,1.7-0.7
		c0.7,0,1.5-0.1,2.1-0.5c0.6-0.4,1.2-0.5,1.8-0.7c1.3-0.3,2.5-0.1,3.7,0.1c0.5-0.6,1.2-0.5,1.8-0.3c1,0.2,1.9,0.5,3.1,0.8
		c0.4,0.8,0.9,1.4,2.1,1.1c0.3-0.1,0.7,0.1,0.9,0.3c0.4,0.5,0.9,0.5,1.4,0.6c0.4,0.1,0.7,0.3,1.1,0.4c0.3,1,0.1,2.2,1.5,2.4
		c0.1-0.3,0.2-0.5,0.2-0.7c1.1,0.5,2.1,0.9,3.1,1.4c0.5,0.2,3,0.4,3.5,0.3c0.1,0,0.1-0.1,0.2-0.1c0.3-0.1,0.4-0.5,0.1-0.8
		c-0.2-0.1-0.4-0.2-0.6-0.4c0.3-0.3,0.5-0.6,0.8-0.7c0.3-0.1,0.7,0.1,0.8-0.3c-0.1-0.3-0.2-0.5-0.4-0.8c0.9-0.5,1.4,0.5,2.2,0.6
		c0.2-0.2,0.6-0.4,0.9-0.6c0.3-0.1,0.7-0.3,1-0.2c0.9,0.1,1.8,0.3,2.7,0.6c0.2,0.1,0.4,0.4,0.6,0.6c0.6-0.5,1-1.1,1.6-1.4
		c0.6-0.3,1.4-0.4,2.1-0.5c-0.1-0.4-0.1-0.7-0.2-1c1.8-1.7,3.7-2.8,5.6-2.9c2,0,4-0.4,6-0.6c3.5-0.4,7-0.3,10.5,0.5
		c0.4,0.1,0.8,0.1,1.2,0.3c0.9,0.4,1.9,0.7,2.9,0.2c0.1-0.1,0.4,0,0.5,0.1c1.3,1.1,2.8,1.2,4.3,0.6c0.9-0.3,1.8-0.5,2.7,0.2
		c0.3,0.2,0.8,0.2,1.2,0.2c1.3,0.1,2.6,0,3.9,0.3c1,0.2,2.1,0.4,3.2,0c0.2-0.1,0.6-0.2,0.7-0.4c0.2-0.9,1-0.7,1.6-0.9
		c0.4-0.1,0.8,0.4,0.6,0.8c-0.1,0.3-0.3,0.5-0.5,0.8c0.7,0.3,1-0.2,1.3-0.5c0.4-0.3,0.8-0.8,1.4-0.7c1.3,0.1,2.4-0.5,3.2-1.3
		c1.2-1.2,2.6-1.3,4.1-1c1.1,0.2,2.2,0.6,3.3,0.4c0.3,0,0.7,0.1,1,0.2c1.1,0.5,2.2,1,3.4,1.5c0.2,0.4,0.4,0.8,0.6,1.4
		c0.5-0.2,0.9-0.4,1.4-0.7c0.6-0.3,1-0.3,1.2,0.2c0.3,0.8,0.9,0.9,1.6,0.9c0.3,0,0.5,0,0.8,0c0.8,0,1.5,0.2,2,0.8
		c0.1,0.1,0.3,0.2,0.6,0.3c0.1-0.4,0.2-0.7,0.4-1.1c0.5-0.2,1-0.4,1.5-0.6c0.9,0.3,1.8,0.6,2.3,0.8c1.5-0.4,2.7-0.7,3.9-1
		c0-0.2,0-0.5,0-0.7c0.5-0.1,0.9-0.2,1.3-0.3c0.3,0.4-0.1,1.1,0.6,1.2c0.4,0.1,0.6-0.3,0.6-0.9c0.5-0.2,1.1-0.7,1.6-0.6
		c0.9,0.2,1.7-0.3,2.6-0.3c0.7,0,1.4-0.4,2.2,0c-0.3,1.1-0.3,1.1,0.5,1.6c0.3-0.5,0.6-1,1-1.4c1,0.3,2.1,0.2,2.8,1.1
		c0.1,0.1,0.4,0.1,0.6,0.2c0.9,0.2,1.7,0.2,2.6,0.1c1.2-0.1,2.5-0.5,3.7,0.3c0.1,0.1,0.4,0.1,0.6,0.1c2-0.4,4-0.1,6,0.2
		c1.2,0.1,2.2,0.6,3.2,1.4c0.7-0.6,1.4-0.3,2.2,0c0.7,0.2,1.4,0.3,2.1,0.5c0.3-0.4,0.6-1,1.1-0.7c0.8,0.5,1.7,0.1,2.6,0.3
		c0.9,0.2,1.8,0.4,2.7,0.7c0.1,0,0.3,0,0.4,0c0.8-0.3,1.1,0.4,1.5,0.8c0.4-0.4,0.7-0.9,1.1-1c0.7-0.2,1.5-0.3,2.2-0.2
		c0.7,0.1,1.3-0.1,2-0.2c1-0.2,2-0.4,2.9-0.7c1.4-0.5,2.5-0.1,3.5,0.8c0.2,0.2,0.4,0.3,0.7,0.3c1.5,0.3,3,0.5,4.4,1.2
		c0.2,0.1,0.4,0.1,0.6,0.1c0.8-0.2,1.5,0.1,2.1,0.4c0.7,0.3,1.4,0.2,2.1-0.1c1.4-0.8,2.8-1.5,4.2-2.3c0.5-0.2,0.9-0.6,1.4-0.7
		c1.4-0.3,2.7-0.6,4.1-0.9c1.9-0.4,3.8-0.9,5.8-0.4c0.4,0.1,0.9,0,1.4-0.1c0.2,0,0.4-0.1,0.5-0.3c0.4-0.7,1-0.8,1.7-0.8
		c1.1,0,2.1,0.1,3.2,0.1c0.6,0,1.1,0.1,1.5,0.4v0.5c0.2,0,0.4,0,0.6,0c0,0,0,0,0,0c0.2,0,0.3,0,0.5,0c0.2,0,0.3,0,0.5,0c0,0,0,0,0,0
		c0.2,0,0.4,0,0.6,0v-0.5c0.4-0.2,0.9-0.4,1.5-0.4c1.1,0,2.1-0.1,3.2-0.1c0.7,0,1.3,0.1,1.7,0.8c0.1,0.1,0.3,0.3,0.5,0.3
		c0.5,0.1,0.9,0.2,1.4,0.1c2-0.5,3.9,0,5.8,0.4c1.4,0.3,2.7,0.6,4.1,0.9c0.5,0.1,1,0.4,1.4,0.7c1.4,0.8,2.8,1.5,4.2,2.3
		c0.7,0.4,1.4,0.5,2.1,0.1c0.7-0.3,1.3-0.6,2.1-0.4c0.2,0,0.4,0,0.6-0.1c1.4-0.7,2.9-1,4.4-1.2c0.2,0,0.5-0.2,0.7-0.3
		c1-0.9,2.1-1.3,3.5-0.8c0.9,0.3,1.9,0.6,2.9,0.7c0.6,0.1,1.3,0.3,2,0.2c0.7-0.1,1.5,0,2.2,0.2c0.4,0.1,0.7,0.6,1.1,1
		c0.4-0.4,0.8-1.1,1.5-0.8c0.1,0,0.3,0,0.4,0c0.9-0.2,1.8-0.4,2.7-0.7c0.8-0.2,1.7,0.2,2.6-0.3c0.5-0.3,0.8,0.2,1.1,0.7
		c0.7-0.1,1.4-0.2,2.1-0.5c0.8-0.3,1.5-0.6,2.2,0c1-0.9,2-1.3,3.2-1.4c2-0.2,4-0.6,6-0.2c0.2,0,0.4,0,0.6-0.1
		c1.2-0.8,2.5-0.3,3.7-0.3c0.9,0.1,1.7,0,2.6-0.1c0.2,0,0.5,0,0.6-0.2c0.7-0.9,1.8-0.8,2.8-1.1c0.3,0.5,0.7,1,1,1.4
		c0.8-0.5,0.8-0.5,0.5-1.6c0.7-0.3,1.4,0,2.2,0c0.9,0,1.6,0.5,2.6,0.3c0.5-0.1,1.1,0.4,1.7,0.6c0,0.7,0.3,1,0.6,0.9
		c0.7-0.1,0.3-0.8,0.6-1.2c0.4,0.1,0.9,0.2,1.3,0.3c0,0.2,0,0.5,0,0.7c1.2,0.3,2.4,0.6,3.9,1c0.6-0.2,1.4-0.5,2.3-0.8
		c0.5,0.2,1,0.4,1.5,0.6c0.1,0.3,0.2,0.7,0.3,1.1c0.3-0.1,0.5-0.2,0.6-0.3c0.5-0.7,1.2-0.8,2-0.8c0.3,0,0.5,0,0.8,0
		c0.7,0,1.3-0.1,1.6-0.9c0.2-0.5,0.6-0.5,1.2-0.2c0.4,0.2,0.9,0.4,1.4,0.7c0.2-0.5,0.5-1,0.6-1.4c1.2-0.5,2.3-1,3.4-1.5
		c0.3-0.1,0.7-0.3,1-0.2c1.2,0.1,2.2-0.2,3.3-0.4c1.5-0.3,2.9-0.1,4.1,1c0.8,0.8,1.9,1.4,3.2,1.3c0.6-0.1,1,0.3,1.4,0.7
		c0.3,0.3,0.6,0.7,1.3,0.5c-0.2-0.3-0.4-0.5-0.5-0.8c-0.2-0.4,0.2-0.9,0.6-0.8c0.6,0.2,1.4,0,1.6,0.9c0,0.2,0.4,0.3,0.7,0.4
		c1.1,0.4,2.2,0.2,3.2,0c1.3-0.2,2.6-0.2,3.9-0.3c0.4,0,0.9,0,1.2-0.2c0.9-0.7,1.8-0.5,2.7-0.2c1.6,0.6,3,0.5,4.3-0.6
		c0.1-0.1,0.4-0.2,0.5-0.1c1,0.5,2,0.1,2.9-0.2c0.4-0.2,0.8-0.2,1.2-0.3c3.5-0.8,7-0.9,10.5-0.5c2,0.2,4,0.6,6,0.6
		c1.9,0,3.9,1.1,5.6,2.9c-0.1,0.3-0.1,0.6-0.2,1c0.7,0.2,1.5,0.2,2.1,0.5c0.6,0.3,1,0.8,1.6,1.4c0.2-0.2,0.4-0.5,0.6-0.6
		c0.9-0.2,1.8-0.4,2.7-0.6c0.3,0,0.7,0.1,1,0.2c0.4,0.2,0.7,0.4,0.9,0.6c0.8-0.1,1.3-1.1,2.2-0.6c-0.1,0.3-0.2,0.5-0.4,0.8
		c0.1,0.5,0.5,0.3,0.8,0.3c0.3,0.1,0.5,0.4,0.8,0.7c-0.3,0.1-0.5,0.2-0.6,0.4c-0.3,0.3-0.3,0.7,0.1,0.8c0.1,0,0.1,0.1,0.2,0.1
		c0.5,0.1,3-0.1,3.5-0.3c1-0.5,2.1-0.9,3.1-1.4c0.1,0.2,0.1,0.4,0.2,0.7c1.4-0.2,1.2-1.5,1.5-2.4c0.4-0.1,0.7-0.4,1.1-0.4
		c0.5-0.1,1-0.1,1.4-0.6c0.2-0.2,0.7-0.4,0.9-0.3c1.2,0.4,1.7-0.3,2.1-1.1c1.1-0.3,2.1-0.5,3.1-0.8c0.6-0.2,1.3-0.3,1.8,0.3
		c1.2-0.2,2.5-0.4,3.7-0.1c0.6,0.2,1.2,0.3,1.8,0.7c0.6,0.4,1.4,0.5,2.1,0.5c0.7,0,1.3-0.1,1.7,0.7c0,0,0.1,0.1,0.2,0.1
		c0.4,0,0.9-0.2,0.9,0.4c0,0.3-0.3,0.7-0.5,1.2c1.2,0.2,1.8-0.7,2.6-1.2c-0.1,0-0.2,0-0.3,0c0.1,0,0.2,0,0.3,0
		c0.8,0.3,1.6-0.2,2.3-0.4c0.2,0,0.5-0.4,0.5-0.6c0.2-0.9,0.7-1,1.5-1c1-0.1,2-0.3,3-0.5c0.2-0.5,0.2-1.2,0.9-1.2
		c1-0.1,1.5-0.7,2-1.6c0.9,0,1.8-0.2,2.6-0.1c1.5,0.1,2.9,0.4,4.1-0.8c0.1-0.1,0.4,0,0.6-0.1c0.5-0.1,0.9-0.1,1.4-0.2
		c0.2,0.2,0.4,0.4,0.6,0.6c0.9-0.6,0.9-0.6,2.2,0.5c0.2-0.2,0.5-0.4,0.7-0.6c0.3-0.2,0.5-0.4,0.7-0.6c1.5,0.2,2.2,1.5,3.6,1.9
		c0.1-0.1,0.4-0.2,0.5-0.4c0.2-0.4,0.5-0.7,1-0.5c0.5,0.2,0.7,0.6,0.7,1.1c0,0.5-0.1,0.9-0.1,1.3c0.5,0.4,0.8,0.4,0.9-0.2
		c0.1-0.4,0-0.9,0-1.5c0.4,0,0.7,0,1,0c0,0.1,0.1,0.3,0.1,0.4c0,0.2-0.1,0.4-0.1,0.6c0.1,0.8,0.3,1,1.2,1c0.5,0,1.1,0,1.6,0.2
		c0.9,0.5,1.9,0.5,2.9,0.5c0.3,0,0.6,0.2,0.8,0.1c1.3-1,2.6,0.1,3.9-0.1c0.3,0.4,0.5,0.8,0.8,1.2c0.6,0.7,1.4,0.9,2.2,0.4
		c0.8-0.5,1.6-1.1,2.5-1.8c0.1,0.1,0.2,0.3,0.3,0.5c0.4,0.2,0.4-0.2,0.6-0.3c0.8-0.4,1.9,0.1,2.6-0.8c0.9-0.2,1.8-0.5,2.7-0.6
		c0.8-0.1,1.4-0.7,2.3-0.5c0.1,0,0.4-0.2,0.5-0.3c0.3-0.7,1-0.9,1.6-1c1.6-0.1,3.2-0.2,4.7,0.7c0.5,0.3,1.1,0.4,1.7,0.5
		c0.9,0.2,1.7,0.5,2.3,1.1c0.3,0.3,0.2,0.6-0.2,0.9c1.3,0.5,2.4,0.2,3.5,0.1c1.3-0.1,2.1-0.9,2.8-1.9c0.7,0.4,0.3,0.9,0.4,1.2
		c0.1,0.1,0.2,0.2,0.3,0.2c0.4,0,0.8-0.2,1.2-0.1c0.4,0.1,1,0.2,1.3,0.5c0.2,0.2,0.1,0.7,0.2,1.1c0,0.1,0.1,0.2,0.2,0.4
		c1.5-0.5,3-1,4.6-1.5c0.2,0.1,0.4,0.2,0.7,0.4c0.1-0.4,0.2-0.9,0.3-1.4c0.5,0.1,0.9,0.1,1.3,0.1c0.8,0.1,1.6,0.3,2.4,0.2
		c0.8-0.1,1.5,0,2.1,0.4c0.2-0.1,0.4-0.2,0.6-0.3c1-0.9,2.1-1.4,3.5-0.8c0.2,0.1,0.6,0.2,0.8,0.1c1.4-0.6,2.9,0,4.4-0.3
		c0.4-0.1,0.8,0,1.3,0c0,0.4,0.1,0.9,0.1,1.3c0.1,0.6,0.4,1,0.6,0.8c0.4-0.3,0.1-0.6,0-0.9c-0.1-0.3,0-0.5,0.3-0.6
		c0.3-0.1,0.6-0.1,0.8,0.3c0.3-0.4,0.6-0.7,0.9-1.2c0.3,0,0.5,0,0.8,0c1.2,0.3,2.3,0.1,3.4-0.2c0.9-0.2,1.6,0,2,0.8
		c0.2,0.5,0.6,0.7,1.2,0.5c0-0.2,0-0.5,0-0.7c0.1-0.1,0.2-0.2,0.3-0.2c0.3,0,0.7,0.1,1,0c1.9-0.8,3.9-1,6-1c3.3,0.1,6.6,0,9.8,0
		c1.8,0,1.8,0,3.3,1.2c0.3-0.3,0.5-0.5,0.8-0.8c-0.1-0.2-0.3-0.4-0.5-0.8c0.6-0.1,1-0.2,1.4-0.2c0.5,0,1.1,0.1,1.6,0
		c0.4,0,0.8,0,1.1,0.4c0.3,0.3,0.6,0.6,0.9,0.8V-5.2c-0.8,0.1-1.5,0.1-2.3,0c-0.2,0-0.4-0.2-0.7-0.4C683.2-6.3,683.9-6.4,684.4-6.3z
		 M685.3-8.5c0.1,0,0.3,0,0.3,0.1c0.1,0.2,0.1,0.5,0.2,0.7c-0.1,0-0.2,0-0.3,0.1c-0.1-0.2-0.2-0.3-0.3-0.5
		C685.2-8.2,685.2-8.4,685.3-8.5z M672.2-7.1c-0.1-0.1-0.2-0.1-0.2-0.2c0,0,0.1-0.1,0.1-0.1c0.1,0,0.2,0,0.2,0
		C672.2-7.3,672.2-7.2,672.2-7.1z M539.5-8.7c0.3-0.1,0.6-0.2,1-0.4c-0.1,0.6-0.4,0.7-0.7,0.8c-0.1,0-0.3-0.1-0.5-0.2
		C539.4-8.5,539.4-8.7,539.5-8.7z M144.2-8.2c-0.3-0.1-0.6-0.3-0.7-0.8c0.4,0.1,0.7,0.2,1,0.4c0.1,0,0.1,0.2,0.1,0.3
		C144.5-8.3,144.4-8.2,144.2-8.2z M12-7.5c0,0,0.1,0.1,0.1,0.1c-0.1,0.1-0.1,0.1-0.2,0.2c0-0.1,0-0.2,0-0.3
		C11.8-7.4,11.9-7.4,12-7.5z M-1.4-7.6c-0.1,0-0.2,0-0.3-0.1c0.1-0.2,0.1-0.5,0.2-0.7c0-0.1,0.3-0.1,0.3-0.1
		c0.1,0.1,0.1,0.2,0.1,0.3C-1.2-7.9-1.3-7.8-1.4-7.6z M3.9-5.5c0.8-0.4,0.8-0.4,2,0.1C5.2-5,4.6-5.2,3.9-5.5z M8.1-5.3
		C8.1-5.8,8.4-5.8,8.6-5.8C9-5.6,9.6-5.8,10-5.2C9.3-5.2,8.7-5.3,8.1-5.3z M26.4-1.6c0-0.1,0-0.1,0-0.2c0.8,0,1.7-0.1,2.5-0.1
		c0,0.1,0,0.1,0.1,0.2C28-1.6,27.2-1.6,26.4-1.6z M60.9,14.4l0.1-0.1l0,0.1L60.9,14.4z M62.3,14.8l0-0.1l0.1,0.1L62.3,14.8z
		 M83.6-4.6c-0.3,0.2-0.7,0.6-1,0.5c-1.3-0.3-2.6-0.2-3.9-0.3c-0.7-0.1-1.1-0.6-0.9-1.2c0.1-0.2,0.3-0.4,0.5-0.5
		c0.2-0.1,0.4,0,0.6,0.1c0.9,0.1,1.8,0.1,2.8,0.2c0.5,0,1.1,0.1,1.6,0.2c0.3,0,0.5,0.2,0.6,0.3C83.7-5,83.7-4.7,83.6-4.6z M84.6-4.5
		c0-0.4,0.1-0.7,0.1-1.1c0-0.4,0-0.8,0-1.4C85-6.4,85.2-6,85.5-5.7c0.3,0.4,0.6,0.7,0.9,1C85.6-4.2,85.6-4.2,84.6-4.5z M87.3-4.4
		c0-0.1,0-0.1,0-0.2c0.1,0,0.1-0.1,0.2-0.1c0,0,0.1,0.1,0.1,0.1C87.5-4.5,87.4-4.5,87.3-4.4z M88.7,15.4l-0.1-0.1l0.2-0.1L88.7,15.4
		z M93,13.6l0.1-0.1v0.1L93,13.6z M99.8-3.5c0.1-0.4,0.1-0.7,0.2-1.1c0.7,0.3,1.2,0.5,1.8,1.2C101-3.5,100.5-3.5,99.8-3.5z
		 M115.7,9.2c-0.2,0-0.5,0-0.7,0c0-0.1,0-0.2,0-0.2c0.2,0,0.4-0.1,0.7-0.1c0.1,0,0.1,0.2,0.2,0.3C115.8,9.1,115.7,9.2,115.7,9.2z
		 M121.9-7.3c-0.1-0.1-0.3-0.2-0.4-0.3c0,0,0.1-0.2,0.2-0.4c0.1,0.1,0.3,0.2,0.4,0.4C122.1-7.5,122-7.4,121.9-7.3z M128.1-7.5
		c0,0-0.1-0.1-0.1-0.1c0,0,0.1,0,0.1,0c0,0,0.1,0.1,0.1,0.1C128.2-7.5,128.2-7.5,128.1-7.5z M133.9-6.4c0-0.1-0.1-0.1-0.1-0.2
		c0.1,0,0.1,0,0.2,0c0,0,0.1,0.1,0.1,0.1C134-6.5,134-6.4,133.9-6.4z M149.9-4.8l0.1,0.1l-0.2,0L149.9-4.8z M149.3,13.6
		c-0.6-0.1-1.3-0.3-1.9-0.4c0-0.1,0.1-0.2,0.1-0.3c0.7,0,1.3-0.1,2,0c0.2,0,0.5,0.3,0.5,0.5C149.9,13.7,149.5,13.6,149.3,13.6z
		 M150,15.9l0.1-0.1v0.1L150,15.9z M153.1-5.2c0,0,0-0.1,0-0.1c0.1,0,0.1,0.1,0.2,0.1C153.2-5.2,153.1-5.2,153.1-5.2z M155.4,14.1
		c-0.1,0-0.2-0.1-0.3-0.1c0-0.1,0.1-0.2,0.1-0.3c0.1,0,0.3,0.1,0.3,0.1C155.5,13.9,155.4,14,155.4,14.1z M159.7,19.7
		c-0.1-0.1-0.2-0.1-0.3-0.2c0.1-0.1,0.2-0.2,0.3-0.2c0.1,0,0.2,0.1,0.3,0.1C159.9,19.6,159.8,19.6,159.7,19.7z M163.9-6.6
		c0-0.1-0.1-0.2-0.1-0.3c0-0.1,0.2-0.1,0.2-0.1c0,0.1,0.1,0.1,0.1,0.2C164.1-6.8,164-6.7,163.9-6.6z M167.3-5.9
		c-0.2,0.2-0.5,0.2-0.7,0c-0.1-0.1,0-0.2,0-0.3c0.2,0,0.4-0.1,0.5,0c0.1,0,0.2,0.2,0.3,0.2C167.3-6,167.3-6,167.3-5.9z M167.7-4.8
		c0,0-0.1-0.1-0.1-0.1c0.1,0,0.2,0,0.3,0c0,0,0.1,0.1,0.1,0.1C167.9-4.8,167.8-4.8,167.7-4.8z M168.2,17.1c0-0.1,0-0.2,0-0.3
		c0,0,0.1,0,0.2,0c0,0.1,0,0.2,0,0.3C168.3,17.1,168.2,17.1,168.2,17.1z M171.3,18c0,0-0.1-0.1-0.1-0.1c0,0,0.1-0.1,0.1-0.1
		c0,0.1,0.1,0.1,0.1,0.2C171.4,18,171.4,18,171.3,18z M171.5-5.1c-0.2-0.1-0.5-0.1-0.7-0.3c-0.1-0.1-0.2-0.3-0.3-0.6
		c0.3-0.2,0.6-0.3,0.9-0.4c0.1,0.3,0.3,0.4,0.3,0.6C171.7-5.6,171.6-5.3,171.5-5.1z M181.5,8.2c-0.1,0-0.1-0.2-0.2-0.3
		c0.2,0,0.3-0.1,0.5,0c0.1,0,0.1,0.2,0.2,0.4C181.9,8.2,181.7,8.2,181.5,8.2z M185.1,11l0-0.1l0.1,0.1L185.1,11z M215.4,13.9
		c0-0.1,0-0.1,0-0.2c0.4,0,0.7-0.1,1.1-0.1c0,0.1,0,0.2,0,0.3C216.2,13.9,215.8,13.9,215.4,13.9z M260.1-5.2
		c-0.5-0.7-0.8-1.3-0.9-2.2c1,0,1.3,0.6,1.6,1.2C260.7-5.9,260.4-5.6,260.1-5.2z M262.8-5.9c0.4,0,0.7,0.1,1.1,0.1
		C263.5-5.4,263.2-5.5,262.8-5.9z M267.2,14.1c-0.1-0.1-0.2-0.1-0.2-0.2c0,0,0.1-0.1,0.1-0.1c0.1,0.1,0.2,0.1,0.2,0.2
		C267.3,14,267.2,14.1,267.2,14.1z M268.4-5.9c-0.2,0-0.4-0.1-0.5-0.2c0,0,0-0.2,0-0.3c0.2,0,0.4,0.1,0.7,0.2
		C268.5-6.1,268.4-5.9,268.4-5.9z M270.7,12.4l0.1-0.1l0.1,0.1L270.7,12.4z M273-6.1c0,0-0.1,0-0.1,0c0-0.1,0-0.2,0-0.2
		c0,0,0.1,0,0.1,0.1C273-6.2,273-6.1,273-6.1z M332.2-3c0-0.1,0-0.2,0-0.3c0,0,0.1,0,0.2,0c0,0.1,0,0.2,0,0.3
		C332.3-3.1,332.2-3.1,332.2-3z M332.5-4.3c0,0-0.1-0.1-0.1-0.1c0.1,0,0.1,0,0.2-0.1c0.1,0,0.1,0.1,0.2,0.1
		C332.6-4.4,332.6-4.4,332.5-4.3z M351.6-4.3c-0.1,0-0.1-0.1-0.2-0.1c0.1,0,0.1-0.1,0.2-0.1c0.1,0,0.1,0,0.2,0.1
		C351.7-4.4,351.6-4.3,351.6-4.3z M351.9-3c-0.1,0-0.2,0-0.2,0c0-0.1,0-0.2,0-0.3c0.1,0,0.2,0,0.2,0C351.9-3.3,351.9-3.2,351.9-3z
		 M411.1-6.1c0,0,0-0.1,0-0.1c0,0,0.1-0.1,0.1-0.1c0,0.1,0,0.2,0,0.2C411.2-6.1,411.2-6.1,411.1-6.1z M413.2,12.5l0.1-0.1l0.1,0.1
		L413.2,12.5z M416.2-6.1c-0.1,0.1-0.3,0.2-0.5,0.2c0,0-0.1-0.2-0.2-0.3c0.3-0.1,0.5-0.1,0.7-0.2C416.2-6.3,416.2-6.1,416.2-6.1z
		 M416.9,14.1c0-0.1-0.1-0.1-0.1-0.1c0.1-0.1,0.2-0.1,0.2-0.2c0,0.1,0.1,0.1,0.1,0.1C417,14,417,14.1,416.9,14.1z M420.1-5.8
		c0.4,0,0.7-0.1,1.2-0.1C420.9-5.5,420.6-5.4,420.1-5.8z M423.9-5.2c-0.3-0.4-0.5-0.7-0.8-1c0.4-0.6,0.6-1.2,1.6-1.2
		C424.7-6.5,424.4-5.9,423.9-5.2z M468.6,13.9c-0.4,0-0.7,0-1.1,0c0-0.1,0-0.2,0-0.3c0.4,0,0.7,0.1,1.1,0.1
		C468.6,13.8,468.6,13.9,468.6,13.9z M498.8,10.9l0.1-0.1l0,0.1L498.8,10.9z M502.5,8.2c-0.1,0.1-0.3,0-0.5,0
		c0.1-0.2,0.1-0.3,0.2-0.4c0.2,0,0.3,0,0.5,0C502.6,8,502.6,8.1,502.5,8.2z M512.7,18c-0.1,0-0.1,0-0.2,0c0-0.1,0.1-0.1,0.1-0.2
		c0,0,0.1,0.1,0.1,0.1C512.8,17.9,512.8,18,512.7,18z M513.2-5.4c-0.2,0.1-0.4,0.2-0.7,0.3c-0.1-0.2-0.2-0.5-0.2-0.7
		c0-0.2,0.1-0.3,0.3-0.6c0.3,0.2,0.6,0.3,0.9,0.4C513.4-5.7,513.3-5.5,513.2-5.4z M515.9,17.1c-0.1,0-0.2,0-0.2,0c0-0.1,0-0.2,0-0.3
		c0.1,0,0.2,0,0.2,0C515.9,16.9,515.9,17,515.9,17.1z M516.4-4.8c-0.1,0-0.2,0-0.3,0c0-0.1,0.1-0.1,0.1-0.1c0.1,0,0.2,0,0.3,0
		C516.5-4.9,516.4-4.8,516.4-4.8z M517.5-6c-0.2,0.2-0.4,0.2-0.7,0c0,0-0.1-0.1-0.1-0.2c0.1-0.1,0.2-0.2,0.3-0.2c0.2,0,0.4,0,0.5,0
		C517.5-6.2,517.5-6,517.5-6z M520.1-6.6c-0.1-0.1-0.2-0.2-0.2-0.3c0,0,0-0.1,0.1-0.2c0.1,0,0.2,0.1,0.2,0.1
		C520.2-6.8,520.2-6.7,520.1-6.6z M524.4,19.7c-0.1-0.1-0.2-0.1-0.2-0.2c0.1,0,0.2-0.1,0.3-0.1c0.1,0,0.2,0.1,0.3,0.2
		C524.6,19.6,524.5,19.7,524.4,19.7z M528.7,14.1c0-0.1-0.1-0.2-0.1-0.3c0-0.1,0.2-0.1,0.3-0.1c0,0.1,0.1,0.2,0.1,0.3
		C528.9,14,528.8,14,528.7,14.1z M531-5.2c-0.1,0-0.1,0-0.2,0c0.1-0.1,0.2-0.1,0.2-0.1C531-5.3,531-5.2,531-5.2z M534.1-4.8l0,0.1
		l-0.2,0L534.1-4.8z M533.9,15.9v-0.1l0.1,0.1L533.9,15.9z M534.8,13.6c-0.2,0-0.6,0.2-0.6-0.3c0-0.2,0.3-0.5,0.5-0.5
		c0.7,0,1.3,0,2,0c0,0.1,0,0.2,0.1,0.3C536,13.3,535.4,13.5,534.8,13.6z M550.2-6.4c0,0-0.1-0.1-0.1-0.1c0,0,0-0.1,0.1-0.1
		c0,0,0.1,0,0.1,0C550.2-6.5,550.2-6.5,550.2-6.4z M555.9-7.5c0,0-0.1,0-0.2,0c0,0,0-0.1,0.1-0.1c0,0,0.1,0,0.1,0
		C556-7.6,556-7.5,555.9-7.5z M562.2-7.3c-0.1-0.1-0.2-0.3-0.1-0.3c0.1-0.2,0.2-0.3,0.4-0.4c0.1,0.2,0.2,0.3,0.2,0.4
		C562.5-7.5,562.3-7.4,562.2-7.3z M569.1,9.1c-0.2,0-0.5,0-0.7,0c0,0-0.1-0.1-0.1-0.1c0-0.1,0.1-0.3,0.2-0.3c0.2,0,0.4,0.1,0.7,0.1
		C569.1,9,569.1,9.1,569.1,9.1z M582.3-3.4c0.6-0.7,1.2-0.9,1.8-1.2c0.1,0.5,0.1,0.7,0.2,1.1C583.6-3.5,583.1-3.5,582.3-3.4z
		 M590.9,13.6v-0.1l0.1,0.1L590.9,13.6z M595.4,15.4l0-0.1l0.2,0.1L595.4,15.4z M596.7-4.4c-0.1,0-0.2-0.1-0.3-0.1
		c0,0,0.1-0.1,0.1-0.1c0,0,0.1,0,0.2,0.1C596.7-4.6,596.7-4.5,596.7-4.4z M597.8-4.6c0.3-0.4,0.6-0.7,0.9-1c0.3-0.4,0.5-0.7,0.8-1.3
		c0,0.6-0.1,1,0,1.4c0,0.4,0.1,0.7,0.1,1.1C598.5-4.2,598.5-4.2,597.8-4.6z M605.4-4.4c-1.3,0.1-2.6-0.1-3.9,0.3
		c-0.3,0.1-0.7-0.3-1-0.5c-0.1-0.1-0.1-0.3-0.3-0.8c0.2-0.1,0.4-0.3,0.6-0.3c0.5-0.1,1-0.1,1.6-0.2c0.9-0.1,1.8-0.1,2.8-0.2
		c0.2,0,0.4-0.1,0.6-0.1c0.2,0.1,0.5,0.3,0.5,0.5C606.5-4.9,606.1-4.4,605.4-4.4z M621.8,14.8l-0.1-0.1l0.1-0.1L621.8,14.8z
		 M623,14.4l0-0.1l0.1,0.1L623,14.4z M657.7-1.6c-0.8,0-1.7-0.1-2.5-0.1c0-0.1,0-0.1,0-0.2c0.8,0,1.7,0.1,2.5,0.1
		C657.7-1.7,657.7-1.6,657.7-1.6z M674.1-5.2c0.4-0.6,0.9-0.5,1.3-0.6c0.2-0.1,0.5,0,0.5,0.5C675.4-5.3,674.8-5.2,674.1-5.2z
		 M678.2-5.4c1.2-0.5,1.2-0.5,2-0.1C679.5-5.2,678.9-5,678.2-5.4z"/>
	<path id="XMLID_19_" class="st0" d="M485.9-6.7C485.9-6.7,485.9-6.7,485.9-6.7C485.9-6.7,485.9-6.7,485.9-6.7L485.9-6.7z"/>
</g>
</svg>
