<?xml version="1.0" encoding="utf-8"?>
<!-- Generator: Adobe Illustrator 16.0.3, SVG Export Plug-In . SVG Version: 6.00 Build 0)  -->
<!DOCTYPE svg PUBLIC "-//W3C//DTD SVG 1.1//EN" "http://www.w3.org/Graphics/SVG/1.1/DTD/svg11.dtd">
<svg version="1.1" id="Capa_3" xmlns="http://www.w3.org/2000/svg" xmlns:xlink="http://www.w3.org/1999/xlink" x="0px" y="0px"
	 width="400px" height="275px" viewBox="0 62.5 400 275" enable-background="new 0 62.5 400 275" xml:space="preserve">
<g>
	<g>
		<path d="M383,89c-10.85-19.3-22.625-22.85-46.6-24.2c-23.95-1.625-84.176-2.3-136.351-2.3c-52.275,0-112.525,0.675-136.45,2.275
			C39.675,66.15,27.875,69.675,16.925,89C5.75,108.275,0,141.475,0,199.925C0,199.975,0,200,0,200c0,0.05,0,0.075,0,0.075v0.05
			c0,58.2,5.75,91.65,16.925,110.725c10.95,19.301,22.725,22.801,46.65,24.426c23.95,1.399,84.2,2.225,136.475,2.225
			c52.175,0,112.4-0.825,136.375-2.2c23.976-1.625,35.75-5.125,46.601-24.425C394.3,291.8,400,258.35,400,200.15
			c0,0,0-0.075,0-0.125c0,0,0-0.05,0-0.075C400,141.475,394.3,108.275,383,89z M150,275V125l125,75L150,275z"/>
	</g>
</g>
</svg>
